<?xml version="1.0" encoding="utf-8"?>
<!-- Generator: Adobe Illustrator 18.0.0, SVG Export Plug-In . SVG Version: 6.00 Build 0)  -->
<!DOCTYPE svg PUBLIC "-//W3C//DTD SVG 1.1//EN" "http://www.w3.org/Graphics/SVG/1.1/DTD/svg11.dtd">
<svg version="1.1" id="Layer_1" xmlns="http://www.w3.org/2000/svg" xmlns:xlink="http://www.w3.org/1999/xlink" x="0px" y="0px"
	 viewBox="0 0 468 80.6" enable-background="new 0 0 468 80.6" xml:space="preserve">
<path fill-rule="evenodd" clip-rule="evenodd" fill="#BE4727" d="M448.8,0h-431l13.6,41.3L17.5,80.6h431L435,39.4L448.8,0z
	 M444.9,77.8H21.3l12.8-36.5L21.4,2.8h423.7l-12.8,36.5L444.9,77.8z"/>
<polygon fill-rule="evenodd" clip-rule="evenodd" fill="#272727" points="4.5,7.7 461.7,7.7 449.4,39.3 461.7,72.9 4.5,72.9 
	16.8,41.4 4.5,7.7 "/>
<path fill-rule="evenodd" clip-rule="evenodd" fill="#272727" d="M4.5,35.8c2.5,0,4.5,2,4.5,4.5c0,2.5-2,4.5-4.5,4.5
	c-2.5,0-4.5-2-4.5-4.5C0,37.8,2,35.8,4.5,35.8L4.5,35.8z"/>
<path fill-rule="evenodd" clip-rule="evenodd" fill="#272727" d="M463.5,35.8c2.5,0,4.5,2,4.5,4.5c0,2.5-2,4.5-4.5,4.5
	c-2.5,0-4.5-2-4.5-4.5C458.9,37.8,461,35.8,463.5,35.8L463.5,35.8z"/>
<text transform="matrix(1 0 0 1 70.9664 57.4029)"><tspan x="0" y="0" fill="#FFFFFF" font-family="'Corki-Tuscan'" font-size="49.1396">5.</tspan><tspan x="26.4" y="0" fill="#FFFFFF" font-family="'Corki-Tuscan'" font-size="49.1396" letter-spacing="-6"> </tspan><tspan x="29.8" y="0" fill="#FFFFFF" font-family="'Corki-Tuscan'" font-size="49.1396">-</tspan><tspan x="46.5" y="0" fill="#FFFFFF" font-family="'Corki-Tuscan'" font-size="49.1396" letter-spacing="-3"> </tspan><tspan x="52.9" y="0" fill="#FFFFFF" font-family="'Corki-Tuscan'" font-size="49.1396">14. September 2014</tspan></text>
</svg>
