<?xml version="1.0" encoding="utf-8"?>
<!-- Generator: Adobe Illustrator 18.0.0, SVG Export Plug-In . SVG Version: 6.00 Build 0)  -->
<!DOCTYPE svg PUBLIC "-//W3C//DTD SVG 1.1//EN" "http://www.w3.org/Graphics/SVG/1.1/DTD/svg11.dtd">
<svg version="1.1" id="Layer_1" xmlns="http://www.w3.org/2000/svg" xmlns:xlink="http://www.w3.org/1999/xlink" x="0px" y="0px"
	 viewBox="0 0 468 80.6" enable-background="new 0 0 468 80.6" xml:space="preserve">
<path fill-rule="evenodd" clip-rule="evenodd" fill="#BE4727" d="M448.8,0h-431l13.6,41.3L17.5,80.6h431L435,39.4L448.8,0z
	 M444.9,77.8H21.3l12.8-36.5L21.4,2.8h423.7l-12.8,36.5L444.9,77.8z"/>
<polygon fill-rule="evenodd" clip-rule="evenodd" fill="#272727" points="4.5,7.7 461.7,7.7 449.4,39.3 461.7,72.9 4.5,72.9 
	16.8,41.4 4.5,7.7 "/>
<path fill-rule="evenodd" clip-rule="evenodd" fill="#272727" d="M4.5,35.8c2.5,0,4.5,2,4.5,4.5c0,2.5-2,4.5-4.5,4.5
	c-2.5,0-4.5-2-4.5-4.5C0,37.8,2,35.8,4.5,35.8L4.5,35.8z"/>
<path fill-rule="evenodd" clip-rule="evenodd" fill="#272727" d="M463.5,35.8c2.5,0,4.5,2,4.5,4.5c0,2.5-2,4.5-4.5,4.5
	c-2.5,0-4.5-2-4.5-4.5C458.9,37.8,461,35.8,463.5,35.8L463.5,35.8z"/>
<g>
	<path fill="#FFFFFF" d="M76,36c1-1.7,2.7-2.4,4.5-2.4c4.5,0,6.2,2.8,6.2,6.6v11.1c0,4.8-2.8,6.6-6.6,6.6h-0.2
		c-4.8,0-6.6-2.8-6.6-6.6v-4.4h2.8v4.7c0,2.8,1.6,3.9,3.9,3.9H80c2.7,0,3.8-1.7,3.8-3.9V40c0-2.9-1.7-3.9-3.9-3.9h-0.2
		c-2.7,0-3.7,1.5-3.7,3.6V41h-2.7V20.6h12.4v2.6H76V36z"/>
	<path fill="#FFFFFF" d="M95.1,51.9v5.6h-3.6v-5.6H95.1z"/>
	<path fill="#FFFFFF" d="M103,40.3h12.2v2.6H103V40.3z"/>
	<path fill="#FFFFFF" d="M136,57.4h-2.4c-1.3,0-1.9-0.3-2.5-0.8c-0.5,0.4-1.1,0.8-2.3,0.8h-2.8V55h3.5V25.1H126v-1.9
		c3.2,0,3.6-2.6,3.6-2.6h2.8V55h3.5V57.4z"/>
	<path fill="#FFFFFF" d="M148.8,55h3.5v2.4H150c-1.3,0-1.9-0.3-2.5-0.8c-0.5,0.4-1.1,0.8-2.3,0.8h-2.8V55h3.5v-5.4h-9.2v-2l8.7-27
		h3.3V47h3.5v2.6h-3.5V55z M146,35.4l0.2-10.2l-2.4,8.9L139.7,47h6.3V35.4z"/>
	<path fill="#FFFFFF" d="M159.7,51.9v5.6h-3.6v-5.6H159.7z"/>
	<path fill="#FFFFFF" d="M185,20.6h2.5v13.1H185c-0.1-2.8-0.8-5.7-0.8-5.7c-1.2-3.6-2.8-5.1-4.3-5.1c-2.3,0-3.1,1.7-3.1,4.1
		c0,2.3,2.2,6.2,5.3,10.5c4.2,5.8,5.9,10.2,5.9,13.2c0,5.2-2.3,7.2-5.5,7.2c-4.2,0-5.8-2.8-5.8-6.7h-0.2v6.2h-2.6V45h2.7
		c0.8,7.3,2.9,10.1,5.4,10.1c2.3,0,3.2-2,3.2-4.7c0-2.6-2-6.4-4.8-10.2c-4.6-6.2-6.4-10.4-6.4-12.9c0-5.2,2.3-7.2,5.6-7.2
		c3,0,4.7,2.3,5.4,5.5h0.2V20.6z"/>
	<path fill="#FFFFFF" d="M194.1,51.4c0,2.8,1.3,3.9,3.1,3.9c2.2,0,3-1.7,3-3.9v-2.5h2.8v2.2c0,4.7-2.5,6.6-5.9,6.6
		c-4.2,0-5.8-2.8-5.8-6.6V37.9c0-4.7,2.5-6.6,5.8-6.6c4.2,0,5.9,2.8,5.9,6.5v7.8h-8.9V51.4z M200.2,43.3v-5.6c0-2.8-1.3-3.9-3.1-3.9
		c-2.2,0-3,1.6-3,3.9v5.6H200.2z"/>
	<path fill="#FFFFFF" d="M209.8,34.6c0.8-2.3,2.4-3.2,4.2-3.2c3.6,0,5.1,2.5,5.1,6v13.8c0,4.7-2.3,6.5-5.4,6.5c-1.9,0-3.1-1-3.6-2.4
		h0v7.8h2.1v2.4h-1c-1.3,0-1.9-0.3-2.5-0.8c-0.5,0.4-1.1,0.8-2.3,0.8H205v-2.4h2.2V34.3H205v-2.4h4.7L209.8,34.6z M216.2,37.9
		c0-3-1.3-4.2-3-4.2c-2.3,0-3.2,2-3.2,4.7v12.1c0,3.3,1.3,4.7,3,4.7c2.3,0,3.1-2,3.1-4.7V37.9z"/>
	<path fill="#FFFFFF" d="M227.5,57.4c-3.2,0-4.3-0.6-4.3-3.6V34.3H221v-2.4h2.2v-8.3h2.8v8.3h3.5v2.4h-3.5v19.5
		c0,0.8,0.5,1.3,1.6,1.3h2v2.4H227.5z"/>
	<path fill="#FFFFFF" d="M234.8,51.4c0,2.8,1.3,3.9,3.1,3.9c2.2,0,3-1.7,3-3.9v-2.5h2.8v2.2c0,4.7-2.5,6.6-5.9,6.6
		c-4.2,0-5.8-2.8-5.8-6.6V37.9c0-4.7,2.5-6.6,5.8-6.6c4.2,0,5.9,2.8,5.9,6.5v7.8h-8.9V51.4z M241,43.3v-5.6c0-2.8-1.3-3.9-3.1-3.9
		c-2.2,0-3,1.6-3,3.9v5.6H241z"/>
	<path fill="#FFFFFF" d="M272.7,57.4h-1.2c-1.2,0-1.7-0.3-2.3-0.8c-0.5,0.4-1.1,0.8-2.3,0.8h-1.5V55h2.3V38.7c0-3.3-1.5-4.7-3.5-4.7
		c-2.3,0-3.2,1.8-3.3,4.2V55h2.3v2.4h-1.3c-1.3,0-1.8-0.3-2.4-0.8c-0.5,0.4-1.1,0.8-2.3,0.8h-1.5V55h2.3V38.7c0-3.3-1.4-4.7-3.4-4.7
		c-2.5,0-3.4,2-3.4,4.7V55h2.3v2.4h-1.2c-1.3,0-1.9-0.3-2.5-0.8c-0.5,0.4-1.1,0.8-2.3,0.8h-1.3V55h2.2V34.3h-2.2v-2.4h5V34h0.1
		c1.1-1.9,2.7-2.6,4.3-2.6c2.5,0,3.9,1.4,4.7,3.3c1-2.4,2.9-3.3,5-3.3c3.7,0,5.2,2.7,5.2,6.5V55h2.2V57.4z"/>
	<path fill="#FFFFFF" d="M278.9,33.7c0.7-1.7,2.1-2.4,3.6-2.4c3.8,0,5.4,2.7,5.4,6.5v13.8c0,4.3-2.1,6-5.1,6c-2.4,0-3.6-1.4-4.2-2.9
		l-0.1,2.7H274V55h2.1V23H274v-2.4h4.9L278.9,33.7L278.9,33.7z M285,38.4c0-3.3-1.3-4.7-3.1-4.7c-2.2,0-3,2-3,4.7v12.1
		c0,3.3,1.3,4.7,3.2,4.7c2.2,0,3-1.8,3-4.2V38.4z"/>
	<path fill="#FFFFFF" d="M293.9,51.4c0,2.8,1.3,3.9,3.1,3.9c2.2,0,3-1.7,3-3.9v-2.5h2.8v2.2c0,4.7-2.5,6.6-5.9,6.6
		c-4.2,0-5.8-2.8-5.8-6.6V37.9c0-4.7,2.5-6.6,5.8-6.6c4.2,0,5.9,2.8,5.9,6.5v7.8h-8.9V51.4z M300,43.3v-5.6c0-2.8-1.3-3.9-3.1-3.9
		c-2.2,0-3,1.6-3,3.9v5.6H300z"/>
	<path fill="#FFFFFF" d="M309.9,34.4c0.3-2,1.6-2.8,3-2.8c2.7,0,3.8,2.4,3.8,5.6v3.4h-2.4v-3.7c0-2.1-0.9-2.9-2-2.9
		c-1.6,0-2.2,1.7-2.2,3.9V55h2.2v2.4h-1.3c-1.2,0-1.7-0.3-2.3-0.8c-0.6,0.5-1.1,0.8-2.5,0.8h-1.1V55h2.2V34.3h-2.2v-2.4h4.7V34.4z"
		/>
	<path fill="#FFFFFF" d="M330.1,57.4V55c0,0,10.9-14.2,10.9-26.3c0-4.5-1.6-6.2-3.8-6.2c-2.9,0-4.1,2.2-4.1,5.3v5.5h-2.8V28
		c0-5.7,2.9-8,6.9-8c4.8,0,6.7,3.6,6.7,8.5c0,8.2-4.3,17.9-10.5,26.4h8.6v-6.9h2.8v9.3H330.1z"/>
	<path fill="#FFFFFF" d="M349.2,26.6c0-4.7,2.8-6.6,6.7-6.6c4.9,0,6.8,2.8,6.8,6.5v24.7c0,4.7-2.8,6.6-6.8,6.6
		c-4.9,0-6.7-2.8-6.7-6.6V26.6z M359.9,26.4c0-2.9-1.7-3.9-3.9-3.9c-2.8,0-3.9,1.6-3.9,3.9v25.2c0,2.8,1.6,3.9,3.9,3.9
		c2.8,0,3.9-1.7,3.9-3.9V26.4z"/>
	<path fill="#FFFFFF" d="M376.6,57.4h-2.4c-1.3,0-1.9-0.3-2.5-0.8c-0.5,0.4-1.1,0.8-2.3,0.8h-2.8V55h3.5V25.1h-3.6v-1.9
		c3.2,0,3.6-2.6,3.6-2.6h2.8V55h3.5V57.4z"/>
	<path fill="#FFFFFF" d="M389.4,55h3.5v2.4h-2.4c-1.3,0-1.9-0.3-2.5-0.8c-0.5,0.4-1.1,0.8-2.3,0.8h-2.8V55h3.5v-5.4h-9.2v-2l8.7-27
		h3.3V47h3.5v2.6h-3.5V55z M386.6,35.4l0.2-10.2l-2.4,8.9L380.3,47h6.3V35.4z"/>
</g>
</svg>
