<?xml version="1.0" encoding="utf-8"?>
<!-- Generator: Adobe Illustrator 18.0.0, SVG Export Plug-In . SVG Version: 6.00 Build 0)  -->
<!DOCTYPE svg PUBLIC "-//W3C//DTD SVG 1.1//EN" "http://www.w3.org/Graphics/SVG/1.1/DTD/svg11.dtd">
<svg version="1.1" id="Layer_1" xmlns="http://www.w3.org/2000/svg" xmlns:xlink="http://www.w3.org/1999/xlink" x="0px" y="0px"
	 viewBox="0 0 50.9 13.4" enable-background="new 0 0 50.9 13.4" xml:space="preserve">
<g>
	<path d="M1,3.6C1,2.5,1.7,2,2.6,2c1.2,0,1.7,0.7,1.7,1.6v6c0,1.2-0.7,1.6-1.7,1.6C1.4,11.3,1,10.6,1,9.7V3.6z M3.6,3.6
		c0-0.7-0.4-1-1-1c-0.7,0-1,0.4-1,0.9v6.2c0,0.7,0.4,1,1,1c0.7,0,1-0.4,1-1V3.6z"/>
	<path d="M6.8,3.3c0-0.6-0.2-0.7-0.3-0.7c-0.3,0-0.4,0.3-0.4,0.7v1.6h1.2v0.6H6.1v5.1h1.1v0.6H6.3c-0.3,0-0.4-0.1-0.6-0.2
		c-0.1,0.1-0.3,0.2-0.6,0.2H4.9v-0.6h0.5V5.5H4.9V4.9h0.5V3.4c0-1.1,0.4-1.4,1-1.4c0.8,0,1,0.5,1,1.4v0.3H6.8V3.3z"/>
	<path d="M9.8,3.3c0-0.6-0.2-0.7-0.3-0.7C9.1,2.6,9,2.9,9,3.3v1.6h1.2v0.6H9v5.1h1.1v0.6H9.2c-0.3,0-0.4-0.1-0.6-0.2
		c-0.1,0.1-0.3,0.2-0.6,0.2H7.8v-0.6h0.5V5.5H7.8V4.9h0.5V3.4c0-1.1,0.4-1.4,1-1.4c0.8,0,1,0.5,1,1.4v0.3H9.8V3.3z"/>
	<path d="M14.7,11.1h-0.3c-0.3,0-0.5-0.1-0.6-0.2c-0.1,0.1-0.3,0.2-0.6,0.2H13v-0.6h0.5v-4c0-0.8-0.3-1.1-0.8-1.1
		c-0.6,0-0.8,0.5-0.8,1.1v4h0.5v0.6h-0.3c-0.3,0-0.5-0.1-0.6-0.2c-0.1,0.1-0.3,0.2-0.6,0.2h-0.3v-0.6h0.5V5.5h-0.5V4.9H12v0.5h0
		c0.3-0.5,0.6-0.6,1-0.6c0.9,0,1.2,0.7,1.2,1.6v4.2h0.5V11.1z"/>
	<path d="M18.8,10.6v0.6h-1.2v-0.5h0c-0.2,0.4-0.6,0.6-1,0.6c-0.9,0-1.3-0.7-1.3-1.6V5.5h-0.5V4.9h1.2v4.6c0,0.8,0.3,1.1,0.8,1.1
		c0.6,0,0.8-0.5,0.8-1.2V5.5h-0.5V4.9h1.2v5.6H18.8z"/>
	<path d="M23.3,11.1H23c-0.3,0-0.5-0.1-0.6-0.2c-0.1,0.1-0.3,0.2-0.6,0.2h-0.3v-0.6h0.5v-4c0-0.8-0.3-1.1-0.8-1.1
		c-0.6,0-0.8,0.5-0.8,1.1v4H21v0.6h-0.3c-0.3,0-0.5-0.1-0.6-0.2c-0.1,0.1-0.3,0.2-0.6,0.2h-0.3v-0.6h0.5V5.5h-0.5V4.9h1.2v0.5h0
		c0.3-0.5,0.6-0.6,1-0.6c0.9,0,1.2,0.7,1.2,1.6v4.2h0.5V11.1z"/>
	<path d="M26.6,5.5v6.1c0,1.1-0.6,1.5-1.4,1.5c-1,0-1.4-0.5-1.4-1.2v-0.4h0.7v0.4c0,0.5,0.3,0.7,0.7,0.7c0.5,0,0.7-0.3,0.7-0.7v-1.5
		c-0.1,0.4-0.5,0.6-0.9,0.6c-0.9,0-1.2-0.6-1.2-1.5v-3c0-1.2,0.5-1.6,1.2-1.6c0.5,0,0.8,0.2,0.9,0.5V4.9h1.2v0.6H26.6z M24.4,9.4
		c0,0.6,0.3,0.9,0.7,0.9c0.5,0,0.7-0.4,0.7-1V6.1c0-0.6-0.3-0.8-0.7-0.8c-0.5,0-0.7,0.4-0.7,0.9V9.4z"/>
	<path d="M28.1,8.9c0.1,1.2,0.5,1.8,1,1.8c0.3,0,0.6-0.3,0.6-0.7c0-0.5-0.3-1-1-1.8c-0.8-0.9-1.1-1.5-1.1-2.1c0-0.7,0.5-1.2,1.1-1.2
		c0.5,0,0.8,0.3,1,0.7V4.9h0.6v2.2h-0.5c0-1.1-0.3-1.8-0.9-1.8c-0.4,0-0.6,0.3-0.6,0.6c0,0.5,0.4,1,1,1.8c0.8,0.9,1.1,1.6,1.1,2.2
		c0,0.7-0.4,1.2-1.1,1.2c-0.6,0-0.9-0.3-1.1-0.9v0.8h-0.6V8.9H28.1z"/>
	<path d="M33.7,9.5v1.7h-2.9l2.1-5.6h-1.4v1.2h-0.6V4.9h2.9l-2,5.6H33V9.5H33.7z"/>
	<path d="M34.9,9.7c0,0.7,0.3,1,0.8,1c0.5,0,0.7-0.4,0.7-1V9.1h0.7v0.5c0,1.2-0.6,1.6-1.4,1.6c-1,0-1.4-0.7-1.4-1.6V6.4
		c0-1.2,0.6-1.6,1.4-1.6c1,0,1.4,0.7,1.4,1.6v1.9h-2.2V9.7z M36.4,7.7V6.3c0-0.7-0.3-1-0.8-1c-0.5,0-0.7,0.4-0.7,0.9v1.4H36.4z"/>
	<path d="M39.5,11.1h-0.3c-0.3,0-0.4-0.1-0.6-0.2c-0.1,0.1-0.3,0.2-0.6,0.2h-0.3v-0.6h0.5V5.5h-0.5V4.9H39v5.6h0.5V11.1z M38.3,3.6
		V2.2H39v1.4H38.3z"/>
	<path d="M41.4,11.1c-0.8,0-1.1-0.1-1.1-0.9V5.5h-0.5V4.9h0.5v-2H41v2h0.9v0.6H41v4.7c0,0.2,0.1,0.3,0.4,0.3h0.5v0.6H41.4z"/>
	<path d="M43.2,9.7c0,0.7,0.3,1,0.8,1c0.5,0,0.7-0.4,0.7-1V9.1h0.7v0.5c0,1.2-0.6,1.6-1.4,1.6c-1,0-1.4-0.7-1.4-1.6V6.4
		c0-1.2,0.6-1.6,1.4-1.6c1,0,1.4,0.7,1.4,1.6v1.9h-2.2V9.7z M44.7,7.7V6.3c0-0.7-0.3-1-0.8-1c-0.5,0-0.7,0.4-0.7,0.9v1.4H44.7z"/>
	<path d="M49.9,11.1h-0.3c-0.3,0-0.5-0.1-0.6-0.2c-0.1,0.1-0.3,0.2-0.6,0.2h-0.3v-0.6h0.5v-4c0-0.8-0.3-1.1-0.8-1.1
		c-0.6,0-0.8,0.5-0.8,1.1v4h0.5v0.6h-0.3c-0.3,0-0.5-0.1-0.6-0.2c-0.1,0.1-0.3,0.2-0.6,0.2h-0.3v-0.6h0.5V5.5h-0.5V4.9h1.2v0.5h0
		c0.3-0.5,0.6-0.6,1-0.6c0.9,0,1.2,0.7,1.2,1.6v4.2h0.5V11.1z"/>
</g>
<g>
	<path d="M2,0.3v1H1.4v-1H2z"/>
	<path d="M3.7,0.3v1H3.1v-1H3.7z"/>
</g>
</svg>
