<?xml version="1.0" encoding="utf-8"?>
<!-- Generator: Adobe Illustrator 18.0.0, SVG Export Plug-In . SVG Version: 6.00 Build 0)  -->
<!DOCTYPE svg PUBLIC "-//W3C//DTD SVG 1.1//EN" "http://www.w3.org/Graphics/SVG/1.1/DTD/svg11.dtd">
<svg version="1.1" id="Layer_1" xmlns="http://www.w3.org/2000/svg" xmlns:xlink="http://www.w3.org/1999/xlink" x="0px" y="0px"
	 viewBox="0 0 527.4 550" enable-background="new 0 0 527.4 550" xml:space="preserve">
<g>
	<path fill="#BE4727" d="M38.2,115.2c-4.3,0-7-1.1-8.3-2.6c-0.2,0.5-0.4,1-0.5,1.3c-0.2,0.9-0.1,2.1-0.9,2.1c-1.9,0-3.8-3.8-3.8-5.4
		c0-5.4,0.5-14.9,1.3-23.8c-9.4-0.7-14.1-5.4-14.1-10.7c0-10.6,12.8-16.6,26.4-16.6c15.3,0,31.6,7.7,31.6,25.4
		C69.9,99.6,58.7,115.2,38.2,115.2z M29.1,69.3c0.9-0.2,1.7-0.4,2.4-0.4c0.1,0,0.1,0.1,0.1,0.3c-0.4,4.4-0.7,9.1-0.9,13.8
		c0.7,0.1,1.4,0.1,2.1,0.1c3.2,0,6.4-0.7,9.5-2.4c0.2,0.2-3.3,5.6-11.8,6.3c-0.2,6.8-0.3,13.4-0.3,19.1c0.8-1,1.8-1.8,3.2-2.6
		c0,0,0.8,0.1,0.8,0.4c-0.4,0.5-1.7,1.8-1.7,3.2c0,1.2,1.3,1.9,4.3,1.9c17.4,0,27-13.4,27-25.8c0-13.9-15.2-20.3-28.5-20.3
		C25,62.9,16,66.7,16,73.8c0,3.7,3.6,7.3,10.5,8.7c0.5-4.8,1.1-9.1,1.7-12.2C28.4,69.6,28.6,69.4,29.1,69.3z"/>
	<path fill="#BE4727" d="M73.5,87.7c1,0,2.1-0.1,3.7-0.4c0.7,0,0.7,0.5,0.7,0.5c-1.6,8.8-2.4,12.4-2.4,18.5c0,2.1,0.5,2.8,1.3,2.8
		c1.3,0,3.3-2.2,4-3.8c0.1-0.2,0.4-0.4,0.5-0.4c0.2,0,0.3,0.1,0.3,0.4v0.1c-0.7,3.5-3.2,6.6-6.2,6.6c-3.4,0-4.5-4.5-4.5-9.6
		c0-5.3,1.1-11.3,1.7-14C72.8,88.5,73,87.7,73.5,87.7z M81.1,74c0,2.3-1.8,5.2-3.9,5.2c-2,0-2.8-1.5-2.8-3.1c0-2.3,1.6-4.9,4-4.9
		C80.3,71.2,81.1,72.5,81.1,74z"/>
	<path fill="#BE4727" d="M111.4,93.2c0,0,0.2-0.2,0.5-0.2c0.2,0,0.3,0.1,0.3,0.6c0,0.2-0.1,0.5-0.1,1c0.1,0.6,0.5,0.7,0.5,1.3v0.1
		c0,11.8-8.6,17.3-16.8,17.3c-7.4,0-14.5-4.5-14.5-12.7c0-7.4,3.8-15.5,9.8-15.5c2.7,0,4.3,2,4.3,4.8c0,3.8-2.9,9-9.5,12.7
		c0.4,5.1,2.8,7.3,6.2,7.3C98.2,109.7,107.5,102.1,111.4,93.2z M90.8,88.5c-2.7,0-4.8,6.2-5,11.6c4-3,6.2-7.6,6.2-10
		C92,89.1,91.6,88.5,90.8,88.5z"/>
</g>
<g>
	<path fill="#BE4727" d="M148.4,62.6c3.5-18.8,28.2-30.1,48.3-30.1c14.3,0,26.4,5.7,26.4,19.1c0,12.3-15.5,25.6-46,25.6
		c-6.7,0-12.7-0.5-18.3-1.3c9.9,21.2,47.6,46,47.6,73.6c0,20.1-17.5,27.4-31.1,27.4c-48.4,0-77.9-51.1-77.6-51.1
		c0.2,0,0.3-1.8,1.4-1.8c1,0,2.5,1.1,5.6,5.3c0,0,1.6,0.2,2.7,0.2l2.7,2.5c17,16.1,42.7,23.9,62,23.9c11,0,20.2-6.1,20.2-17.2
		c0-18.6-37.4-39.2-43.6-64.5C120.2,67.6,106,50.7,106,35.8c0-13.7,12.4-25.5,37.1-25.5c5.1,0,13.1,1.1,18.3,3.7l-0.2,0.8
		c0,0-6.2-1.8-14.2-1.8c-22.3,0-33,9.7-33,20.7C114.2,45.2,125.8,58.2,148.4,62.6z M192.5,38.1c-13.9,0-33.9,9.9-36,25.8
		c3.2,0.3,6.5,0.5,10,0.5c25,0,39.3-9.7,39.3-16.9C205.9,40.9,200.2,38.1,192.5,38.1z"/>
	<path fill="#BE4727" d="M251.6,110.4c2.9,0.8,6.9,2.1,6.9,4c0,4.6-2.2,19.1-2.2,30.4c0,8.1,1.1,14.5,5.1,14.5c3.5,0,7.8-3.2,9.4-7
		c1.8-0.5,2.1-2.5,2.5-2.5c0.6,0,0.6,1,0.6,1.4c0,8.4-7.5,16.1-14.8,16.1c-6.2,0-12.3-5.4-13.9-19.8c-4.3,11.2-10.4,19.8-16.6,19.8
		c-11,0-15.8-11.6-15.8-25.3c0-19.9,9.9-44.3,25-44.3C246.4,97.7,250.5,103.1,251.6,110.4z M246.2,115.2c-2.7-3.5-5.3-5.1-7.6-5.1
		c-9.9,0-16.4,25.6-16.4,38.2c0,6.5,1.6,11.2,4.8,11.2C240,159.5,244.8,127.8,246.2,115.2z"/>
	<path fill="#BE4727" d="M298.5,95.9c6.4,0,11.2,4.9,11.9,15.8c0.2,0.8,0.3,1.8,0.3,2.5c0,5.1-4.1,8.9-9.6,8.9
		c-3.3,0-4.6-1.3-4.6-2.1c0-0.3,0.2-0.5,0.5-0.5c1.3-0.2,4.1-6.2,4.1-9.9c0-1.3-0.3-2.2-1.1-2.5c-8.6,0.6-17.8,19.6-17.8,34.6
		c0,12.1,6.7,18.5,12.9,18.5c5.7,0,11.2-5.3,11.2-15.8c0-3.3-0.6-7-1.9-11c0-0.2,0-1,1.9-1c4.6,0,8.1,7,8.1,14.7
		c0,13.7-8.8,20.6-18.5,20.6c-11.6,0-24.5-9.9-24.5-29.3C271.4,119.3,283.2,95.9,298.5,95.9z"/>
	<path fill="#BE4727" d="M331.8,131.8c0.3,0,0.5-0.2,0.6-0.5c2.1-5.6,14-29,19.4-29c1.6,0,2.9,1.4,2.9,1.4c3.2,0.2,6.2,0.8,6.2,4.1
		c-1.8,12.6-2.7,23.7-2.7,34.6c0,8,0.8,17.2,5.3,17.2c5.3,0,9.9-7.6,11.2-11.9c0,0,0.2-0.6,0.8-0.6c1.3,0,1.6,1.6,1.6,2.4
		c0,5.9-4.3,12.6-8.8,15.8c-2.9,2.1-5.6,2.7-7.8,2.7c-14,0-14.8-22.1-14.8-31.5c0-7.5,0.5-14.7,0.8-19.1c0-0.6-0.2-2.7-0.6-2.7
		c-1,0-8.4,14.3-9.9,17.8c-3.5,8-5.4,18.5-5.4,26.6c0,5.9,0.2,10.7,0.2,10.7c0,1.6-0.3,2.7-1.1,2.7c-0.3,0-0.6-0.2-1.1-0.5
		c-2.7-2.1-8.4-4.9-9.9-6.4c0.3-5.7,2.4-27.6,4.1-51.1h-0.6c-0.6,0-1.1-0.2-1.3-0.3c-1.4-0.6-0.6-1.6-2.1-2.2
		c-1.1,0-1.6-0.3-1.6-0.5c-0.2,0,3.5-0.8,5.9-1.6l0.5-5.7c2.7-39.3,15.1-83,24.2-83c7.8,0,11.3,8.3,11.3,19.9
		c0,20.9-10.8,52.4-26.3,67.1c-0.8,9.6-1.4,18.6-1.4,23.1C331.3,131.6,331.6,131.8,331.8,131.8z M349.1,41.1
		c-5.4,0-13.2,30.7-15.9,60.4c11.8-14.5,18-41.4,18-53.8C351.2,43.7,350.4,41.1,349.1,41.1z"/>
	<path fill="#BE4727" d="M452.7,118.1c0,0,0.6-0.6,1.3-0.6c0.5,0,0.8,0.3,0.8,1.6c0,0.6-0.2,1.4-0.3,2.5c0.2,1.6,1.3,1.9,1.3,3.3
		v0.2c0,30.9-22.5,45.1-44,45.1c-19.4,0-37.9-11.6-37.9-33.1c0-19.3,10-40.5,25.5-40.5c7.2,0,11.2,5.3,11.2,12.6
		c0,10-7.5,23.6-24.7,33.1c1,13.4,7.3,19,16.1,19C418.1,161.2,442.3,141.5,452.7,118.1z M398.9,105.8c-7,0-12.4,16.2-13.1,30.4
		c10.4-7.8,16.1-19.8,16.1-26.1C401.9,107.4,400.9,105.8,398.9,105.8z"/>
</g>
<g>
	<path fill="#BE4727" d="M181.7,202.2c0.9,0,4,2,4,3c0,0.2,0,0.3-0.1,0.4c-2.2,4.8-3,12.5-3,17.7c0,5.2,2.6,9.8,7.2,9.8
		c4.4,0,8.5-2.8,11.4-4.9c1-0.8,3-2.1,3.8-2.1c0.2,0,0.3,0.1,0.3,0.3c0,0.4-0.5,1.4-1.9,3.3l0.3,1.7c-3.9,7.2-9.1,10.6-13.8,10.6
		c-12.3,0-14-12.1-14-25c-4.1,4.5-6.2,16.3-8.1,22c-0.1,0.6-0.6,0.9-1.3,0.9c-1.8,0-4.1-2.1-4.1-2.3c0-0.2,0.6-5.8,1.1-12.8
		c0.3-3.7,0.9-10.3,0.9-14.4c0-0.8-0.1-1.2-0.2-1.2c-1.6,0-4.7,29.8-15.4,29.8c-4.8,0-6.3-6.2-6.3-13.5c0-8.6,1.9-21,3.4-21
		c1.5,0,2.9-0.1,5.3-0.6c1,0,1,0.7,1,0.7c-2.2,12.5-3.5,17.5-3.5,26.1c0,2.8,0.7,4,1.6,4c6.3,0,9.2-16.7,11.7-24.3
		c1.4-4.1,2.6-7.2,3.7-7.2c1.6,0,2.7-0.9,3.4-0.9c0.7,0,0.8,3.9,0.8,7.4c0,4.2,0,8.5-0.1,13.6c2.8-6,6-16.1,11-20.9
		C181.2,202.3,181.4,202.2,181.7,202.2z M156.8,185.3c0,3.3-2.5,7.4-5.5,7.4c-2.8,0-4-2.1-4-4.4c0-3.2,2.2-7,5.7-7
		C155.7,181.4,156.8,183.2,156.8,185.3z"/>
</g>
<g>
	<path fill="#BE4727" d="M250,182.4c0.1,0,0.2,0,0.3,0.1c1.6,1.1,5.1,1,5.1,2.6c0,2.3-4.9,21.8-4.9,37.1c0,7.9,1.3,14.8,5.4,17.2
		c0.2,0.1,0.3,0.3,0.3,0.5c0,0.4-0.3,0.7-0.6,0.7h-0.1c-5.1-1-7.8-5.8-9-12.3c-1.9,6.8-5.4,12.8-9.2,12.8c-5.5,0-7.8-5-7.8-10.9
		c0-8.8,5-19.7,12-19.7c1.9,0,3.3,0.6,4.3,1.6c0.5-10.9,2.5-22.4,3.2-29.1C249.3,182.7,249.6,182.4,250,182.4z M243.2,215.3
		c-3.2,0-8.9,6.3-8.9,17c0,3.7,1,5.4,2.4,5.4c3.2,0,8.7-8.6,8.7-19.2C245.5,216.3,244.6,215.3,243.2,215.3z"/>
	<path fill="#BE4727" d="M286.9,220.1c-1.2,0.6-2.8,0.9-4.3,0.9c-0.3,0-0.6,0-0.9-0.1c-1,7.7-4.6,20.4-14.6,20.4
		c-4.6,0-8.8-3.5-10.9-12.3c-0.3,0-0.6,0-0.9-0.1c-0.4-0.1-0.1-0.8-1-1.7c-0.1-0.1-0.1-0.1-0.1-0.2c0-0.3,0.5-0.7,0.9-0.7l1.1,0.2
		c0.4-8.9,4.9-18.1,11.7-18.1c3.2,0,5.1,2.9,5.1,6.6c0,5-3.3,11.5-11,14.5c0.6,7,3.2,9.6,6.2,9.6c7.3,0,10.3-10.3,11.4-19.2
		c-2-1.5-2.9-4.4-2.9-7.1c0-3,1.2-5.7,3.4-5.7c2.2,0,2.7,1.5,2.7,3.4c0,1.5-0.4,3.4-0.4,4.8c0,1.2,0.1,1.8,0.7,1.8
		c0.4,0,0.9-0.3,1.6-0.7c2.6-1.7,6.5-5.8,7-5.8c1,0,2.4,1.9,2.4,2.9c0,1.9-1.3,4-2.9,5.4c-0.3,2-0.4,4-0.4,5.8
		c0,6.2,1.6,11.4,6.7,11.4c3.7,0,7.2-2.4,9.7-4.2c0.9-0.7,2.6-1.8,3.2-1.8c0.1,0,0.3,0.1,0.3,0.2c0,0.4-0.4,1.2-1.6,2.9l0.3,1.5
		c-3.3,6.1-7.8,9-11.7,9c-6.5,0-11-6.5-11-17.5c0-1.9,0.1-3.9,0.4-6H286.9z M262,226.4c5.3-1.9,7.5-7.2,7.5-10.6
		c0-1.8-0.6-3.1-1.7-3.1C264.5,212.7,262.1,219.9,262,226.4z"/>
</g>
<g>
	<path fill="#BE4727" d="M66.8,360.3c-7.6,3.7-7.4,5-8.4,5c-1.7,0-2-1.3-2-2.2c1.3-19.7,1.8-40.2,2-57.3l-5.7,1.3
		c-0.9-0.8-2.2-4.8-2.2-7.1c0-0.9,0.3-1.6,0.8-1.6c2.9,0,5,0,7.3-0.1v-13.4c0-10.7,0-18,0.1-19.7c0-0.8,0.3-1.4,1-1.6
		c1.3-0.1,10.8-0.7,10.8-0.7c0.1,0,0.9,0.1,0.9,0.5c0,3.1-2,9.8-3.3,34.2c38.6-5.9,54.1-17.1,54.1-26.5c0-8.9-13.7-16.3-34.6-16.3
		c-29.9,0-75.5,9.7-77.2,37.1C8.2,288.4,7,285.2,7,282c0-22.5,56.4-36.9,87.6-36.9c27.8,0,43.6,9.3,43.6,20.9
		c0,9.5-10.8,20.6-34.6,29.2c33.2,2.9,48.4,18.8,48.4,34.7c0,17.8-18.9,35.6-52.7,35.6c-13.7,0-27.3-5.5-32.5-15.1V360.3z
		 M72.3,334.8c0,1.2-0.3,2.4-0.3,2.4c8.1,11.9,22.5,12.3,32.5,12.3c20.2,0,35.8-13.8,35.8-26.9c0-14.4-18.5-21.9-42.8-21.9
		c-9.3,0-19.5,1.2-29.6,3.4c-0.4,8.4-0.8,18.9-0.9,31.2c1.3-1.6,2.9-3.4,3.7-3.4C72,331.8,72.3,333.9,72.3,334.8z"/>
	<path fill="#BE4727" d="M187.8,314.3c2.4,0.7,5.6,1.7,5.6,3.3c0,3.8-1.8,15.7-1.8,24.9c0,6.7,0.9,11.9,4.2,11.9
		c2.9,0,6.4-2.6,7.7-5.7c1.4-0.4,1.7-2.1,2.1-2.1c0.5,0,0.5,0.8,0.5,1.2c0,6.9-6.1,13.2-12.1,13.2c-5.1,0-10.1-4.4-11.4-16.2
		c-3.5,9.1-8.5,16.2-13.6,16.2c-9,0-12.9-9.5-12.9-20.8c0-16.3,8.1-36.3,20.5-36.3C183.5,303.9,186.9,308.3,187.8,314.3z
		 M183.4,318.2c-2.2-2.9-4.3-4.2-6.3-4.2c-8.1,0-13.4,21-13.4,31.3c0,5.4,1.3,9.1,3.9,9.1C178.3,354.5,182.2,328.5,183.4,318.2z"/>
	<path fill="#BE4727" d="M212,331.8c0.3,0,0.4-0.1,0.5-0.4c1.7-4.6,11.5-23.8,15.9-23.8c1.3,0,2.4,1.2,2.4,1.2
		c2.6,0.1,5.1,0.7,5.1,3.4c-1.4,10.3-2.2,19.5-2.2,28.3c0,6.5,0.7,14.1,4.3,14.1c4.3,0,8.1-6.3,9.1-9.8c0,0,0.1-0.5,0.7-0.5
		c1,0,1.3,1.3,1.3,2c0,4.8-3.5,10.3-7.2,12.9c-2.4,1.7-4.6,2.2-6.4,2.2c-11.5,0-12.1-18.1-12.1-25.9c0-6.1,0.4-12,0.7-15.7
		c0-0.5-0.1-2.2-0.5-2.2c-0.8,0-6.9,11.8-8.1,14.6c-2.9,6.5-4.4,15.1-4.4,21.8c0,4.8,0.1,8.7,0.1,8.7c0,1.3-0.3,2.2-0.9,2.2
		c-0.3,0-0.5-0.1-0.9-0.4c-2.2-1.7-6.9-4-8.1-5.2c0.3-4.7,2-22.6,3.4-41.9H204c-0.5,0-0.9-0.1-1-0.3c-1.2-0.5-0.5-1.3-1.7-1.8
		c-0.9,0-1.3-0.3-1.3-0.4c-0.1,0,2.9-0.7,4.8-1.3l0.4-4.7c2.2-32.2,12.4-68,19.8-68c6.4,0,9.3,6.8,9.3,16.3c0,17.1-8.9,43-21.5,55
		c-0.7,7.8-1.2,15.3-1.2,18.9C211.6,331.7,211.9,331.8,212,331.8z M226.2,257.5c-4.4,0-10.8,25.2-13.1,49.5
		c9.7-11.9,14.8-33.9,14.8-44.1C227.9,259.6,227.3,257.5,226.2,257.5z"/>
	<path fill="#BE4727" d="M244.6,318c-0.7,0-1.3-0.4-1.3-1.3c0-0.1,0-0.3,0.1-0.5c4.3-5.4,9.5-9.4,13.8-9.4c5.9,0,7.2,6.3,7.2,13.4
		c0,6-0.9,12.7-1,17c4.2-9.1,9-24.4,16.6-31.6c0.4-0.3,0.7-0.4,1-0.4c1.4,0,6,3,6,4.6c0,0.3,0,0.4-0.1,0.7
		c-3.3,7.3-4.6,18.9-4.6,26.8c0,7.6,2.3,13.1,6.3,13.1c1.7,0,3.7-1,5.9-3.4c0,0,0.3-0.1,0.5-0.1s0.4,0.1,0.4,0.4
		c0,5.4-5.5,10.6-10.7,10.6c-11.4,0-12.3-23.5-12.3-30c-6.3,6.8-9.4,24.7-12.3,33.3c0,0.9-0.9,1.3-2,1.3c-1.4,0-3.4-0.8-3.7-1.6
		c-0.5-1.3-2.5-0.5-2.5-2c0-0.3,0-0.8,0.1-1.2c0.5-2.6,0.9-9.8,1.6-18.1c0.4-5.6,1.3-15.5,1.3-21.8c0-3.9-0.9-5.4-2.4-5.4
		c-2,0-4.7,2.6-7.1,5.4C245.4,317.8,245,318,244.6,318z"/>
	<path fill="#BE4727" d="M303.8,331.8c0.3,0,0.4-0.1,0.5-0.4c1.7-4.6,11.5-23.8,15.9-23.8c1.3,0,2.4,1.2,2.4,1.2
		c2.6,0.1,5.1,0.7,5.1,3.4c-1.4,10.3-2.2,19.5-2.2,28.3c0,6.5,0.7,14.1,4.3,14.1c4.3,0,8.1-6.3,9.1-9.8c0,0,0.1-0.5,0.7-0.5
		c1,0,1.3,1.3,1.3,2c0,4.8-3.5,10.3-7.2,12.9c-2.4,1.7-4.6,2.2-6.4,2.2c-11.5,0-12.1-18.1-12.1-25.9c0-6.1,0.4-12,0.7-15.7
		c0-0.5-0.1-2.2-0.5-2.2c-0.8,0-6.9,11.8-8.1,14.6c-2.9,6.5-4.4,15.1-4.4,21.8c0,4.8,0.1,8.7,0.1,8.7c0,1.3-0.3,2.2-0.9,2.2
		c-0.3,0-0.5-0.1-0.9-0.4c-2.2-1.7-6.9-4-8.1-5.2c0.3-4.7,2-22.6,3.4-41.9h-0.5c-0.5,0-0.9-0.1-1-0.3c-1.2-0.5-0.5-1.3-1.7-1.8
		c-0.9,0-1.3-0.3-1.3-0.4c-0.1,0,2.9-0.7,4.8-1.3l0.4-4.7c2.2-32.2,12.4-68,19.8-68c6.4,0,9.3,6.8,9.3,16.3c0,17.1-8.9,43-21.5,55
		c-0.7,7.8-1.2,15.3-1.2,18.9C303.4,331.7,303.6,331.8,303.8,331.8z M318,257.5c-4.4,0-10.8,25.2-13.1,49.5
		c9.7-11.9,14.8-33.9,14.8-44.1C319.7,259.6,319.1,257.5,318,257.5z"/>
	<path fill="#BE4727" d="M380.2,318.5c1.4,0,2.9,0,4.3-0.1c0.4-0.7,0.7-1.7,0.7-2.2c0,0,1.2-2.9,4.8-62.7c0-0.7,0-1.3,0.3-1.3
		c0.7,0,1,0,1.4,0.4c1,1.6,4.8,7.1,6.1,8.5c0.8,0.9,1.2,1.8,1.2,3c0,0.4,0,0.9-0.1,1.4c-2.6,18-4.8,35.6-6.8,52
		c4.3-0.5,8.5-1.3,12.5-1.6c3.5,0,7.2,3.9,9.7,7.6c0.7,0.9,2.9,0.5,2.9,1.7c0,0.4-0.1,0.9-0.8,1.2c-2.1,1-12.4,1.8-18.9,1.8
		c-1.3,0-2.4-0.1-3.3-0.1c-1,0-1.2,1.2-1.2,1.2c7.2,11.6,11,33.9,11,53.9c0,21.9-4.6,41.3-14,41.3c-9.9,0-12.9-9.9-12.9-24.2
		c0-20.6,6.3-50.5,6.8-71.8c0,0-0.1-2.5-2.1-2.7c-3.5-0.5-6-1-7.7-1.6c0.1,1.3,0.1,2.6,0.1,3.9c0,14.8-7.8,31.3-19.2,31.3
		c-11.6,0-16.5-10.6-16.5-22.6c0-15.9,8.5-34.6,20.9-34.6c10.1,0,10.8,7.1,10.8,9.5v0.9c-2.1-0.9-4-1.3-5.9-1.3
		c-11.4,0-16.8,16.1-16.8,28.9c0,8.5,2.3,15.4,7.1,15.4c6.1,0,10.4-12.7,10.4-23.4c0-6.3-1.4-11.7-4.8-13.7c0,0,4.3-2.2,7.3-3.3
		C374,318.2,377,318.5,380.2,318.5z M389.6,339.8c-3.3,30.3-5.1,53.5-5.1,61.6c0,11.1,0.9,15.8,2.1,15.8c2.6,0,7.4-26.2,7.4-49.4
		C394,356.5,392.8,345.9,389.6,339.8z"/>
	<path fill="#BE4727" d="M435,296.9c0.4,0,1,0.1,1,0.7c0,0.1-2,8.6-2,18.7c0,9.4,7.7,23.8,7.7,34.5c0,7.8-5.6,11.9-11,11.9
		c-4.8,0-9.5-3.4-9.5-10.6c0-3.8,1.2-7.1,2-7.1c0.1,0,0.3,0,0.4,0.3c2,4.6,2,9.5,5.1,9.5c2.9,0,3.8-2.7,3.8-6.7c0-8.7-5-23.5-5-26.6
		c-3.1,6-9,29.2-17.2,39.7c0,0-2.9-0.5-2.9-1.6c0-0.1,0-0.3,0.1-0.4c8.9-12.8,18.7-47.5,19.5-56.9C427.3,299.4,433,296.9,435,296.9z
		"/>
</g>
<g>
	<path fill="#BE4727" d="M216.2,492.8c-1.6,0-1.8-1.2-1.8-2c1-14.3,1.4-29,1.7-42.3c-5.4-1.3-10.1-4-13.1-8.7c0,0-2.9-4-3.5-4.4
		c-0.5-0.2-0.7-0.7-0.7-1.2c0-0.2,0.4-0.6,0.4-1v-0.2c-0.5-1-0.7-1.4-0.7-1.8c0-0.4,0.2-0.5,0.5-0.5c0.6,0,1.4,0.5,2.2,0.7
		c5,1.7,10.1,2.9,15.1,3.7c0.1-5.9,0.1-11.4,0.1-16.1c0-9.8,0-16.5,0.1-18.1c0-0.7,0.2-1.3,1-1.4c1.2-0.1,9.9-0.6,9.9-0.6
		c0.1,0,0.8,0.1,0.8,0.5c0,3-2,9.8-3.4,36.5c1.7,0.1,3.2,0.1,4.8,0.1c20.5,0,36.8-8.1,36.8-25.5c0-14.4-16.5-20.6-35-20.6
		c-23.2,0-49.4,9.9-49.4,26.6c0,1,0.4,1.7,0.4,2.6c0,0.5-0.2,0.8-0.5,0.8c-0.2,0-0.5-0.2-0.8-0.6h-1.3c-1.6-0.4-3.2-1.8-3.2-4.8
		c0-16.9,32.2-31.4,60.4-31.4c21.7,0,41,8.6,41,31.6c0,17.2-15.2,35.3-43.1,35.3c-3.4,0-6.9,0-10.4-0.2c-0.4,10.4-0.5,23-0.5,38.3
		C216.9,491.6,217,492.8,216.2,492.8z"/>
	<path fill="#BE4727" d="M279,441.1c2,0,4.1-0.1,7.3-0.8c1.4,0,1.4,1,1.4,1c-3.1,17.4-4.8,24.3-4.8,36.3c0,4.1,1.1,5.5,2.6,5.5
		c2.6,0,6.5-4.3,7.8-7.4c0.2-0.4,0.7-0.7,1.1-0.7c0.4,0,0.6,0.2,0.6,0.7v0.2c-1.3,6.8-6.3,13.1-12.1,13.1c-6.7,0-8.7-8.7-8.7-18.8
		c0-10.4,2.2-22.2,3.4-27.4C277.5,442.6,278,441.1,279,441.1z M293.8,414.2c0,4.6-3.5,10.3-7.7,10.3c-3.8,0-5.5-2.9-5.5-6.1
		c0-4.4,3.1-9.7,7.9-9.7C292.4,408.7,293.8,411.3,293.8,414.2z"/>
	<path fill="#BE4727" d="M312.3,441.1c5.5,0,11.3-1.2,15.2-1.2c1.9,0,2.9,0.2,3.2,0.7c1.2,1.2,1.7,2.3,1.7,3.2c0,2-2.2,3.5-3.8,5
		c-7.4-0.1-27.4,22.4-30.7,30.1c10.2-1.8,20.2-2.9,25.2-2.9c3.4,0,5.6,3.6,6.5,6.7c0.1,0.6,2.4,0.8,2.4,2.4c0-0.1-0.4-0.1-0.8-0.1
		c-4.7,0-28.1,3.1-30.8,3.6c-0.2,0-0.6,0.1-0.8,0.1c-4,0-6.5-4.8-6.5-8.1c0-4.7,21.4-28.9,28.1-31.9c-8,2.3-13.9,3.4-18.1,3.4
		c-5.9,0-8.3-2-8.3-5.5c0-2.6,1.4-6.2,3.8-10.3C302.2,440.1,307.1,441.1,312.3,441.1z"/>
	<path fill="#BE4727" d="M364.7,507.1v-0.8c0-15-8.4-29.9-25-29.9c-4,0-6.5-4.8-6.5-8.1c0-4.7,16.2-16.4,22.9-19.4
		c-8,2.3-13.9,3.4-18.1,3.4c-5.9,0-8.3-2-8.3-5.5c0-2.6,1.4-6.2,3.8-10.3c3.6,3.8,8.5,4.8,13.7,4.8c5.5,0,11.3-1.2,15.2-1.2
		c1.9,0,2.9,0.2,3.2,0.7c1.3,1.3,1.8,2.6,1.8,3.8c0,2.4-1.9,4.6-3.6,6.1h-0.1c-7.4,0-20,7.9-23.2,15.6c1-0.1,1.9-0.2,2.8-0.2h0.6
		c17.8,1.6,25.5,16.8,25.5,33.2c0,2.6-0.2,5.5-0.6,8.1c20,1.1,38.6,4.3,62.4,4.3c5.4,0,10.1-0.5,14.5-2.3c0.7-0.2,1.3-0.4,1.6-0.4
		c0.2,0,0.4,0.1,0.4,0.2c0,1.3-2.6,1.7-3.1,3.2c-2.3,8.1-18.3,10.5-25.3,10.5c-22.5,0-35.1-5.3-52.2-7.8
		c-4.4,14.6-14.5,26.7-28.4,26.7c-10.2,0-15.1-5.3-15.1-11.7c0-10.1,12-23.1,34.4-23.1C360.2,507,362.5,507,364.7,507.1z
		 M330.7,528.3c0,4.3,2.9,7.8,9.2,7.8c13.4,0,21.3-9.7,23.8-21.4c-4.6-0.5-9.3-0.8-14.9-0.8C337.3,513.8,330.7,521.8,330.7,528.3z"
		/>
	<path fill="#BE4727" d="M410.5,455.9c-1.7,12.6-7.4,33.3-23.8,33.3c-7.4,0-14.4-5.7-17.7-20c-0.5,0-1,0-1.4-0.1
		c-0.7-0.1-0.2-1.3-1.6-2.8c-0.1-0.1-0.2-0.2-0.2-0.4c0-0.5,0.8-1.1,1.4-1.1l1.8,0.4c0.7-14.5,8-29.6,19.2-29.6
		c5.3,0,8.3,4.7,8.3,10.8c0,8.1-5.4,18.8-18,23.6c1,11.5,5.2,15.7,10.2,15.7c12,0,16.8-16.9,18.6-31.3c-3.2-2.4-4.8-7.2-4.8-11.6
		c0-4.9,1.9-9.3,5.6-9.3c3.6,0,4.4,2.5,4.4,5.5c0,2.5-0.6,5.5-0.6,7.8c0,2,0.2,2.9,1.1,2.9c0.6,0,1.4-0.5,2.6-1.2
		c4.2-2.8,10.5-9.5,11.5-9.5c1.6,0,4,3.1,4,4.8c0,0.8-0.4,1.6-0.4,1.6s-2.2,5.6-3,7.7c-2.8,6.6-3.8,13.2-3.8,18.6
		c0,9.8,2.6,16.1,5.7,16.1c2,0,4.3-2.8,6.2-8.9c0.2-0.8,0.1-1.3,1.7-2.4c0.4-0.2,0.6-0.4,0.7-0.4c0.2,0,0.4,0.2,0.4,0.5
		c0,0.2-0.1,0.6-0.1,0.6c-0.5,9.9-6.7,16.2-12.5,16.2c-5.2,0-9.9-4.9-9.9-16.6c0-8.6,1.9-18.1,3-22c-1.9,1-4.6,1.4-7.1,1.4
		C411.4,456,411,456,410.5,455.9z M378.3,465c8.6-3.1,12.2-11.7,12.2-17.4c0-2.9-1-5-2.8-5C382.3,442.6,378.5,454.4,378.3,465z"/>
	<path fill="#BE4727" d="M440.6,441.1c2,0,4.1-0.1,7.3-0.8c1.4,0,1.4,1,1.4,1c-3.1,17.4-4.8,24.3-4.8,36.3c0,4.1,1.1,5.5,2.6,5.5
		c2.6,0,6.5-4.3,7.8-7.4c0.2-0.4,0.7-0.7,1.1-0.7c0.4,0,0.6,0.2,0.6,0.7v0.2c-1.3,6.8-6.3,13.1-12.1,13.1c-6.7,0-8.7-8.7-8.7-18.8
		c0-10.4,2.2-22.2,3.4-27.4C439.1,442.6,439.6,441.1,440.6,441.1z M455.4,414.2c0,4.6-3.5,10.3-7.7,10.3c-3.8,0-5.5-2.9-5.5-6.1
		c0-4.4,3.1-9.7,7.9-9.7C454,408.7,455.4,411.3,455.4,414.2z"/>
	<path fill="#BE4727" d="M485.7,446c0.8-0.2,1.8-0.4,2.5-0.4c1.1,0,1.8,0.2,1.8,1.2c0,15.5,2.6,33.1,13.2,33.1
		c4.3,0,9.8-2.9,17.1-10.2c1.1-1.1,3.4-3.4,4.2-3.4c0.2,0,0.4,0.1,0.4,0.5c0,0.7-0.6,2.2-1.9,4.9l1,2.3
		c-4.2,12.1-11.5,18.1-18.8,18.1c-9.5,0-18.7-9.9-21.1-29.3c-2.9,12-8.5,26.1-15.5,26.1c-8.3,0-11.9-8.7-11.9-19
		c0-15,7.4-33.3,18.8-33.3C481.8,436.5,484.9,440.5,485.7,446z M481.8,449.7c-2-2.6-4-3.8-5.7-3.8c-7.4,0-12.3,19.3-12.3,28.7
		c0,4.9,1.2,8.4,3.6,8.4C477.1,483,480.7,459.2,481.8,449.7z"/>
</g>
<g>
	<path fill="#FFFFFF" d="M36.2,113.2c-4.3,0-7-1.1-8.3-2.6c-0.2,0.5-0.4,1-0.5,1.3c-0.2,0.9-0.1,2.1-0.9,2.1c-1.9,0-3.8-3.8-3.8-5.4
		c0-5.4,0.5-14.9,1.3-23.8c-9.4-0.7-14.1-5.4-14.1-10.7c0-10.6,12.8-16.6,26.4-16.6c15.3,0,31.6,7.7,31.6,25.4
		C67.9,97.6,56.7,113.2,36.2,113.2z M27.1,67.3c0.9-0.2,1.7-0.4,2.4-0.4c0.1,0,0.1,0.1,0.1,0.3c-0.4,4.4-0.7,9.1-0.9,13.8
		c0.7,0.1,1.4,0.1,2.1,0.1c3.2,0,6.4-0.7,9.5-2.4c0.2,0.2-3.3,5.6-11.8,6.3c-0.2,6.8-0.3,13.4-0.3,19.1c0.8-1,1.8-1.8,3.2-2.6
		c0,0,0.8,0.1,0.8,0.4c-0.4,0.5-1.7,1.8-1.7,3.2c0,1.2,1.3,1.9,4.3,1.9c17.4,0,27-13.4,27-25.8c0-13.9-15.2-20.3-28.5-20.3
		C23,60.9,14,64.7,14,71.8c0,3.7,3.6,7.3,10.5,8.7c0.5-4.8,1.1-9.1,1.7-12.2C26.4,67.6,26.6,67.4,27.1,67.3z"/>
	<path fill="#FFFFFF" d="M71.5,85.7c1,0,2.1-0.1,3.7-0.4c0.7,0,0.7,0.5,0.7,0.5c-1.6,8.8-2.4,12.4-2.4,18.5c0,2.1,0.5,2.8,1.3,2.8
		c1.3,0,3.3-2.2,4-3.8c0.1-0.2,0.4-0.4,0.5-0.4c0.2,0,0.3,0.1,0.3,0.4v0.1c-0.7,3.5-3.2,6.6-6.2,6.6c-3.4,0-4.5-4.5-4.5-9.6
		c0-5.3,1.1-11.3,1.7-14C70.8,86.5,71,85.7,71.5,85.7z M79.1,72c0,2.3-1.8,5.2-3.9,5.2c-2,0-2.8-1.5-2.8-3.1c0-2.3,1.6-4.9,4-4.9
		C78.3,69.2,79.1,70.5,79.1,72z"/>
	<path fill="#FFFFFF" d="M109.4,91.2c0,0,0.2-0.2,0.5-0.2c0.2,0,0.3,0.1,0.3,0.6c0,0.2-0.1,0.5-0.1,1c0.1,0.6,0.5,0.7,0.5,1.3v0.1
		c0,11.8-8.6,17.3-16.8,17.3c-7.4,0-14.5-4.5-14.5-12.7c0-7.4,3.8-15.5,9.8-15.5c2.7,0,4.3,2,4.3,4.8c0,3.8-2.9,9-9.5,12.7
		c0.4,5.1,2.8,7.3,6.2,7.3C96.2,107.7,105.5,100.1,109.4,91.2z M88.8,86.5c-2.7,0-4.8,6.2-5,11.6c4-3,6.2-7.6,6.2-10
		C90,87.1,89.6,86.5,88.8,86.5z"/>
</g>
<g>
	<path fill="#FFFFFF" d="M146.4,60.6c3.5-18.8,28.2-30.1,48.3-30.1c14.3,0,26.4,5.7,26.4,19.1c0,12.3-15.5,25.6-46,25.6
		c-6.7,0-12.7-0.5-18.3-1.3c9.9,21.2,47.6,46,47.6,73.6c0,20.1-17.5,27.4-31.1,27.4c-48.4,0-77.9-51.1-77.6-51.1
		c0.2,0,0.3-1.8,1.4-1.8c1,0,2.5,1.1,5.6,5.3c0,0,1.6,0.2,2.7,0.2l2.7,2.5c17,16.1,42.7,23.9,62,23.9c11,0,20.2-6.1,20.2-17.2
		c0-18.6-37.4-39.2-43.6-64.5C118.2,65.6,104,48.7,104,33.8c0-13.7,12.4-25.5,37.1-25.5c5.1,0,13.1,1.1,18.3,3.7l-0.2,0.8
		c0,0-6.2-1.8-14.2-1.8c-22.3,0-33,9.7-33,20.7C112.2,43.2,123.8,56.2,146.4,60.6z M190.5,36.1c-13.9,0-33.9,9.9-36,25.8
		c3.2,0.3,6.5,0.5,10,0.5c25,0,39.3-9.7,39.3-16.9C203.9,38.9,198.2,36.1,190.5,36.1z"/>
	<path fill="#FFFFFF" d="M249.6,108.4c2.9,0.8,6.9,2.1,6.9,4c0,4.6-2.2,19.1-2.2,30.4c0,8.1,1.1,14.5,5.1,14.5c3.5,0,7.8-3.2,9.4-7
		c1.8-0.5,2.1-2.5,2.5-2.5c0.6,0,0.6,1,0.6,1.4c0,8.4-7.5,16.1-14.8,16.1c-6.2,0-12.3-5.4-13.9-19.8c-4.3,11.2-10.4,19.8-16.6,19.8
		c-11,0-15.8-11.6-15.8-25.3c0-19.9,9.9-44.3,25-44.3C244.4,95.7,248.5,101.1,249.6,108.4z M244.2,113.2c-2.7-3.5-5.3-5.1-7.6-5.1
		c-9.9,0-16.4,25.6-16.4,38.2c0,6.5,1.6,11.2,4.8,11.2C238,157.5,242.8,125.8,244.2,113.2z"/>
	<path fill="#FFFFFF" d="M296.5,93.9c6.4,0,11.2,4.9,11.9,15.8c0.2,0.8,0.3,1.8,0.3,2.5c0,5.1-4.1,8.9-9.6,8.9
		c-3.3,0-4.6-1.3-4.6-2.1c0-0.3,0.2-0.5,0.5-0.5c1.3-0.2,4.1-6.2,4.1-9.9c0-1.3-0.3-2.2-1.1-2.5c-8.6,0.6-17.8,19.6-17.8,34.6
		c0,12.1,6.7,18.5,12.9,18.5c5.7,0,11.2-5.3,11.2-15.8c0-3.3-0.6-7-1.9-11c0-0.2,0-1,1.9-1c4.6,0,8.1,7,8.1,14.7
		c0,13.7-8.8,20.6-18.5,20.6c-11.6,0-24.5-9.9-24.5-29.3C269.4,117.3,281.2,93.9,296.5,93.9z"/>
	<path fill="#FFFFFF" d="M329.8,129.8c0.3,0,0.5-0.2,0.6-0.5c2.1-5.6,14-29,19.4-29c1.6,0,2.9,1.4,2.9,1.4c3.2,0.2,6.2,0.8,6.2,4.1
		c-1.8,12.6-2.7,23.7-2.7,34.6c0,8,0.8,17.2,5.3,17.2c5.3,0,9.9-7.6,11.2-11.9c0,0,0.2-0.6,0.8-0.6c1.3,0,1.6,1.6,1.6,2.4
		c0,5.9-4.3,12.6-8.8,15.8c-2.9,2.1-5.6,2.7-7.8,2.7c-14,0-14.8-22.1-14.8-31.5c0-7.5,0.5-14.7,0.8-19.1c0-0.6-0.2-2.7-0.6-2.7
		c-1,0-8.4,14.3-9.9,17.8c-3.5,8-5.4,18.5-5.4,26.6c0,5.9,0.2,10.7,0.2,10.7c0,1.6-0.3,2.7-1.1,2.7c-0.3,0-0.6-0.2-1.1-0.5
		c-2.7-2.1-8.4-4.9-9.9-6.4c0.3-5.7,2.4-27.6,4.1-51.1h-0.6c-0.6,0-1.1-0.2-1.3-0.3c-1.4-0.6-0.6-1.6-2.1-2.2
		c-1.1,0-1.6-0.3-1.6-0.5c-0.2,0,3.5-0.8,5.9-1.6l0.5-5.7c2.7-39.3,15.1-83,24.2-83c7.8,0,11.3,8.3,11.3,19.9
		c0,20.9-10.8,52.4-26.3,67.1c-0.8,9.6-1.4,18.6-1.4,23.1C329.3,129.6,329.6,129.8,329.8,129.8z M347.1,39.1
		c-5.4,0-13.2,30.7-15.9,60.4c11.8-14.5,18-41.4,18-53.8C349.2,41.7,348.4,39.1,347.1,39.1z"/>
	<path fill="#FFFFFF" d="M450.7,116.1c0,0,0.6-0.6,1.3-0.6c0.5,0,0.8,0.3,0.8,1.6c0,0.6-0.2,1.4-0.3,2.5c0.2,1.6,1.3,1.9,1.3,3.3
		v0.2c0,30.9-22.5,45.1-44,45.1c-19.4,0-37.9-11.6-37.9-33.1c0-19.3,10-40.5,25.5-40.5c7.2,0,11.2,5.3,11.2,12.6
		c0,10-7.5,23.6-24.7,33.1c1,13.4,7.3,19,16.1,19C416.1,159.2,440.3,139.5,450.7,116.1z M396.9,103.8c-7,0-12.4,16.2-13.1,30.4
		c10.4-7.8,16.1-19.8,16.1-26.1C399.9,105.4,398.9,103.8,396.9,103.8z"/>
</g>
<g>
	<path fill="#FFFFFF" d="M179.7,200.2c0.9,0,4,2,4,3c0,0.2,0,0.3-0.1,0.4c-2.2,4.8-3,12.5-3,17.7c0,5.2,2.6,9.8,7.2,9.8
		c4.4,0,8.5-2.8,11.4-4.9c1-0.8,3-2.1,3.8-2.1c0.2,0,0.3,0.1,0.3,0.3c0,0.4-0.5,1.4-1.9,3.3l0.3,1.7c-3.9,7.2-9.1,10.6-13.8,10.6
		c-12.3,0-14-12.1-14-25c-4.1,4.5-6.2,16.3-8.1,22c-0.1,0.6-0.6,0.9-1.3,0.9c-1.8,0-4.1-2.1-4.1-2.3c0-0.2,0.6-5.8,1.1-12.8
		c0.3-3.7,0.9-10.3,0.9-14.4c0-0.8-0.1-1.2-0.2-1.2c-1.6,0-4.7,29.8-15.4,29.8c-4.8,0-6.3-6.2-6.3-13.5c0-8.6,1.9-21,3.4-21
		c1.5,0,2.9-0.1,5.3-0.6c1,0,1,0.7,1,0.7c-2.2,12.5-3.5,17.5-3.5,26.1c0,2.8,0.7,4,1.6,4c6.3,0,9.2-16.7,11.7-24.3
		c1.4-4.1,2.6-7.2,3.7-7.2c1.6,0,2.7-0.9,3.4-0.9c0.7,0,0.8,3.9,0.8,7.4c0,4.2,0,8.5-0.1,13.6c2.8-6,6-16.1,11-20.9
		C179.2,200.3,179.4,200.2,179.7,200.2z M154.8,183.3c0,3.3-2.5,7.4-5.5,7.4c-2.8,0-4-2.1-4-4.4c0-3.2,2.2-7,5.7-7
		C153.7,179.4,154.8,181.2,154.8,183.3z"/>
</g>
<g>
	<path fill="#FFFFFF" d="M248,180.4c0.1,0,0.2,0,0.3,0.1c1.6,1.1,5.1,1,5.1,2.6c0,2.3-4.9,21.8-4.9,37.1c0,7.9,1.3,14.8,5.4,17.2
		c0.2,0.1,0.3,0.3,0.3,0.5c0,0.4-0.3,0.7-0.6,0.7h-0.1c-5.1-1-7.8-5.8-9-12.3c-1.9,6.8-5.4,12.8-9.2,12.8c-5.5,0-7.8-5-7.8-10.9
		c0-8.8,5-19.7,12-19.7c1.9,0,3.3,0.6,4.3,1.6c0.5-10.9,2.5-22.4,3.2-29.1C247.3,180.7,247.6,180.4,248,180.4z M241.2,213.3
		c-3.2,0-8.9,6.3-8.9,17c0,3.7,1,5.4,2.4,5.4c3.2,0,8.7-8.6,8.7-19.2C243.5,214.3,242.6,213.3,241.2,213.3z"/>
	<path fill="#FFFFFF" d="M284.9,218.1c-1.2,0.6-2.8,0.9-4.3,0.9c-0.3,0-0.6,0-0.9-0.1c-1,7.7-4.6,20.4-14.6,20.4
		c-4.6,0-8.8-3.5-10.9-12.3c-0.3,0-0.6,0-0.9-0.1c-0.4-0.1-0.1-0.8-1-1.7c-0.1-0.1-0.1-0.1-0.1-0.2c0-0.3,0.5-0.7,0.9-0.7l1.1,0.2
		c0.4-8.9,4.9-18.1,11.7-18.1c3.2,0,5.1,2.9,5.1,6.6c0,5-3.3,11.5-11,14.5c0.6,7,3.2,9.6,6.2,9.6c7.3,0,10.3-10.3,11.4-19.2
		c-2-1.5-2.9-4.4-2.9-7.1c0-3,1.2-5.7,3.4-5.7c2.2,0,2.7,1.5,2.7,3.4c0,1.5-0.4,3.4-0.4,4.8c0,1.2,0.1,1.8,0.7,1.8
		c0.4,0,0.9-0.3,1.6-0.7c2.6-1.7,6.5-5.8,7-5.8c1,0,2.4,1.9,2.4,2.9c0,1.9-1.3,4-2.9,5.4c-0.3,2-0.4,4-0.4,5.8
		c0,6.2,1.6,11.4,6.7,11.4c3.7,0,7.2-2.4,9.7-4.2c0.9-0.7,2.6-1.8,3.2-1.8c0.1,0,0.3,0.1,0.3,0.2c0,0.4-0.4,1.2-1.6,2.9l0.3,1.5
		c-3.3,6.1-7.8,9-11.7,9c-6.5,0-11-6.5-11-17.5c0-1.9,0.1-3.9,0.4-6H284.9z M260,224.4c5.3-1.9,7.5-7.2,7.5-10.6
		c0-1.8-0.6-3.1-1.7-3.1C262.5,210.7,260.1,217.9,260,224.4z"/>
</g>
<g>
	<path fill="#FFFFFF" d="M64.8,358.3c-7.6,3.7-7.4,5-8.4,5c-1.7,0-2-1.3-2-2.2c1.3-19.7,1.8-40.2,2-57.3l-5.7,1.3
		c-0.9-0.8-2.2-4.8-2.2-7.1c0-0.9,0.3-1.6,0.8-1.6c2.9,0,5,0,7.3-0.1v-13.4c0-10.7,0-18,0.1-19.7c0-0.8,0.3-1.4,1-1.6
		c1.3-0.1,10.8-0.7,10.8-0.7c0.1,0,0.9,0.1,0.9,0.5c0,3.1-2,9.8-3.3,34.2c38.6-5.9,54.1-17.1,54.1-26.5c0-8.9-13.7-16.3-34.6-16.3
		c-29.9,0-75.5,9.7-77.2,37.1C6.2,286.4,5,283.2,5,280c0-22.5,56.4-36.9,87.6-36.9c27.8,0,43.6,9.3,43.6,20.9
		c0,9.5-10.8,20.6-34.6,29.2c33.2,2.9,48.4,18.8,48.4,34.7c0,17.8-18.9,35.6-52.7,35.6c-13.7,0-27.3-5.5-32.5-15.1V358.3z
		 M70.3,332.8c0,1.2-0.3,2.4-0.3,2.4c8.1,11.9,22.5,12.3,32.5,12.3c20.2,0,35.8-13.8,35.8-26.9c0-14.4-18.5-21.9-42.8-21.9
		c-9.3,0-19.5,1.2-29.6,3.4c-0.4,8.4-0.8,18.9-0.9,31.2c1.3-1.6,2.9-3.4,3.7-3.4C70,329.8,70.3,331.9,70.3,332.8z"/>
	<path fill="#FFFFFF" d="M185.8,312.3c2.4,0.7,5.6,1.7,5.6,3.3c0,3.8-1.8,15.7-1.8,24.9c0,6.7,0.9,11.9,4.2,11.9
		c2.9,0,6.4-2.6,7.7-5.7c1.4-0.4,1.7-2.1,2.1-2.1c0.5,0,0.5,0.8,0.5,1.2c0,6.9-6.1,13.2-12.1,13.2c-5.1,0-10.1-4.4-11.4-16.2
		c-3.5,9.1-8.5,16.2-13.6,16.2c-9,0-12.9-9.5-12.9-20.8c0-16.3,8.1-36.3,20.5-36.3C181.5,301.9,184.9,306.3,185.8,312.3z
		 M181.4,316.2c-2.2-2.9-4.3-4.2-6.3-4.2c-8.1,0-13.4,21-13.4,31.3c0,5.4,1.3,9.1,3.9,9.1C176.3,352.5,180.2,326.5,181.4,316.2z"/>
	<path fill="#FFFFFF" d="M210,329.8c0.3,0,0.4-0.1,0.5-0.4c1.7-4.6,11.5-23.8,15.9-23.8c1.3,0,2.4,1.2,2.4,1.2
		c2.6,0.1,5.1,0.7,5.1,3.4c-1.4,10.3-2.2,19.5-2.2,28.3c0,6.5,0.7,14.1,4.3,14.1c4.3,0,8.1-6.3,9.1-9.8c0,0,0.1-0.5,0.7-0.5
		c1,0,1.3,1.3,1.3,2c0,4.8-3.5,10.3-7.2,12.9c-2.4,1.7-4.6,2.2-6.4,2.2c-11.5,0-12.1-18.1-12.1-25.9c0-6.1,0.4-12,0.7-15.7
		c0-0.5-0.1-2.2-0.5-2.2c-0.8,0-6.9,11.8-8.1,14.6c-2.9,6.5-4.4,15.1-4.4,21.8c0,4.8,0.1,8.7,0.1,8.7c0,1.3-0.3,2.2-0.9,2.2
		c-0.3,0-0.5-0.1-0.9-0.4c-2.2-1.7-6.9-4-8.1-5.2c0.3-4.7,2-22.6,3.4-41.9H202c-0.5,0-0.9-0.1-1-0.3c-1.2-0.5-0.5-1.3-1.7-1.8
		c-0.9,0-1.3-0.3-1.3-0.4c-0.1,0,2.9-0.7,4.8-1.3l0.4-4.7c2.2-32.2,12.4-68,19.8-68c6.4,0,9.3,6.8,9.3,16.3c0,17.1-8.9,43-21.5,55
		c-0.7,7.8-1.2,15.3-1.2,18.9C209.6,329.7,209.9,329.8,210,329.8z M224.2,255.5c-4.4,0-10.8,25.2-13.1,49.5
		c9.7-11.9,14.8-33.9,14.8-44.1C225.9,257.6,225.3,255.5,224.2,255.5z"/>
	<path fill="#FFFFFF" d="M242.6,316c-0.7,0-1.3-0.4-1.3-1.3c0-0.1,0-0.3,0.1-0.5c4.3-5.4,9.5-9.4,13.8-9.4c5.9,0,7.2,6.3,7.2,13.4
		c0,6-0.9,12.7-1,17c4.2-9.1,9-24.4,16.6-31.6c0.4-0.3,0.7-0.4,1-0.4c1.4,0,6,3,6,4.6c0,0.3,0,0.4-0.1,0.7
		c-3.3,7.3-4.6,18.9-4.6,26.8c0,7.6,2.3,13.1,6.3,13.1c1.7,0,3.7-1,5.9-3.4c0,0,0.3-0.1,0.5-0.1s0.4,0.1,0.4,0.4
		c0,5.4-5.5,10.6-10.7,10.6c-11.4,0-12.3-23.5-12.3-30c-6.3,6.8-9.4,24.7-12.3,33.3c0,0.9-0.9,1.3-2,1.3c-1.4,0-3.4-0.8-3.7-1.6
		c-0.5-1.3-2.5-0.5-2.5-2c0-0.3,0-0.8,0.1-1.2c0.5-2.6,0.9-9.8,1.6-18.1c0.4-5.6,1.3-15.5,1.3-21.8c0-3.9-0.9-5.4-2.4-5.4
		c-2,0-4.7,2.6-7.1,5.4C243.4,315.8,243,316,242.6,316z"/>
	<path fill="#FFFFFF" d="M301.8,329.8c0.3,0,0.4-0.1,0.5-0.4c1.7-4.6,11.5-23.8,15.9-23.8c1.3,0,2.4,1.2,2.4,1.2
		c2.6,0.1,5.1,0.7,5.1,3.4c-1.4,10.3-2.2,19.5-2.2,28.3c0,6.5,0.7,14.1,4.3,14.1c4.3,0,8.1-6.3,9.1-9.8c0,0,0.1-0.5,0.7-0.5
		c1,0,1.3,1.3,1.3,2c0,4.8-3.5,10.3-7.2,12.9c-2.4,1.7-4.6,2.2-6.4,2.2c-11.5,0-12.1-18.1-12.1-25.9c0-6.1,0.4-12,0.7-15.7
		c0-0.5-0.1-2.2-0.5-2.2c-0.8,0-6.9,11.8-8.1,14.6c-2.9,6.5-4.4,15.1-4.4,21.8c0,4.8,0.1,8.7,0.1,8.7c0,1.3-0.3,2.2-0.9,2.2
		c-0.3,0-0.5-0.1-0.9-0.4c-2.2-1.7-6.9-4-8.1-5.2c0.3-4.7,2-22.6,3.4-41.9h-0.5c-0.5,0-0.9-0.1-1-0.3c-1.2-0.5-0.5-1.3-1.7-1.8
		c-0.9,0-1.3-0.3-1.3-0.4c-0.1,0,2.9-0.7,4.8-1.3l0.4-4.7c2.2-32.2,12.4-68,19.8-68c6.4,0,9.3,6.8,9.3,16.3c0,17.1-8.9,43-21.5,55
		c-0.7,7.8-1.2,15.3-1.2,18.9C301.4,329.7,301.6,329.8,301.8,329.8z M316,255.5c-4.4,0-10.8,25.2-13.1,49.5
		c9.7-11.9,14.8-33.9,14.8-44.1C317.7,257.6,317.1,255.5,316,255.5z"/>
	<path fill="#FFFFFF" d="M378.2,316.5c1.4,0,2.9,0,4.3-0.1c0.4-0.7,0.7-1.7,0.7-2.2c0,0,1.2-2.9,4.8-62.7c0-0.7,0-1.3,0.3-1.3
		c0.7,0,1,0,1.4,0.4c1,1.6,4.8,7.1,6.1,8.5c0.8,0.9,1.2,1.8,1.2,3c0,0.4,0,0.9-0.1,1.4c-2.6,18-4.8,35.6-6.8,52
		c4.3-0.5,8.5-1.3,12.5-1.6c3.5,0,7.2,3.9,9.7,7.6c0.7,0.9,2.9,0.5,2.9,1.7c0,0.4-0.1,0.9-0.8,1.2c-2.1,1-12.4,1.8-18.9,1.8
		c-1.3,0-2.4-0.1-3.3-0.1c-1,0-1.2,1.2-1.2,1.2c7.2,11.6,11,33.9,11,53.9c0,21.9-4.6,41.3-14,41.3c-9.9,0-12.9-9.9-12.9-24.2
		c0-20.6,6.3-50.5,6.8-71.8c0,0-0.1-2.5-2.1-2.7c-3.5-0.5-6-1-7.7-1.6c0.1,1.3,0.1,2.6,0.1,3.9c0,14.8-7.8,31.3-19.2,31.3
		c-11.6,0-16.5-10.6-16.5-22.6c0-15.9,8.5-34.6,20.9-34.6c10.1,0,10.8,7.1,10.8,9.5v0.9c-2.1-0.9-4-1.3-5.9-1.3
		c-11.4,0-16.8,16.1-16.8,28.9c0,8.5,2.3,15.4,7.1,15.4c6.1,0,10.4-12.7,10.4-23.4c0-6.3-1.4-11.7-4.8-13.7c0,0,4.3-2.2,7.3-3.3
		C372,316.2,375,316.5,378.2,316.5z M387.6,337.8c-3.3,30.3-5.1,53.5-5.1,61.6c0,11.1,0.9,15.8,2.1,15.8c2.6,0,7.4-26.2,7.4-49.4
		C392,354.5,390.8,343.9,387.6,337.8z"/>
	<path fill="#FFFFFF" d="M433,294.9c0.4,0,1,0.1,1,0.7c0,0.1-2,8.6-2,18.7c0,9.4,7.7,23.8,7.7,34.5c0,7.8-5.6,11.9-11,11.9
		c-4.8,0-9.5-3.4-9.5-10.6c0-3.8,1.2-7.1,2-7.1c0.1,0,0.3,0,0.4,0.3c2,4.6,2,9.5,5.1,9.5c2.9,0,3.8-2.7,3.8-6.7c0-8.7-5-23.5-5-26.6
		c-3.1,6-9,29.2-17.2,39.7c0,0-2.9-0.5-2.9-1.6c0-0.1,0-0.3,0.1-0.4c8.9-12.8,18.7-47.5,19.5-56.9C425.3,297.4,431,294.9,433,294.9z
		"/>
</g>
<g>
	<path fill="#FFFFFF" d="M214.2,490.8c-1.6,0-1.8-1.2-1.8-2c1-14.3,1.4-29,1.7-42.3c-5.4-1.3-10.1-4-13.1-8.7c0,0-2.9-4-3.5-4.4
		c-0.5-0.2-0.7-0.7-0.7-1.2c0-0.2,0.4-0.6,0.4-1v-0.2c-0.5-1-0.7-1.4-0.7-1.8c0-0.4,0.2-0.5,0.5-0.5c0.6,0,1.4,0.5,2.2,0.7
		c5,1.7,10.1,2.9,15.1,3.7c0.1-5.9,0.1-11.4,0.1-16.1c0-9.8,0-16.5,0.1-18.1c0-0.7,0.2-1.3,1-1.4c1.2-0.1,9.9-0.6,9.9-0.6
		c0.1,0,0.8,0.1,0.8,0.5c0,3-2,9.8-3.4,36.5c1.7,0.1,3.2,0.1,4.8,0.1c20.5,0,36.8-8.1,36.8-25.5c0-14.4-16.5-20.6-35-20.6
		c-23.2,0-49.4,9.9-49.4,26.6c0,1,0.4,1.7,0.4,2.6c0,0.5-0.2,0.8-0.5,0.8c-0.2,0-0.5-0.2-0.8-0.6h-1.3c-1.6-0.4-3.2-1.8-3.2-4.8
		c0-16.9,32.2-31.4,60.4-31.4c21.7,0,41,8.6,41,31.6c0,17.2-15.2,35.3-43.1,35.3c-3.4,0-6.9,0-10.4-0.2c-0.4,10.4-0.5,23-0.5,38.3
		C214.9,489.6,215,490.8,214.2,490.8z"/>
	<path fill="#FFFFFF" d="M277,439.1c2,0,4.1-0.1,7.3-0.8c1.4,0,1.4,1,1.4,1c-3.1,17.4-4.8,24.3-4.8,36.3c0,4.1,1.1,5.5,2.6,5.5
		c2.6,0,6.5-4.3,7.8-7.4c0.2-0.4,0.7-0.7,1.1-0.7c0.4,0,0.6,0.2,0.6,0.7v0.2c-1.3,6.8-6.3,13.1-12.1,13.1c-6.7,0-8.7-8.7-8.7-18.8
		c0-10.4,2.2-22.2,3.4-27.4C275.5,440.6,276,439.1,277,439.1z M291.8,412.2c0,4.6-3.5,10.3-7.7,10.3c-3.8,0-5.5-2.9-5.5-6.1
		c0-4.4,3.1-9.7,7.9-9.7C290.4,406.7,291.8,409.3,291.8,412.2z"/>
	<path fill="#FFFFFF" d="M310.3,439.1c5.5,0,11.3-1.2,15.2-1.2c1.9,0,2.9,0.2,3.2,0.7c1.2,1.2,1.7,2.3,1.7,3.2c0,2-2.2,3.5-3.8,5
		c-7.4-0.1-27.4,22.4-30.7,30.1c10.2-1.8,20.2-2.9,25.2-2.9c3.4,0,5.6,3.6,6.5,6.7c0.1,0.6,2.4,0.8,2.4,2.4c0-0.1-0.4-0.1-0.8-0.1
		c-4.7,0-28.1,3.1-30.8,3.6c-0.2,0-0.6,0.1-0.8,0.1c-4,0-6.5-4.8-6.5-8.1c0-4.7,21.4-28.9,28.1-31.9c-8,2.3-13.9,3.4-18.1,3.4
		c-5.9,0-8.3-2-8.3-5.5c0-2.6,1.4-6.2,3.8-10.3C300.2,438.1,305.1,439.1,310.3,439.1z"/>
	<path fill="#FFFFFF" d="M362.7,505.1v-0.8c0-15-8.4-29.9-25-29.9c-4,0-6.5-4.8-6.5-8.1c0-4.7,16.2-16.4,22.9-19.4
		c-8,2.3-13.9,3.4-18.1,3.4c-5.9,0-8.3-2-8.3-5.5c0-2.6,1.4-6.2,3.8-10.3c3.6,3.8,8.5,4.8,13.7,4.8c5.5,0,11.3-1.2,15.2-1.2
		c1.9,0,2.9,0.2,3.2,0.7c1.3,1.3,1.8,2.6,1.8,3.8c0,2.4-1.9,4.6-3.6,6.1h-0.1c-7.4,0-20,7.9-23.2,15.6c1-0.1,1.9-0.2,2.8-0.2h0.6
		c17.8,1.6,25.5,16.8,25.5,33.2c0,2.6-0.2,5.5-0.6,8.1c20,1.1,38.6,4.3,62.4,4.3c5.4,0,10.1-0.5,14.5-2.3c0.7-0.2,1.3-0.4,1.6-0.4
		c0.2,0,0.4,0.1,0.4,0.2c0,1.3-2.6,1.7-3.1,3.2c-2.3,8.1-18.3,10.5-25.3,10.5c-22.5,0-35.1-5.3-52.2-7.8
		c-4.4,14.6-14.5,26.7-28.4,26.7c-10.2,0-15.1-5.3-15.1-11.7c0-10.1,12-23.1,34.4-23.1C358.2,505,360.5,505,362.7,505.1z
		 M328.7,526.3c0,4.3,2.9,7.8,9.2,7.8c13.4,0,21.3-9.7,23.8-21.4c-4.6-0.5-9.3-0.8-14.9-0.8C335.3,511.8,328.7,519.8,328.7,526.3z"
		/>
	<path fill="#FFFFFF" d="M408.5,453.9c-1.7,12.6-7.4,33.3-23.8,33.3c-7.4,0-14.4-5.7-17.7-20c-0.5,0-1,0-1.4-0.1
		c-0.7-0.1-0.2-1.3-1.6-2.8c-0.1-0.1-0.2-0.2-0.2-0.4c0-0.5,0.8-1.1,1.4-1.1l1.8,0.4c0.7-14.5,8-29.6,19.2-29.6
		c5.3,0,8.3,4.7,8.3,10.8c0,8.1-5.4,18.8-18,23.6c1,11.5,5.2,15.7,10.2,15.7c12,0,16.8-16.9,18.6-31.3c-3.2-2.4-4.8-7.2-4.8-11.6
		c0-4.9,1.9-9.3,5.6-9.3c3.6,0,4.4,2.5,4.4,5.5c0,2.5-0.6,5.5-0.6,7.8c0,2,0.2,2.9,1.1,2.9c0.6,0,1.4-0.5,2.6-1.2
		c4.2-2.8,10.5-9.5,11.5-9.5c1.6,0,4,3.1,4,4.8c0,0.8-0.4,1.6-0.4,1.6s-2.2,5.6-3,7.7c-2.8,6.6-3.8,13.2-3.8,18.6
		c0,9.8,2.6,16.1,5.7,16.1c2,0,4.3-2.8,6.2-8.9c0.2-0.8,0.1-1.3,1.7-2.4c0.4-0.2,0.6-0.4,0.7-0.4c0.2,0,0.4,0.2,0.4,0.5
		c0,0.2-0.1,0.6-0.1,0.6c-0.5,9.9-6.7,16.2-12.5,16.2c-5.2,0-9.9-4.9-9.9-16.6c0-8.6,1.9-18.1,3-22c-1.9,1-4.6,1.4-7.1,1.4
		C409.4,454,409,454,408.5,453.9z M376.3,463c8.6-3.1,12.2-11.7,12.2-17.4c0-2.9-1-5-2.8-5C380.3,440.6,376.5,452.4,376.3,463z"/>
	<path fill="#FFFFFF" d="M438.6,439.1c2,0,4.1-0.1,7.3-0.8c1.4,0,1.4,1,1.4,1c-3.1,17.4-4.8,24.3-4.8,36.3c0,4.1,1.1,5.5,2.6,5.5
		c2.6,0,6.5-4.3,7.8-7.4c0.2-0.4,0.7-0.7,1.1-0.7c0.4,0,0.6,0.2,0.6,0.7v0.2c-1.3,6.8-6.3,13.1-12.1,13.1c-6.7,0-8.7-8.7-8.7-18.8
		c0-10.4,2.2-22.2,3.4-27.4C437.1,440.6,437.6,439.1,438.6,439.1z M453.4,412.2c0,4.6-3.5,10.3-7.7,10.3c-3.8,0-5.5-2.9-5.5-6.1
		c0-4.4,3.1-9.7,7.9-9.7C452,406.7,453.4,409.3,453.4,412.2z"/>
	<path fill="#FFFFFF" d="M483.7,444c0.8-0.2,1.8-0.4,2.5-0.4c1.1,0,1.8,0.2,1.8,1.2c0,15.5,2.6,33.1,13.2,33.1
		c4.3,0,9.8-2.9,17.1-10.2c1.1-1.1,3.4-3.4,4.2-3.4c0.2,0,0.4,0.1,0.4,0.5c0,0.7-0.6,2.2-1.9,4.9l1,2.3
		c-4.2,12.1-11.5,18.1-18.8,18.1c-9.5,0-18.7-9.9-21.1-29.3c-2.9,12-8.5,26.1-15.5,26.1c-8.3,0-11.9-8.7-11.9-19
		c0-15,7.4-33.3,18.8-33.3C479.8,434.5,482.9,438.5,483.7,444z M479.8,447.7c-2-2.6-4-3.8-5.7-3.8c-7.4,0-12.3,19.3-12.3,28.7
		c0,4.9,1.2,8.4,3.6,8.4C475.1,481,478.7,457.2,479.8,447.7z"/>
</g>
<g>
	<path d="M34.2,111.2c-4.3,0-7-1.1-8.3-2.6c-0.2,0.5-0.4,1-0.5,1.3c-0.2,0.9-0.1,2.1-0.9,2.1c-1.9,0-3.8-3.8-3.8-5.4
		c0-5.4,0.5-14.9,1.3-23.8c-9.4-0.7-14.1-5.4-14.1-10.7c0-10.6,12.8-16.6,26.4-16.6c15.3,0,31.6,7.7,31.6,25.4
		C65.9,95.6,54.7,111.2,34.2,111.2z M25.1,65.3c0.9-0.2,1.7-0.4,2.4-0.4c0.1,0,0.1,0.1,0.1,0.3c-0.4,4.4-0.7,9.1-0.9,13.8
		c0.7,0.1,1.4,0.1,2.1,0.1c3.2,0,6.4-0.7,9.5-2.4c0.2,0.2-3.3,5.6-11.8,6.3c-0.2,6.8-0.3,13.4-0.3,19.1c0.8-1,1.8-1.8,3.2-2.6
		c0,0,0.8,0.1,0.8,0.4c-0.4,0.5-1.7,1.8-1.7,3.2c0,1.2,1.3,1.9,4.3,1.9c17.4,0,27-13.4,27-25.8c0-13.9-15.2-20.3-28.5-20.3
		C21,58.9,12,62.7,12,69.8c0,3.7,3.6,7.3,10.5,8.7c0.5-4.8,1.1-9.1,1.7-12.2C24.4,65.6,24.6,65.4,25.1,65.3z"/>
	<path d="M69.5,83.7c1,0,2.1-0.1,3.7-0.4c0.7,0,0.7,0.5,0.7,0.5c-1.6,8.8-2.4,12.4-2.4,18.5c0,2.1,0.5,2.8,1.3,2.8
		c1.3,0,3.3-2.2,4-3.8c0.1-0.2,0.4-0.4,0.5-0.4c0.2,0,0.3,0.1,0.3,0.4v0.1c-0.7,3.5-3.2,6.6-6.2,6.6c-3.4,0-4.5-4.5-4.5-9.6
		c0-5.3,1.1-11.3,1.7-14C68.8,84.5,69,83.7,69.5,83.7z M77.1,70c0,2.3-1.8,5.2-3.9,5.2c-2,0-2.8-1.5-2.8-3.1c0-2.3,1.6-4.9,4-4.9
		C76.3,67.2,77.1,68.5,77.1,70z"/>
	<path d="M107.4,89.2c0,0,0.2-0.2,0.5-0.2c0.2,0,0.3,0.1,0.3,0.6c0,0.2-0.1,0.5-0.1,1c0.1,0.6,0.5,0.7,0.5,1.3v0.1
		c0,11.8-8.6,17.3-16.8,17.3c-7.4,0-14.5-4.5-14.5-12.7c0-7.4,3.8-15.5,9.8-15.5c2.7,0,4.3,2,4.3,4.8c0,3.8-2.9,9-9.5,12.7
		c0.4,5.1,2.8,7.3,6.2,7.3C94.2,105.7,103.5,98.1,107.4,89.2z M86.8,84.5c-2.7,0-4.8,6.2-5,11.6c4-3,6.2-7.6,6.2-10
		C88,85.1,87.6,84.5,86.8,84.5z"/>
</g>
<g>
	<path d="M144.4,58.6c3.5-18.8,28.2-30.1,48.3-30.1c14.3,0,26.4,5.7,26.4,19.1c0,12.3-15.5,25.6-46,25.6c-6.7,0-12.7-0.5-18.3-1.3
		c9.9,21.2,47.6,46,47.6,73.6c0,20.1-17.5,27.4-31.1,27.4c-48.4,0-77.9-51.1-77.6-51.1c0.2,0,0.3-1.8,1.4-1.8c1,0,2.5,1.1,5.6,5.3
		c0,0,1.6,0.2,2.7,0.2l2.7,2.5c17,16.1,42.7,23.9,62,23.9c11,0,20.2-6.1,20.2-17.2c0-18.6-37.4-39.2-43.6-64.5
		C116.2,63.6,102,46.7,102,31.8c0-13.7,12.4-25.5,37.1-25.5c5.1,0,13.1,1.1,18.3,3.7l-0.2,0.8c0,0-6.2-1.8-14.2-1.8
		c-22.3,0-33,9.7-33,20.7C110.2,41.2,121.8,54.2,144.4,58.6z M188.5,34.1c-13.9,0-33.9,9.9-36,25.8c3.2,0.3,6.5,0.5,10,0.5
		c25,0,39.3-9.7,39.3-16.9C201.9,36.9,196.2,34.1,188.5,34.1z"/>
	<path d="M247.6,106.4c2.9,0.8,6.9,2.1,6.9,4c0,4.6-2.2,19.1-2.2,30.4c0,8.1,1.1,14.5,5.1,14.5c3.5,0,7.8-3.2,9.4-7
		c1.8-0.5,2.1-2.5,2.5-2.5c0.6,0,0.6,1,0.6,1.4c0,8.4-7.5,16.1-14.8,16.1c-6.2,0-12.3-5.4-13.9-19.8c-4.3,11.2-10.4,19.8-16.6,19.8
		c-11,0-15.8-11.6-15.8-25.3c0-19.9,9.9-44.3,25-44.3C242.4,93.7,246.5,99.1,247.6,106.4z M242.2,111.2c-2.7-3.5-5.3-5.1-7.6-5.1
		c-9.9,0-16.4,25.6-16.4,38.2c0,6.5,1.6,11.2,4.8,11.2C236,155.5,240.8,123.8,242.2,111.2z"/>
	<path d="M294.5,91.9c6.4,0,11.2,4.9,11.9,15.8c0.2,0.8,0.3,1.8,0.3,2.5c0,5.1-4.1,8.9-9.6,8.9c-3.3,0-4.6-1.3-4.6-2.1
		c0-0.3,0.2-0.5,0.5-0.5c1.3-0.2,4.1-6.2,4.1-9.9c0-1.3-0.3-2.2-1.1-2.5c-8.6,0.6-17.8,19.6-17.8,34.6c0,12.1,6.7,18.5,12.9,18.5
		c5.7,0,11.2-5.3,11.2-15.8c0-3.3-0.6-7-1.9-11c0-0.2,0-1,1.9-1c4.6,0,8.1,7,8.1,14.7c0,13.7-8.8,20.6-18.5,20.6
		c-11.6,0-24.5-9.9-24.5-29.3C267.4,115.3,279.2,91.9,294.5,91.9z"/>
	<path d="M327.8,127.8c0.3,0,0.5-0.2,0.6-0.5c2.1-5.6,14-29,19.4-29c1.6,0,2.9,1.4,2.9,1.4c3.2,0.2,6.2,0.8,6.2,4.1
		c-1.8,12.6-2.7,23.7-2.7,34.6c0,8,0.8,17.2,5.3,17.2c5.3,0,9.9-7.6,11.2-11.9c0,0,0.2-0.6,0.8-0.6c1.3,0,1.6,1.6,1.6,2.4
		c0,5.9-4.3,12.6-8.8,15.8c-2.9,2.1-5.6,2.7-7.8,2.7c-14,0-14.8-22.1-14.8-31.5c0-7.5,0.5-14.7,0.8-19.1c0-0.6-0.2-2.7-0.6-2.7
		c-1,0-8.4,14.3-9.9,17.8c-3.5,8-5.4,18.5-5.4,26.6c0,5.9,0.2,10.7,0.2,10.7c0,1.6-0.3,2.7-1.1,2.7c-0.3,0-0.6-0.2-1.1-0.5
		c-2.7-2.1-8.4-4.9-9.9-6.4c0.3-5.7,2.4-27.6,4.1-51.1h-0.6c-0.6,0-1.1-0.2-1.3-0.3c-1.4-0.6-0.6-1.6-2.1-2.2
		c-1.1,0-1.6-0.3-1.6-0.5c-0.2,0,3.5-0.8,5.9-1.6l0.5-5.7c2.7-39.3,15.1-83,24.2-83c7.8,0,11.3,8.3,11.3,19.9
		c0,20.9-10.8,52.4-26.3,67.1c-0.8,9.6-1.4,18.6-1.4,23.1C327.3,127.6,327.6,127.8,327.8,127.8z M345.1,37.1
		c-5.4,0-13.2,30.7-15.9,60.4c11.8-14.5,18-41.4,18-53.8C347.2,39.7,346.4,37.1,345.1,37.1z"/>
	<path d="M448.7,114.1c0,0,0.6-0.6,1.3-0.6c0.5,0,0.8,0.3,0.8,1.6c0,0.6-0.2,1.4-0.3,2.5c0.2,1.6,1.3,1.9,1.3,3.3v0.2
		c0,30.9-22.5,45.1-44,45.1c-19.4,0-37.9-11.6-37.9-33.1c0-19.3,10-40.5,25.5-40.5c7.2,0,11.2,5.3,11.2,12.6
		c0,10-7.5,23.6-24.7,33.1c1,13.4,7.3,19,16.1,19C414.1,157.2,438.3,137.5,448.7,114.1z M394.9,101.8c-7,0-12.4,16.2-13.1,30.4
		c10.4-7.8,16.1-19.8,16.1-26.1C397.9,103.4,396.9,101.8,394.9,101.8z"/>
</g>
<g>
	<path d="M177.7,198.2c0.9,0,4,2,4,3c0,0.2,0,0.3-0.1,0.4c-2.2,4.8-3,12.5-3,17.7c0,5.2,2.6,9.8,7.2,9.8c4.4,0,8.5-2.8,11.4-4.9
		c1-0.8,3-2.1,3.8-2.1c0.2,0,0.3,0.1,0.3,0.3c0,0.4-0.5,1.4-1.9,3.3l0.3,1.7c-3.9,7.2-9.1,10.6-13.8,10.6c-12.3,0-14-12.1-14-25
		c-4.1,4.5-6.2,16.3-8.1,22c-0.1,0.6-0.6,0.9-1.3,0.9c-1.8,0-4.1-2.1-4.1-2.3c0-0.2,0.6-5.8,1.1-12.8c0.3-3.7,0.9-10.3,0.9-14.4
		c0-0.8-0.1-1.2-0.2-1.2c-1.6,0-4.7,29.8-15.4,29.8c-4.8,0-6.3-6.2-6.3-13.5c0-8.6,1.9-21,3.4-21c1.5,0,2.9-0.1,5.3-0.6
		c1,0,1,0.7,1,0.7c-2.2,12.5-3.5,17.5-3.5,26.1c0,2.8,0.7,4,1.6,4c6.3,0,9.2-16.7,11.7-24.3c1.4-4.1,2.6-7.2,3.7-7.2
		c1.6,0,2.7-0.9,3.4-0.9c0.7,0,0.8,3.9,0.8,7.4c0,4.2,0,8.5-0.1,13.6c2.8-6,6-16.1,11-20.9C177.2,198.3,177.4,198.2,177.7,198.2z
		 M152.8,181.3c0,3.3-2.5,7.4-5.5,7.4c-2.8,0-4-2.1-4-4.4c0-3.2,2.2-7,5.7-7C151.7,177.4,152.8,179.2,152.8,181.3z"/>
</g>
<g>
	<path d="M246,178.4c0.1,0,0.2,0,0.3,0.1c1.6,1.1,5.1,1,5.1,2.6c0,2.3-4.9,21.8-4.9,37.1c0,7.9,1.3,14.8,5.4,17.2
		c0.2,0.1,0.3,0.3,0.3,0.5c0,0.4-0.3,0.7-0.6,0.7h-0.1c-5.1-1-7.8-5.8-9-12.3c-1.9,6.8-5.4,12.8-9.2,12.8c-5.5,0-7.8-5-7.8-10.9
		c0-8.8,5-19.7,12-19.7c1.9,0,3.3,0.6,4.3,1.6c0.5-10.9,2.5-22.4,3.2-29.1C245.3,178.7,245.6,178.4,246,178.4z M239.2,211.3
		c-3.2,0-8.9,6.3-8.9,17c0,3.7,1,5.4,2.4,5.4c3.2,0,8.7-8.6,8.7-19.2C241.5,212.3,240.6,211.3,239.2,211.3z"/>
	<path d="M282.9,216.1c-1.2,0.6-2.8,0.9-4.3,0.9c-0.3,0-0.6,0-0.9-0.1c-1,7.7-4.6,20.4-14.6,20.4c-4.6,0-8.8-3.5-10.9-12.3
		c-0.3,0-0.6,0-0.9-0.1c-0.4-0.1-0.1-0.8-1-1.7c-0.1-0.1-0.1-0.1-0.1-0.2c0-0.3,0.5-0.7,0.9-0.7l1.1,0.2c0.4-8.9,4.9-18.1,11.7-18.1
		c3.2,0,5.1,2.9,5.1,6.6c0,5-3.3,11.5-11,14.5c0.6,7,3.2,9.6,6.2,9.6c7.3,0,10.3-10.3,11.4-19.2c-2-1.5-2.9-4.4-2.9-7.1
		c0-3,1.2-5.7,3.4-5.7c2.2,0,2.7,1.5,2.7,3.4c0,1.5-0.4,3.4-0.4,4.8c0,1.2,0.1,1.8,0.7,1.8c0.4,0,0.9-0.3,1.6-0.7
		c2.6-1.7,6.5-5.8,7-5.8c1,0,2.4,1.9,2.4,2.9c0,1.9-1.3,4-2.9,5.4c-0.3,2-0.4,4-0.4,5.8c0,6.2,1.6,11.4,6.7,11.4
		c3.7,0,7.2-2.4,9.7-4.2c0.9-0.7,2.6-1.8,3.2-1.8c0.1,0,0.3,0.1,0.3,0.2c0,0.4-0.4,1.2-1.6,2.9l0.3,1.5c-3.3,6.1-7.8,9-11.7,9
		c-6.5,0-11-6.5-11-17.5c0-1.9,0.1-3.9,0.4-6H282.9z M258,222.4c5.3-1.9,7.5-7.2,7.5-10.6c0-1.8-0.6-3.1-1.7-3.1
		C260.5,208.7,258.1,215.9,258,222.4z"/>
</g>
<g>
	<path d="M62.8,356.3c-7.6,3.7-7.4,5-8.4,5c-1.7,0-2-1.3-2-2.2c1.3-19.7,1.8-40.2,2-57.3l-5.7,1.3c-0.9-0.8-2.2-4.8-2.2-7.1
		c0-0.9,0.3-1.6,0.8-1.6c2.9,0,5,0,7.3-0.1v-13.4c0-10.7,0-18,0.1-19.7c0-0.8,0.3-1.4,1-1.6c1.3-0.1,10.8-0.7,10.8-0.7
		c0.1,0,0.9,0.1,0.9,0.5c0,3.1-2,9.8-3.3,34.2c38.6-5.9,54.1-17.1,54.1-26.5c0-8.9-13.7-16.3-34.6-16.3c-29.9,0-75.5,9.7-77.2,37.1
		C4.2,284.4,3,281.2,3,278c0-22.5,56.4-36.9,87.6-36.9c27.8,0,43.6,9.3,43.6,20.9c0,9.5-10.8,20.6-34.6,29.2
		c33.2,2.9,48.4,18.8,48.4,34.7c0,17.8-18.9,35.6-52.7,35.6c-13.7,0-27.3-5.5-32.5-15.1V356.3z M68.3,330.8c0,1.2-0.3,2.4-0.3,2.4
		c8.1,11.9,22.5,12.3,32.5,12.3c20.2,0,35.8-13.8,35.8-26.9c0-14.4-18.5-21.9-42.8-21.9c-9.3,0-19.5,1.2-29.6,3.4
		c-0.4,8.4-0.8,18.9-0.9,31.2c1.3-1.6,2.9-3.4,3.7-3.4C68,327.8,68.3,329.9,68.3,330.8z"/>
	<path d="M183.8,310.3c2.4,0.7,5.6,1.7,5.6,3.3c0,3.8-1.8,15.7-1.8,24.9c0,6.7,0.9,11.9,4.2,11.9c2.9,0,6.4-2.6,7.7-5.7
		c1.4-0.4,1.7-2.1,2.1-2.1c0.5,0,0.5,0.8,0.5,1.2c0,6.9-6.1,13.2-12.1,13.2c-5.1,0-10.1-4.4-11.4-16.2c-3.5,9.1-8.5,16.2-13.6,16.2
		c-9,0-12.9-9.5-12.9-20.8c0-16.3,8.1-36.3,20.5-36.3C179.5,299.9,182.9,304.3,183.8,310.3z M179.4,314.2c-2.2-2.9-4.3-4.2-6.3-4.2
		c-8.1,0-13.4,21-13.4,31.3c0,5.4,1.3,9.1,3.9,9.1C174.3,350.5,178.2,324.5,179.4,314.2z"/>
	<path d="M208,327.8c0.3,0,0.4-0.1,0.5-0.4c1.7-4.6,11.5-23.8,15.9-23.8c1.3,0,2.4,1.2,2.4,1.2c2.6,0.1,5.1,0.7,5.1,3.4
		c-1.4,10.3-2.2,19.5-2.2,28.3c0,6.5,0.7,14.1,4.3,14.1c4.3,0,8.1-6.3,9.1-9.8c0,0,0.1-0.5,0.7-0.5c1,0,1.3,1.3,1.3,2
		c0,4.8-3.5,10.3-7.2,12.9c-2.4,1.7-4.6,2.2-6.4,2.2c-11.5,0-12.1-18.1-12.1-25.9c0-6.1,0.4-12,0.7-15.7c0-0.5-0.1-2.2-0.5-2.2
		c-0.8,0-6.9,11.8-8.1,14.6c-2.9,6.5-4.4,15.1-4.4,21.8c0,4.8,0.1,8.7,0.1,8.7c0,1.3-0.3,2.2-0.9,2.2c-0.3,0-0.5-0.1-0.9-0.4
		c-2.2-1.7-6.9-4-8.1-5.2c0.3-4.7,2-22.6,3.4-41.9H200c-0.5,0-0.9-0.1-1-0.3c-1.2-0.5-0.5-1.3-1.7-1.8c-0.9,0-1.3-0.3-1.3-0.4
		c-0.1,0,2.9-0.7,4.8-1.3l0.4-4.7c2.2-32.2,12.4-68,19.8-68c6.4,0,9.3,6.8,9.3,16.3c0,17.1-8.9,43-21.5,55
		c-0.7,7.8-1.2,15.3-1.2,18.9C207.6,327.7,207.9,327.8,208,327.8z M222.2,253.5c-4.4,0-10.8,25.2-13.1,49.5
		c9.7-11.9,14.8-33.9,14.8-44.1C223.9,255.6,223.3,253.5,222.2,253.5z"/>
	<path d="M240.6,314c-0.7,0-1.3-0.4-1.3-1.3c0-0.1,0-0.3,0.1-0.5c4.3-5.4,9.5-9.4,13.8-9.4c5.9,0,7.2,6.3,7.2,13.4
		c0,6-0.9,12.7-1,17c4.2-9.1,9-24.4,16.6-31.6c0.4-0.3,0.7-0.4,1-0.4c1.4,0,6,3,6,4.6c0,0.3,0,0.4-0.1,0.7
		c-3.3,7.3-4.6,18.9-4.6,26.8c0,7.6,2.3,13.1,6.3,13.1c1.7,0,3.7-1,5.9-3.4c0,0,0.3-0.1,0.5-0.1s0.4,0.1,0.4,0.4
		c0,5.4-5.5,10.6-10.7,10.6c-11.4,0-12.3-23.5-12.3-30c-6.3,6.8-9.4,24.7-12.3,33.3c0,0.9-0.9,1.3-2,1.3c-1.4,0-3.4-0.8-3.7-1.6
		c-0.5-1.3-2.5-0.5-2.5-2c0-0.3,0-0.8,0.1-1.2c0.5-2.6,0.9-9.8,1.6-18.1c0.4-5.6,1.3-15.5,1.3-21.8c0-3.9-0.9-5.4-2.4-5.4
		c-2,0-4.7,2.6-7.1,5.4C241.4,313.8,241,314,240.6,314z"/>
	<path d="M299.8,327.8c0.3,0,0.4-0.1,0.5-0.4c1.7-4.6,11.5-23.8,15.9-23.8c1.3,0,2.4,1.2,2.4,1.2c2.6,0.1,5.1,0.7,5.1,3.4
		c-1.4,10.3-2.2,19.5-2.2,28.3c0,6.5,0.7,14.1,4.3,14.1c4.3,0,8.1-6.3,9.1-9.8c0,0,0.1-0.5,0.7-0.5c1,0,1.3,1.3,1.3,2
		c0,4.8-3.5,10.3-7.2,12.9c-2.4,1.7-4.6,2.2-6.4,2.2c-11.5,0-12.1-18.1-12.1-25.9c0-6.1,0.4-12,0.7-15.7c0-0.5-0.1-2.2-0.5-2.2
		c-0.8,0-6.9,11.8-8.1,14.6c-2.9,6.5-4.4,15.1-4.4,21.8c0,4.8,0.1,8.7,0.1,8.7c0,1.3-0.3,2.2-0.9,2.2c-0.3,0-0.5-0.1-0.9-0.4
		c-2.2-1.7-6.9-4-8.1-5.2c0.3-4.7,2-22.6,3.4-41.9h-0.5c-0.5,0-0.9-0.1-1-0.3c-1.2-0.5-0.5-1.3-1.7-1.8c-0.9,0-1.3-0.3-1.3-0.4
		c-0.1,0,2.9-0.7,4.8-1.3l0.4-4.7c2.2-32.2,12.4-68,19.8-68c6.4,0,9.3,6.8,9.3,16.3c0,17.1-8.9,43-21.5,55
		c-0.7,7.8-1.2,15.3-1.2,18.9C299.4,327.7,299.6,327.8,299.8,327.8z M314,253.5c-4.4,0-10.8,25.2-13.1,49.5
		c9.7-11.9,14.8-33.9,14.8-44.1C315.7,255.6,315.1,253.5,314,253.5z"/>
	<path d="M376.2,314.5c1.4,0,2.9,0,4.3-0.1c0.4-0.7,0.7-1.7,0.7-2.2c0,0,1.2-2.9,4.8-62.7c0-0.7,0-1.3,0.3-1.3c0.7,0,1,0,1.4,0.4
		c1,1.6,4.8,7.1,6.1,8.5c0.8,0.9,1.2,1.8,1.2,3c0,0.4,0,0.9-0.1,1.4c-2.6,18-4.8,35.6-6.8,52c4.3-0.5,8.5-1.3,12.5-1.6
		c3.5,0,7.2,3.9,9.7,7.6c0.7,0.9,2.9,0.5,2.9,1.7c0,0.4-0.1,0.9-0.8,1.2c-2.1,1-12.4,1.8-18.9,1.8c-1.3,0-2.4-0.1-3.3-0.1
		c-1,0-1.2,1.2-1.2,1.2c7.2,11.6,11,33.9,11,53.9c0,21.9-4.6,41.3-14,41.3c-9.9,0-12.9-9.9-12.9-24.2c0-20.6,6.3-50.5,6.8-71.8
		c0,0-0.1-2.5-2.1-2.7c-3.5-0.5-6-1-7.7-1.6c0.1,1.3,0.1,2.6,0.1,3.9c0,14.8-7.8,31.3-19.2,31.3c-11.6,0-16.5-10.6-16.5-22.6
		c0-15.9,8.5-34.6,20.9-34.6c10.1,0,10.8,7.1,10.8,9.5v0.9c-2.1-0.9-4-1.3-5.9-1.3c-11.4,0-16.8,16.1-16.8,28.9
		c0,8.5,2.3,15.4,7.1,15.4c6.1,0,10.4-12.7,10.4-23.4c0-6.3-1.4-11.7-4.8-13.7c0,0,4.3-2.2,7.3-3.3C370,314.2,373,314.5,376.2,314.5
		z M385.6,335.8c-3.3,30.3-5.1,53.5-5.1,61.6c0,11.1,0.9,15.8,2.1,15.8c2.6,0,7.4-26.2,7.4-49.4C390,352.5,388.8,341.9,385.6,335.8z
		"/>
	<path d="M431,292.9c0.4,0,1,0.1,1,0.7c0,0.1-2,8.6-2,18.7c0,9.4,7.7,23.8,7.7,34.5c0,7.8-5.6,11.9-11,11.9c-4.8,0-9.5-3.4-9.5-10.6
		c0-3.8,1.2-7.1,2-7.1c0.1,0,0.3,0,0.4,0.3c2,4.6,2,9.5,5.1,9.5c2.9,0,3.8-2.7,3.8-6.7c0-8.7-5-23.5-5-26.6c-3.1,6-9,29.2-17.2,39.7
		c0,0-2.9-0.5-2.9-1.6c0-0.1,0-0.3,0.1-0.4c8.9-12.8,18.7-47.5,19.5-56.9C423.3,295.4,429,292.9,431,292.9z"/>
</g>
<g>
	<path d="M212.2,488.8c-1.6,0-1.8-1.2-1.8-2c1-14.3,1.4-29,1.7-42.3c-5.4-1.3-10.1-4-13.1-8.7c0,0-2.9-4-3.5-4.4
		c-0.5-0.2-0.7-0.7-0.7-1.2c0-0.2,0.4-0.6,0.4-1v-0.2c-0.5-1-0.7-1.4-0.7-1.8c0-0.4,0.2-0.5,0.5-0.5c0.6,0,1.4,0.5,2.2,0.7
		c5,1.7,10.1,2.9,15.1,3.7c0.1-5.9,0.1-11.4,0.1-16.1c0-9.8,0-16.5,0.1-18.1c0-0.7,0.2-1.3,1-1.4c1.2-0.1,9.9-0.6,9.9-0.6
		c0.1,0,0.8,0.1,0.8,0.5c0,3-2,9.8-3.4,36.5c1.7,0.1,3.2,0.1,4.8,0.1c20.5,0,36.8-8.1,36.8-25.5c0-14.4-16.5-20.6-35-20.6
		c-23.2,0-49.4,9.9-49.4,26.6c0,1,0.4,1.7,0.4,2.6c0,0.5-0.2,0.8-0.5,0.8c-0.2,0-0.5-0.2-0.8-0.6h-1.3c-1.6-0.4-3.2-1.8-3.2-4.8
		c0-16.9,32.2-31.4,60.4-31.4c21.7,0,41,8.6,41,31.6c0,17.2-15.2,35.3-43.1,35.3c-3.4,0-6.9,0-10.4-0.2c-0.4,10.4-0.5,23-0.5,38.3
		C212.9,487.6,213,488.8,212.2,488.8z"/>
	<path d="M275,437.1c2,0,4.1-0.1,7.3-0.8c1.4,0,1.4,1,1.4,1c-3.1,17.4-4.8,24.3-4.8,36.3c0,4.1,1.1,5.5,2.6,5.5
		c2.6,0,6.5-4.3,7.8-7.4c0.2-0.4,0.7-0.7,1.1-0.7c0.4,0,0.6,0.2,0.6,0.7v0.2c-1.3,6.8-6.3,13.1-12.1,13.1c-6.7,0-8.7-8.7-8.7-18.8
		c0-10.4,2.2-22.2,3.4-27.4C273.5,438.6,274,437.1,275,437.1z M289.8,410.2c0,4.6-3.5,10.3-7.7,10.3c-3.8,0-5.5-2.9-5.5-6.1
		c0-4.4,3.1-9.7,7.9-9.7C288.4,404.7,289.8,407.3,289.8,410.2z"/>
	<path d="M308.3,437.1c5.5,0,11.3-1.2,15.2-1.2c1.9,0,2.9,0.2,3.2,0.7c1.2,1.2,1.7,2.3,1.7,3.2c0,2-2.2,3.5-3.8,5
		c-7.4-0.1-27.4,22.4-30.7,30.1c10.2-1.8,20.2-2.9,25.2-2.9c3.4,0,5.6,3.6,6.5,6.7c0.1,0.6,2.4,0.8,2.4,2.4c0-0.1-0.4-0.1-0.8-0.1
		c-4.7,0-28.1,3.1-30.8,3.6c-0.2,0-0.6,0.1-0.8,0.1c-4,0-6.5-4.8-6.5-8.1c0-4.7,21.4-28.9,28.1-31.9c-8,2.3-13.9,3.4-18.1,3.4
		c-5.9,0-8.3-2-8.3-5.5c0-2.6,1.4-6.2,3.8-10.3C298.2,436.1,303.1,437.1,308.3,437.1z"/>
	<path d="M360.7,503.1v-0.8c0-15-8.4-29.9-25-29.9c-4,0-6.5-4.8-6.5-8.1c0-4.7,16.2-16.4,22.9-19.4c-8,2.3-13.9,3.4-18.1,3.4
		c-5.9,0-8.3-2-8.3-5.5c0-2.6,1.4-6.2,3.8-10.3c3.6,3.8,8.5,4.8,13.7,4.8c5.5,0,11.3-1.2,15.2-1.2c1.9,0,2.9,0.2,3.2,0.7
		c1.3,1.3,1.8,2.6,1.8,3.8c0,2.4-1.9,4.6-3.6,6.1h-0.1c-7.4,0-20,7.9-23.2,15.6c1-0.1,1.9-0.2,2.8-0.2h0.6
		c17.8,1.6,25.5,16.8,25.5,33.2c0,2.6-0.2,5.5-0.6,8.1c20,1.1,38.6,4.3,62.4,4.3c5.4,0,10.1-0.5,14.5-2.3c0.7-0.2,1.3-0.4,1.6-0.4
		c0.2,0,0.4,0.1,0.4,0.2c0,1.3-2.6,1.7-3.1,3.2c-2.3,8.1-18.3,10.5-25.3,10.5c-22.5,0-35.1-5.3-52.2-7.8
		c-4.4,14.6-14.5,26.7-28.4,26.7c-10.2,0-15.1-5.3-15.1-11.7c0-10.1,12-23.1,34.4-23.1C356.2,503,358.5,503,360.7,503.1z
		 M326.7,524.3c0,4.3,2.9,7.8,9.2,7.8c13.4,0,21.3-9.7,23.8-21.4c-4.6-0.5-9.3-0.8-14.9-0.8C333.3,509.8,326.7,517.8,326.7,524.3z"
		/>
	<path d="M406.5,451.9c-1.7,12.6-7.4,33.3-23.8,33.3c-7.4,0-14.4-5.7-17.7-20c-0.5,0-1,0-1.4-0.1c-0.7-0.1-0.2-1.3-1.6-2.8
		c-0.1-0.1-0.2-0.2-0.2-0.4c0-0.5,0.8-1.1,1.4-1.1l1.8,0.4c0.7-14.5,8-29.6,19.2-29.6c5.3,0,8.3,4.7,8.3,10.8
		c0,8.1-5.4,18.8-18,23.6c1,11.5,5.2,15.7,10.2,15.7c12,0,16.8-16.9,18.6-31.3c-3.2-2.4-4.8-7.2-4.8-11.6c0-4.9,1.9-9.3,5.6-9.3
		c3.6,0,4.4,2.5,4.4,5.5c0,2.5-0.6,5.5-0.6,7.8c0,2,0.2,2.9,1.1,2.9c0.6,0,1.4-0.5,2.6-1.2c4.2-2.8,10.5-9.5,11.5-9.5
		c1.6,0,4,3.1,4,4.8c0,0.8-0.4,1.6-0.4,1.6s-2.2,5.6-3,7.7c-2.8,6.6-3.8,13.2-3.8,18.6c0,9.8,2.6,16.1,5.7,16.1c2,0,4.3-2.8,6.2-8.9
		c0.2-0.8,0.1-1.3,1.7-2.4c0.4-0.2,0.6-0.4,0.7-0.4c0.2,0,0.4,0.2,0.4,0.5c0,0.2-0.1,0.6-0.1,0.6c-0.5,9.9-6.7,16.2-12.5,16.2
		c-5.2,0-9.9-4.9-9.9-16.6c0-8.6,1.9-18.1,3-22c-1.9,1-4.6,1.4-7.1,1.4C407.4,452,407,452,406.5,451.9z M374.3,461
		c8.6-3.1,12.2-11.7,12.2-17.4c0-2.9-1-5-2.8-5C378.3,438.6,374.5,450.4,374.3,461z"/>
	<path d="M436.6,437.1c2,0,4.1-0.1,7.3-0.8c1.4,0,1.4,1,1.4,1c-3.1,17.4-4.8,24.3-4.8,36.3c0,4.1,1.1,5.5,2.6,5.5
		c2.6,0,6.5-4.3,7.8-7.4c0.2-0.4,0.7-0.7,1.1-0.7c0.4,0,0.6,0.2,0.6,0.7v0.2c-1.3,6.8-6.3,13.1-12.1,13.1c-6.7,0-8.7-8.7-8.7-18.8
		c0-10.4,2.2-22.2,3.4-27.4C435.1,438.6,435.6,437.1,436.6,437.1z M451.4,410.2c0,4.6-3.5,10.3-7.7,10.3c-3.8,0-5.5-2.9-5.5-6.1
		c0-4.4,3.1-9.7,7.9-9.7C450,404.7,451.4,407.3,451.4,410.2z"/>
	<path d="M481.7,442c0.8-0.2,1.8-0.4,2.5-0.4c1.1,0,1.8,0.2,1.8,1.2c0,15.5,2.6,33.1,13.2,33.1c4.3,0,9.8-2.9,17.1-10.2
		c1.1-1.1,3.4-3.4,4.2-3.4c0.2,0,0.4,0.1,0.4,0.5c0,0.7-0.6,2.2-1.9,4.9l1,2.3c-4.2,12.1-11.5,18.1-18.8,18.1
		c-9.5,0-18.7-9.9-21.1-29.3c-2.9,12-8.5,26.1-15.5,26.1c-8.3,0-11.9-8.7-11.9-19c0-15,7.4-33.3,18.8-33.3
		C477.8,432.5,480.9,436.5,481.7,442z M477.8,445.7c-2-2.6-4-3.8-5.7-3.8c-7.4,0-12.3,19.3-12.3,28.7c0,4.9,1.2,8.4,3.6,8.4
		C473.1,479,476.7,455.2,477.8,445.7z"/>
</g>
<g>
	<path fill="#BE4727" d="M484.4,328.3c-1.6-0.1-3.2-0.3-4.7-0.3c-8.1,0-15.3,1.9-21,1.9c-5.7,0-10-1.9-13-9.5l0.3-0.7
		c2.6,2.7,6.6,3.5,11.2,3.5c8.1,0,17.9-2.6,23.8-2.6c3.2,0,5.4,0.7,5.4,3.2C486.4,326.1,485.5,328.3,484.4,328.3z"/>
</g>
<g>
	<path fill="#FFFFFF" d="M483.4,326.8c-1.6-0.1-3.2-0.3-4.7-0.3c-8.1,0-15.3,1.9-21,1.9c-5.7,0-10-1.9-13-9.5l0.3-0.7
		c2.6,2.7,6.6,3.5,11.2,3.5c8.1,0,17.9-2.6,23.8-2.6c3.2,0,5.4,0.7,5.4,3.2C485.4,324.6,484.5,326.8,483.4,326.8z"/>
</g>
<g>
	<path d="M482.4,325.7c-1.6-0.1-3.2-0.3-4.7-0.3c-8.1,0-15.3,1.9-21,1.9c-5.7,0-10-1.9-13-9.5l0.3-0.7c2.6,2.7,6.6,3.5,11.2,3.5
		c8.1,0,17.9-2.6,23.8-2.6c3.2,0,5.4,0.7,5.4,3.2C484.4,323.5,483.5,325.7,482.4,325.7z"/>
</g>
</svg>
