<?xml version="1.0" encoding="utf-8"?>
<!-- Generator: Adobe Illustrator 18.0.0, SVG Export Plug-In . SVG Version: 6.00 Build 0)  -->
<!DOCTYPE svg PUBLIC "-//W3C//DTD SVG 1.1//EN" "http://www.w3.org/Graphics/SVG/1.1/DTD/svg11.dtd">
<svg version="1.1" id="Layer_1" xmlns="http://www.w3.org/2000/svg" xmlns:xlink="http://www.w3.org/1999/xlink" x="0px" y="0px"
	 viewBox="0 0 874.4 460" enable-background="new 0 0 874.4 460" xml:space="preserve">
<g>
	<path fill="#BE4727" d="M233.1,122.8c-4.3,0-7-1.1-8.3-2.6c-0.2,0.5-0.4,1-0.5,1.3c-0.2,0.9-0.1,2.1-0.9,2.1
		c-1.9,0-3.8-3.8-3.8-5.4c0-5.4,0.5-14.9,1.3-23.8c-9.4-0.7-14.1-5.4-14.1-10.7c0-10.6,12.8-16.6,26.4-16.6
		c15.3,0,31.6,7.7,31.6,25.4C264.7,107.2,253.5,122.8,233.1,122.8z M223.9,76.9c0.9-0.2,1.7-0.4,2.4-0.4c0.1,0,0.1,0.1,0.1,0.3
		c-0.4,4.4-0.7,9.1-0.9,13.8c0.7,0.1,1.4,0.1,2.1,0.1c3.2,0,6.4-0.7,9.5-2.4c0.2,0.2-3.3,5.6-11.8,6.3c-0.2,6.8-0.3,13.4-0.3,19.1
		c0.8-1,1.8-1.8,3.2-2.6c0,0,0.8,0.1,0.8,0.4c-0.4,0.5-1.7,1.8-1.7,3.2c0,1.2,1.3,1.9,4.3,1.9c17.4,0,27-13.4,27-25.8
		c0-13.9-15.2-20.3-28.5-20.3c-10.2,0-19.3,3.8-19.3,11c0,3.7,3.6,7.3,10.5,8.7c0.5-4.8,1.1-9.1,1.7-12.2
		C223.2,77.2,223.4,77,223.9,76.9z"/>
	<path fill="#BE4727" d="M268.3,95.3c1,0,2.1-0.1,3.7-0.4c0.7,0,0.7,0.5,0.7,0.5c-1.6,8.8-2.4,12.4-2.4,18.5c0,2.1,0.5,2.8,1.3,2.8
		c1.3,0,3.3-2.2,4-3.8c0.1-0.2,0.4-0.4,0.5-0.4c0.2,0,0.3,0.1,0.3,0.4v0.1c-0.7,3.5-3.2,6.6-6.2,6.6c-3.4,0-4.5-4.5-4.5-9.6
		c0-5.3,1.1-11.3,1.7-14C267.6,96.1,267.8,95.3,268.3,95.3z M275.9,81.7c0,2.3-1.8,5.2-3.9,5.2c-2,0-2.8-1.5-2.8-3.1
		c0-2.3,1.6-4.9,4-4.9C275.1,78.9,275.9,80.1,275.9,81.7z"/>
	<path fill="#BE4727" d="M306.2,100.8c0,0,0.2-0.2,0.5-0.2c0.2,0,0.3,0.1,0.3,0.6c0,0.2-0.1,0.5-0.1,1c0.1,0.6,0.5,0.7,0.5,1.3v0.1
		c0,11.8-8.6,17.3-16.8,17.3c-7.4,0-14.5-4.5-14.5-12.7c0-7.4,3.8-15.5,9.8-15.5c2.7,0,4.3,2,4.3,4.8c0,3.8-2.9,9-9.5,12.7
		c0.4,5.1,2.8,7.3,6.2,7.3C293,117.3,302.3,109.8,306.2,100.8z M285.6,96.1c-2.7,0-4.8,6.2-5,11.6c4-3,6.2-7.6,6.2-10
		C286.8,96.7,286.4,96.1,285.6,96.1z"/>
</g>
<g>
	<path fill="#BE4727" d="M343.2,70.3c3.5-18.8,28.2-30.1,48.3-30.1c14.3,0,26.4,5.7,26.4,19.1c0,12.3-15.5,25.6-46,25.6
		c-6.7,0-12.7-0.5-18.3-1.3c9.9,21.2,47.6,46,47.6,73.6c0,20.1-17.5,27.4-31.1,27.4c-48.4,0-77.9-51.1-77.6-51.1
		c0.2,0,0.3-1.8,1.4-1.8c1,0,2.5,1.1,5.6,5.3c0,0,1.6,0.2,2.7,0.2l2.7,2.5c17,16.1,42.7,23.9,62,23.9c11,0,20.2-6.1,20.2-17.2
		c0-18.6-37.4-39.2-43.6-64.5c-28.5-6.7-42.7-23.6-42.7-38.4c0-13.7,12.4-25.5,37.1-25.5c5.1,0,13.1,1.1,18.3,3.7l-0.2,0.8
		c0,0-6.2-1.8-14.2-1.8c-22.3,0-33,9.7-33,20.7C309,52.9,320.6,65.8,343.2,70.3z M387.3,45.7c-13.9,0-33.9,9.9-36,25.8
		c3.2,0.3,6.5,0.5,10,0.5c25,0,39.3-9.7,39.3-16.9C400.7,48.6,395,45.7,387.3,45.7z"/>
	<path fill="#BE4727" d="M446.5,118c2.9,0.8,6.9,2.1,6.9,4c0,4.6-2.2,19.1-2.2,30.4c0,8.1,1.1,14.5,5.1,14.5c3.5,0,7.8-3.2,9.4-7
		c1.8-0.5,2.1-2.5,2.5-2.5c0.6,0,0.6,1,0.6,1.4c0,8.4-7.5,16.1-14.8,16.1c-6.2,0-12.3-5.4-13.9-19.8c-4.3,11.2-10.4,19.8-16.6,19.8
		c-11,0-15.8-11.6-15.8-25.3c0-19.9,9.9-44.3,25-44.3C441.2,105.3,445.3,110.7,446.5,118z M441,122.8c-2.7-3.5-5.3-5.1-7.6-5.1
		c-9.9,0-16.4,25.6-16.4,38.2c0,6.5,1.6,11.2,4.8,11.2C434.8,167.1,439.6,135.4,441,122.8z"/>
	<path fill="#BE4727" d="M493.3,103.5c6.4,0,11.2,4.9,11.9,15.8c0.2,0.8,0.3,1.8,0.3,2.5c0,5.1-4.1,8.9-9.6,8.9
		c-3.3,0-4.6-1.3-4.6-2.1c0-0.3,0.2-0.5,0.5-0.5c1.3-0.2,4.1-6.2,4.1-9.9c0-1.3-0.3-2.2-1.1-2.5c-8.6,0.6-17.8,19.6-17.8,34.6
		c0,12.1,6.7,18.5,12.9,18.5c5.7,0,11.2-5.3,11.2-15.8c0-3.3-0.6-7-1.9-11c0-0.2,0-1,1.9-1c4.6,0,8.1,7,8.1,14.7
		c0,13.7-8.8,20.6-18.5,20.6c-11.6,0-24.5-9.9-24.5-29.3C466.2,127,478,103.5,493.3,103.5z"/>
	<path fill="#BE4727" d="M526.6,139.4c0.3,0,0.5-0.2,0.6-0.5c2.1-5.6,14-29,19.4-29c1.6,0,2.9,1.4,2.9,1.4c3.2,0.2,6.2,0.8,6.2,4.1
		c-1.8,12.6-2.7,23.7-2.7,34.6c0,8,0.8,17.2,5.3,17.2c5.3,0,9.9-7.6,11.2-11.9c0,0,0.2-0.6,0.8-0.6c1.3,0,1.6,1.6,1.6,2.4
		c0,5.9-4.3,12.6-8.8,15.8c-2.9,2.1-5.6,2.7-7.8,2.7c-14,0-14.8-22.1-14.8-31.5c0-7.5,0.5-14.7,0.8-19.1c0-0.6-0.2-2.7-0.6-2.7
		c-1,0-8.4,14.3-9.9,17.8c-3.5,8-5.4,18.5-5.4,26.6c0,5.9,0.2,10.7,0.2,10.7c0,1.6-0.3,2.7-1.1,2.7c-0.3,0-0.6-0.2-1.1-0.5
		c-2.7-2.1-8.4-4.9-9.9-6.4c0.3-5.7,2.4-27.6,4.1-51.1h-0.6c-0.6,0-1.1-0.2-1.3-0.3c-1.4-0.6-0.6-1.6-2.1-2.2
		c-1.1,0-1.6-0.3-1.6-0.5c-0.2,0,3.5-0.8,5.9-1.6l0.5-5.7c2.7-39.3,15.1-83,24.2-83c7.8,0,11.3,8.3,11.3,19.9
		c0,20.9-10.8,52.4-26.3,67.1c-0.8,9.6-1.4,18.6-1.4,23.1C526.1,139.2,526.4,139.4,526.6,139.4z M544,48.7
		c-5.4,0-13.2,30.7-15.9,60.4c11.8-14.5,18-41.4,18-53.8C546,51.3,545.2,48.7,544,48.7z"/>
	<path fill="#BE4727" d="M647.5,125.7c0,0,0.6-0.6,1.3-0.6c0.5,0,0.8,0.3,0.8,1.6c0,0.6-0.2,1.4-0.3,2.5c0.2,1.6,1.3,1.9,1.3,3.3
		v0.2c0,30.9-22.5,45.1-44,45.1c-19.4,0-37.9-11.6-37.9-33.1c0-19.3,10-40.5,25.5-40.5c7.2,0,11.2,5.3,11.2,12.6
		c0,10-7.5,23.6-24.7,33.1c1,13.4,7.3,19,16.1,19C612.9,168.9,637.1,149.1,647.5,125.7z M593.7,113.4c-7,0-12.4,16.2-13.1,30.4
		c10.4-7.8,16.1-19.8,16.1-26.1C596.7,115,595.7,113.4,593.7,113.4z"/>
</g>
<g>
	<path fill="#BE4727" d="M376.5,209.9c0.9,0,4,2,4,3c0,0.2,0,0.3-0.1,0.4c-2.2,4.8-3,12.5-3,17.7c0,5.2,2.6,9.8,7.2,9.8
		c4.4,0,8.5-2.8,11.4-4.9c1-0.8,3-2.1,3.8-2.1c0.2,0,0.3,0.1,0.3,0.3c0,0.4-0.5,1.4-1.9,3.3l0.3,1.7c-3.9,7.2-9.1,10.6-13.8,10.6
		c-12.3,0-14-12.1-14-25c-4.1,4.5-6.2,16.3-8.1,22c-0.1,0.6-0.6,0.9-1.3,0.9c-1.8,0-4.1-2.1-4.1-2.3c0-0.2,0.6-5.8,1.1-12.8
		c0.3-3.7,0.9-10.3,0.9-14.4c0-0.8-0.1-1.2-0.2-1.2c-1.6,0-4.7,29.8-15.4,29.8c-4.8,0-6.3-6.2-6.3-13.5c0-8.6,1.9-21,3.4-21
		c1.5,0,2.9-0.1,5.3-0.6c1,0,1,0.7,1,0.7c-2.2,12.5-3.5,17.5-3.5,26.1c0,2.8,0.7,4,1.6,4c6.3,0,9.2-16.7,11.7-24.3
		c1.4-4.1,2.6-7.2,3.7-7.2c1.6,0,2.7-0.9,3.4-0.9c0.7,0,0.8,3.9,0.8,7.4c0,4.2,0,8.5-0.1,13.6c2.8-6,6-16.1,11-20.9
		C376,210,376.2,209.9,376.5,209.9z M351.6,193c0,3.3-2.5,7.4-5.5,7.4c-2.8,0-4-2.1-4-4.4c0-3.2,2.2-7,5.7-7
		C350.5,189,351.6,190.8,351.6,193z"/>
</g>
<g>
	<path fill="#BE4727" d="M444.8,190c0.1,0,0.2,0,0.3,0.1c1.6,1.1,5.1,1,5.1,2.6c0,2.3-4.9,21.8-4.9,37.1c0,7.9,1.3,14.8,5.4,17.2
		c0.2,0.1,0.3,0.3,0.3,0.5c0,0.4-0.3,0.7-0.6,0.7h-0.1c-5.1-1-7.8-5.8-9-12.3c-1.9,6.8-5.4,12.8-9.2,12.8c-5.5,0-7.8-5-7.8-10.9
		c0-8.8,5-19.7,12-19.7c1.9,0,3.3,0.6,4.3,1.6c0.5-10.9,2.5-22.4,3.2-29.1C444.1,190.3,444.4,190,444.8,190z M438.1,222.9
		c-3.2,0-8.9,6.3-8.9,17c0,3.7,1,5.4,2.4,5.4c3.2,0,8.7-8.6,8.7-19.2C440.3,224,439.4,222.9,438.1,222.9z"/>
	<path fill="#BE4727" d="M481.7,227.7c-1.2,0.6-2.8,0.9-4.3,0.9c-0.3,0-0.6,0-0.9-0.1c-1,7.7-4.6,20.4-14.6,20.4
		c-4.6,0-8.8-3.5-10.9-12.3c-0.3,0-0.6,0-0.9-0.1c-0.4-0.1-0.1-0.8-1-1.7c-0.1-0.1-0.1-0.1-0.1-0.2c0-0.3,0.5-0.7,0.9-0.7l1.1,0.2
		c0.4-8.9,4.9-18.1,11.7-18.1c3.2,0,5.1,2.9,5.1,6.6c0,5-3.3,11.5-11,14.5c0.6,7,3.2,9.6,6.2,9.6c7.3,0,10.3-10.3,11.4-19.2
		c-2-1.5-2.9-4.4-2.9-7.1c0-3,1.2-5.7,3.4-5.7c2.2,0,2.7,1.5,2.7,3.4c0,1.5-0.4,3.4-0.4,4.8c0,1.2,0.1,1.8,0.7,1.8
		c0.4,0,0.9-0.3,1.6-0.7c2.6-1.7,6.5-5.8,7-5.8c1,0,2.4,1.9,2.4,2.9c0,1.9-1.3,4-2.9,5.4c-0.3,2-0.4,4-0.4,5.8
		c0,6.2,1.6,11.4,6.7,11.4c3.7,0,7.2-2.4,9.7-4.2c0.9-0.7,2.6-1.8,3.2-1.8c0.1,0,0.3,0.1,0.3,0.2c0,0.4-0.4,1.2-1.6,2.9l0.3,1.5
		c-3.3,6.1-7.8,9-11.7,9c-6.5,0-11-6.5-11-17.5c0-1.9,0.1-3.9,0.4-6H481.7z M456.8,234.1c5.3-1.9,7.5-7.2,7.5-10.6
		c0-1.8-0.6-3.1-1.7-3.1C459.3,220.4,456.9,227.6,456.8,234.1z"/>
</g>
<g>
	<path fill="#BE4727" d="M72.8,382.3c-7.6,3.7-7.4,5-8.4,5c-1.7,0-2-1.3-2-2.2c1.3-19.7,1.8-40.2,2-57.3l-5.7,1.3
		c-0.9-0.8-2.2-4.8-2.2-7.1c0-0.9,0.3-1.6,0.8-1.6c2.9,0,5,0,7.3-0.1v-13.4c0-10.7,0-18,0.1-19.7c0-0.8,0.3-1.4,1-1.6
		c1.3-0.1,10.8-0.7,10.8-0.7c0.1,0,0.9,0.1,0.9,0.5c0,3.1-2,9.8-3.3,34.2c38.6-5.9,54.1-17.1,54.1-26.5c0-8.9-13.7-16.3-34.6-16.3
		c-29.9,0-75.5,9.7-77.2,37.1c-2.4-3.4-3.5-6.7-3.5-9.8c0-22.5,56.4-36.9,87.6-36.9c27.8,0,43.6,9.3,43.6,20.9
		c0,9.5-10.8,20.6-34.6,29.2c33.2,2.9,48.4,18.8,48.4,34.7c0,17.8-18.9,35.6-52.7,35.6c-13.7,0-27.3-5.5-32.5-15.1V382.3z
		 M78.3,356.8c0,1.2-0.3,2.4-0.3,2.4c8.1,11.9,22.5,12.3,32.5,12.3c20.2,0,35.8-13.8,35.8-26.9c0-14.4-18.5-21.9-42.8-21.9
		c-9.3,0-19.5,1.2-29.6,3.4c-0.4,8.4-0.8,18.9-0.9,31.2c1.3-1.6,2.9-3.4,3.7-3.4C78,353.8,78.3,355.9,78.3,356.8z"/>
	<path fill="#BE4727" d="M193.8,336.3c2.4,0.7,5.6,1.7,5.6,3.3c0,3.8-1.8,15.7-1.8,24.9c0,6.7,0.9,11.9,4.2,11.9
		c2.9,0,6.4-2.6,7.7-5.7c1.4-0.4,1.7-2.1,2.1-2.1c0.5,0,0.5,0.8,0.5,1.2c0,6.9-6.1,13.2-12.1,13.2c-5.1,0-10.1-4.4-11.4-16.2
		c-3.5,9.1-8.5,16.2-13.6,16.2c-9,0-12.9-9.5-12.9-20.8c0-16.3,8.1-36.3,20.5-36.3C189.5,325.9,192.9,330.3,193.8,336.3z
		 M189.4,340.2c-2.2-2.9-4.3-4.2-6.3-4.2c-8.1,0-13.4,21-13.4,31.3c0,5.4,1.3,9.1,3.9,9.1C184.3,376.5,188.2,350.5,189.4,340.2z"/>
	<path fill="#BE4727" d="M218,353.8c0.3,0,0.4-0.1,0.5-0.4c1.7-4.6,11.5-23.8,15.9-23.8c1.3,0,2.4,1.2,2.4,1.2
		c2.6,0.1,5.1,0.7,5.1,3.4c-1.4,10.3-2.2,19.5-2.2,28.3c0,6.5,0.7,14.1,4.3,14.1c4.3,0,8.1-6.3,9.1-9.8c0,0,0.1-0.5,0.7-0.5
		c1,0,1.3,1.3,1.3,2c0,4.8-3.5,10.3-7.2,12.9c-2.4,1.7-4.6,2.2-6.4,2.2c-11.5,0-12.1-18.1-12.1-25.9c0-6.1,0.4-12,0.7-15.7
		c0-0.5-0.1-2.2-0.5-2.2c-0.8,0-6.9,11.8-8.1,14.6c-2.9,6.5-4.4,15.1-4.4,21.8c0,4.8,0.1,8.7,0.1,8.7c0,1.3-0.3,2.2-0.9,2.2
		c-0.3,0-0.5-0.1-0.9-0.4c-2.2-1.7-6.9-4-8.1-5.2c0.3-4.7,2-22.6,3.4-41.9H210c-0.5,0-0.9-0.1-1-0.3c-1.2-0.5-0.5-1.3-1.7-1.8
		c-0.9,0-1.3-0.3-1.3-0.4c-0.1,0,2.9-0.7,4.8-1.3l0.4-4.7c2.2-32.2,12.4-68,19.8-68c6.4,0,9.3,6.8,9.3,16.3c0,17.1-8.9,43-21.5,55
		c-0.7,7.8-1.2,15.3-1.2,18.9C217.6,353.7,217.9,353.8,218,353.8z M232.2,279.5c-4.4,0-10.8,25.2-13.1,49.5
		c9.7-11.9,14.8-33.9,14.8-44.1C233.9,281.6,233.3,279.5,232.2,279.5z"/>
	<path fill="#BE4727" d="M250.6,340c-0.7,0-1.3-0.4-1.3-1.3c0-0.1,0-0.3,0.1-0.5c4.3-5.4,9.5-9.4,13.8-9.4c5.9,0,7.2,6.3,7.2,13.4
		c0,6-0.9,12.7-1,17c4.2-9.1,9-24.4,16.6-31.6c0.4-0.3,0.7-0.4,1-0.4c1.4,0,6,3,6,4.6c0,0.3,0,0.4-0.1,0.7
		c-3.3,7.3-4.6,18.9-4.6,26.8c0,7.6,2.3,13.1,6.3,13.1c1.7,0,3.7-1,5.9-3.4c0,0,0.3-0.1,0.5-0.1c0.3,0,0.4,0.1,0.4,0.4
		c0,5.4-5.5,10.6-10.7,10.6c-11.4,0-12.3-23.5-12.3-30c-6.3,6.8-9.4,24.7-12.3,33.3c0,0.9-0.9,1.3-2,1.3c-1.4,0-3.4-0.8-3.7-1.6
		c-0.5-1.3-2.5-0.5-2.5-2c0-0.3,0-0.8,0.1-1.2c0.5-2.6,0.9-9.8,1.6-18.1c0.4-5.6,1.3-15.5,1.3-21.8c0-3.9-0.9-5.4-2.4-5.4
		c-2,0-4.7,2.6-7.1,5.4C251.4,339.8,251,340,250.6,340z"/>
	<path fill="#BE4727" d="M309.8,353.8c0.3,0,0.4-0.1,0.5-0.4c1.7-4.6,11.5-23.8,15.9-23.8c1.3,0,2.4,1.2,2.4,1.2
		c2.6,0.1,5.1,0.7,5.1,3.4c-1.4,10.3-2.2,19.5-2.2,28.3c0,6.5,0.7,14.1,4.3,14.1c4.3,0,8.1-6.3,9.1-9.8c0,0,0.1-0.5,0.7-0.5
		c1,0,1.3,1.3,1.3,2c0,4.8-3.5,10.3-7.2,12.9c-2.4,1.7-4.6,2.2-6.4,2.2c-11.5,0-12.1-18.1-12.1-25.9c0-6.1,0.4-12,0.7-15.7
		c0-0.5-0.1-2.2-0.5-2.2c-0.8,0-6.9,11.8-8.1,14.6c-2.9,6.5-4.4,15.1-4.4,21.8c0,4.8,0.1,8.7,0.1,8.7c0,1.3-0.3,2.2-0.9,2.2
		c-0.3,0-0.5-0.1-0.9-0.4c-2.2-1.7-6.9-4-8.1-5.2c0.3-4.7,2-22.6,3.4-41.9h-0.5c-0.5,0-0.9-0.1-1-0.3c-1.2-0.5-0.5-1.3-1.7-1.8
		c-0.9,0-1.3-0.3-1.3-0.4c-0.1,0,2.9-0.7,4.8-1.3l0.4-4.7c2.2-32.2,12.4-68,19.8-68c6.4,0,9.3,6.8,9.3,16.3c0,17.1-8.9,43-21.5,55
		c-0.7,7.8-1.2,15.3-1.2,18.9C309.4,353.7,309.7,353.8,309.8,353.8z M324,279.5c-4.4,0-10.8,25.2-13.1,49.5
		c9.7-11.9,14.8-33.9,14.8-44.1C325.7,281.6,325.1,279.5,324,279.5z"/>
	<path fill="#BE4727" d="M386.2,340.5c1.4,0,2.9,0,4.3-0.1c0.4-0.7,0.7-1.7,0.7-2.2c0,0,1.2-2.9,4.8-62.7c0-0.7,0-1.3,0.3-1.3
		c0.7,0,1,0,1.4,0.4c1,1.6,4.8,7.1,6.1,8.5c0.8,0.9,1.2,1.8,1.2,3c0,0.4,0,0.9-0.1,1.4c-2.6,18-4.8,35.6-6.8,52
		c4.3-0.5,8.5-1.3,12.5-1.6c3.5,0,7.2,3.9,9.7,7.6c0.7,0.9,2.9,0.5,2.9,1.7c0,0.4-0.1,0.9-0.8,1.2c-2.1,1-12.4,1.8-18.9,1.8
		c-1.3,0-2.4-0.1-3.3-0.1c-1,0-1.2,1.2-1.2,1.2c7.2,11.6,11,33.9,11,53.9c0,21.9-4.6,41.3-14,41.3c-9.9,0-12.9-9.9-12.9-24.2
		c0-20.6,6.3-50.5,6.8-71.8c0,0-0.1-2.5-2.1-2.7c-3.5-0.5-6-1-7.7-1.6c0.1,1.3,0.1,2.6,0.1,3.9c0,14.8-7.8,31.3-19.2,31.3
		c-11.6,0-16.5-10.6-16.5-22.6c0-15.9,8.5-34.6,20.9-34.6c10.1,0,10.8,7.1,10.8,9.5v0.9c-2.1-0.9-4-1.3-5.9-1.3
		c-11.4,0-16.8,16.1-16.8,28.9c0,8.5,2.3,15.4,7.1,15.4c6.1,0,10.4-12.7,10.4-23.4c0-6.3-1.4-11.7-4.8-13.7c0,0,4.3-2.2,7.3-3.3
		C380,340.2,383,340.5,386.2,340.5z M395.6,361.8c-3.3,30.3-5.1,53.5-5.1,61.6c0,11.1,0.9,15.8,2.1,15.8c2.6,0,7.4-26.2,7.4-49.4
		C400,378.5,398.8,367.9,395.6,361.8z"/>
	<path fill="#BE4727" d="M441,318.9c0.4,0,1,0.1,1,0.7c0,0.1-2,8.6-2,18.7c0,9.4,7.7,23.8,7.7,34.5c0,7.8-5.6,11.9-11,11.9
		c-4.8,0-9.5-3.4-9.5-10.6c0-3.8,1.2-7.1,2-7.1c0.1,0,0.3,0,0.4,0.3c2,4.6,2,9.5,5.1,9.5c2.9,0,3.8-2.7,3.8-6.7c0-8.7-5-23.5-5-26.6
		c-3.1,6-9,29.2-17.2,39.7c0,0-2.9-0.5-2.9-1.6c0-0.1,0-0.3,0.1-0.4c8.9-12.8,18.7-47.5,19.5-56.9C433.3,321.4,439,318.9,441,318.9z
		"/>
</g>
<g>
	<path fill="#BE4727" d="M515.8,386.9c-1.7,0-2-1.3-2-2.3c1.1-15.9,1.6-32.4,1.9-47.2c-6-1.5-11.2-4.4-14.6-9.8c0,0-3.2-4.4-3.9-4.9
		c-0.5-0.3-0.8-0.8-0.8-1.3c0-0.3,0.4-0.7,0.4-1.1V320c-0.5-1.1-0.8-1.6-0.8-2c0-0.4,0.3-0.5,0.5-0.5c0.7,0,1.6,0.5,2.4,0.8
		c5.6,1.9,11.2,3.2,16.8,4.1c0.1-6.6,0.1-12.7,0.1-17.9c0-11,0-18.5,0.1-20.2c0-0.8,0.3-1.5,1.1-1.6c1.3-0.1,11.1-0.7,11.1-0.7
		c0.1,0,0.9,0.1,0.9,0.5c0,3.3-2.3,11-3.7,40.8c1.9,0.1,3.6,0.1,5.3,0.1c22.9,0,41.1-9.1,41.1-28.5c0-16-18.5-23-39-23
		c-25.9,0-55.1,11.1-55.1,29.7c0,1.1,0.4,1.9,0.4,2.9c0,0.5-0.3,0.9-0.5,0.9c-0.3,0-0.5-0.3-0.9-0.7h-1.5c-1.7-0.4-3.6-2-3.6-5.3
		c0-18.9,36-35,67.4-35c24.2,0,45.7,9.6,45.7,35.3c0,19.3-17,39.4-48.1,39.4c-3.7,0-7.8,0-11.6-0.3c-0.4,11.6-0.5,25.7-0.5,42.8
		C516.6,385.5,516.7,386.9,515.8,386.9z"/>
	<path fill="#BE4727" d="M585.9,329.1c2.3,0,4.5-0.1,8.2-0.9c1.6,0,1.6,1.1,1.6,1.1c-3.5,19.4-5.3,27.1-5.3,40.5
		c0,4.5,1.2,6.2,2.9,6.2c2.9,0,7.2-4.8,8.7-8.3c0.3-0.4,0.8-0.8,1.2-0.8c0.4,0,0.7,0.3,0.7,0.8v0.3c-1.5,7.6-7.1,14.6-13.5,14.6
		c-7.5,0-9.8-9.8-9.8-21c0-11.6,2.4-24.7,3.7-30.6C584.3,330.8,584.8,329.1,585.9,329.1z M602.4,299.1c0,5.1-3.9,11.5-8.6,11.5
		c-4.3,0-6.2-3.2-6.2-6.8c0-4.9,3.5-10.8,8.8-10.8C600.8,293,602.4,295.8,602.4,299.1z"/>
	<path fill="#BE4727" d="M623,329.1c6.2,0,12.6-1.3,17-1.3c2.1,0,3.2,0.3,3.6,0.8c1.3,1.3,1.9,2.5,1.9,3.6c0,2.3-2.4,3.9-4.3,5.6
		c-8.3-0.1-30.6,25-34.2,33.6c11.4-2,22.6-3.2,28.1-3.2c3.7,0,6.3,4,7.2,7.5c0.1,0.7,2.7,0.9,2.7,2.7c0-0.1-0.4-0.1-0.9-0.1
		c-5.2,0-31.4,3.5-34.4,4c-0.3,0-0.7,0.1-0.9,0.1c-4.4,0-7.2-5.3-7.2-9.1c0-5.2,23.9-32.2,31.4-35.6c-9,2.5-15.5,3.7-20.2,3.7
		c-6.6,0-9.2-2.3-9.2-6.2c0-2.9,1.6-7,4.3-11.5C611.8,328,617.3,329.1,623,329.1z"/>
	<path fill="#BE4727" d="M681.6,402.8v-0.9c0-16.7-9.4-33.4-27.9-33.4c-4.4,0-7.2-5.3-7.2-9.1c0-5.2,18.1-18.3,25.5-21.7
		c-9,2.5-15.5,3.7-20.2,3.7c-6.6,0-9.2-2.3-9.2-6.2c0-2.9,1.6-7,4.3-11.5c4,4.3,9.5,5.3,15.2,5.3c6.2,0,12.6-1.3,17-1.3
		c2.1,0,3.2,0.3,3.6,0.8c1.5,1.5,2,2.9,2,4.3c0,2.7-2.1,5.1-4,6.8h-0.1c-8.3,0-22.3,8.8-25.9,17.4c1.1-0.1,2.1-0.3,3.1-0.3h0.7
		c19.9,1.7,28.5,18.7,28.5,37c0,2.9-0.3,6.2-0.7,9.1c22.3,1.2,43.1,4.8,69.7,4.8c6,0,11.2-0.5,16.2-2.5c0.8-0.3,1.5-0.4,1.7-0.4
		c0.3,0,0.4,0.1,0.4,0.3c0,1.5-2.9,1.9-3.5,3.6c-2.5,9.1-20.5,11.8-28.2,11.8c-25.1,0-39.2-5.9-58.3-8.7
		c-4.9,16.3-16.2,29.8-31.7,29.8c-11.4,0-16.8-5.9-16.8-13.1c0-11.2,13.4-25.8,38.4-25.8C676.5,402.6,679.1,402.6,681.6,402.8z
		 M643.6,426.4c0,4.8,3.2,8.7,10.3,8.7c15,0,23.8-10.8,26.6-23.9c-5.1-0.5-10.4-0.9-16.6-0.9C651,410.3,643.6,419.2,643.6,426.4z"/>
	<path fill="#BE4727" d="M732.7,345.7c-1.9,14-8.3,37.2-26.6,37.2c-8.3,0-16-6.4-19.8-22.3c-0.5,0-1.1,0-1.6-0.1
		c-0.8-0.1-0.3-1.5-1.7-3.1c-0.1-0.1-0.3-0.3-0.3-0.4c0-0.5,0.9-1.2,1.6-1.2l2,0.4c0.8-16.2,9-33,21.4-33c5.9,0,9.2,5.2,9.2,12
		c0,9.1-6,21-20.1,26.3c1.1,12.8,5.7,17.5,11.4,17.5c13.4,0,18.7-18.9,20.7-34.9c-3.6-2.7-5.3-8-5.3-13c0-5.5,2.1-10.4,6.3-10.4
		c4,0,4.9,2.8,4.9,6.2c0,2.8-0.7,6.2-0.7,8.7c0,2.3,0.3,3.2,1.2,3.2c0.7,0,1.6-0.5,2.9-1.3c4.7-3.1,11.8-10.6,12.8-10.6
		c1.7,0,4.4,3.5,4.4,5.3c0,0.9-0.4,1.7-0.4,1.7s-2.4,6.3-3.3,8.6c-3.1,7.4-4.3,14.7-4.3,20.7c0,11,2.9,17.9,6.4,17.9
		c2.3,0,4.8-3.1,7-9.9c0.3-0.9,0.1-1.5,1.9-2.7c0.4-0.3,0.7-0.4,0.8-0.4c0.3,0,0.4,0.3,0.4,0.5c0,0.3-0.1,0.7-0.1,0.7
		c-0.5,11.1-7.5,18.1-13.9,18.1c-5.8,0-11.1-5.5-11.1-18.6c0-9.6,2.1-20.2,3.3-24.6c-2.1,1.1-5.1,1.6-7.9,1.6
		C733.8,345.8,733.2,345.8,732.7,345.7z M696.7,355.8c9.6-3.5,13.6-13.1,13.6-19.4c0-3.2-1.1-5.6-3.1-5.6
		C701.3,330.8,697,343.9,696.7,355.8z"/>
	<path fill="#BE4727" d="M766.3,329.1c2.3,0,4.5-0.1,8.2-0.9c1.6,0,1.6,1.1,1.6,1.1c-3.5,19.4-5.3,27.1-5.3,40.5
		c0,4.5,1.2,6.2,2.9,6.2c2.9,0,7.2-4.8,8.7-8.3c0.3-0.4,0.8-0.8,1.2-0.8c0.4,0,0.7,0.3,0.7,0.8v0.3c-1.5,7.6-7.1,14.6-13.5,14.6
		c-7.5,0-9.8-9.8-9.8-21c0-11.6,2.4-24.7,3.7-30.6C764.7,330.8,765.2,329.1,766.3,329.1z M782.8,299.1c0,5.1-3.9,11.5-8.6,11.5
		c-4.3,0-6.2-3.2-6.2-6.8c0-4.9,3.5-10.8,8.8-10.8C781.2,293,782.8,295.8,782.8,299.1z"/>
	<path fill="#BE4727" d="M816.7,334.6c0.9-0.3,2-0.4,2.8-0.4c1.2,0,2,0.3,2,1.3c0,17.3,2.9,36.9,14.7,36.9c4.8,0,11-3.2,19.1-11.4
		c1.2-1.2,3.7-3.7,4.7-3.7c0.3,0,0.4,0.1,0.4,0.5c0,0.8-0.7,2.4-2.1,5.5l1.1,2.5c-4.7,13.5-12.8,20.2-21,20.2
		c-10.6,0-20.9-11.1-23.5-32.8c-3.2,13.4-9.5,29.2-17.3,29.2c-9.2,0-13.2-9.8-13.2-21.3c0-16.7,8.3-37.2,21-37.2
		C812.3,324,815.7,328.4,816.7,334.6z M812.3,338.7c-2.3-2.9-4.4-4.3-6.4-4.3c-8.3,0-13.8,21.5-13.8,32.1c0,5.5,1.3,9.4,4,9.4
		C807,375.9,811.1,349.3,812.3,338.7z"/>
</g>
<g>
	<path fill="#FFFFFF" d="M231.1,120.8c-4.3,0-7-1.1-8.3-2.6c-0.2,0.5-0.4,1-0.5,1.3c-0.2,0.9-0.1,2.1-0.9,2.1
		c-1.9,0-3.8-3.8-3.8-5.4c0-5.4,0.5-14.9,1.3-23.8c-9.4-0.7-14.1-5.4-14.1-10.7c0-10.6,12.8-16.6,26.4-16.6
		c15.3,0,31.6,7.7,31.6,25.4C262.7,105.2,251.5,120.8,231.1,120.8z M221.9,74.9c0.9-0.2,1.7-0.4,2.4-0.4c0.1,0,0.1,0.1,0.1,0.3
		c-0.4,4.4-0.7,9.1-0.9,13.8c0.7,0.1,1.4,0.1,2.1,0.1c3.2,0,6.4-0.7,9.5-2.4c0.2,0.2-3.3,5.6-11.8,6.3c-0.2,6.8-0.3,13.4-0.3,19.1
		c0.8-1,1.8-1.8,3.2-2.6c0,0,0.8,0.1,0.8,0.4c-0.4,0.5-1.7,1.8-1.7,3.2c0,1.2,1.3,1.9,4.3,1.9c17.4,0,27-13.4,27-25.8
		c0-13.9-15.2-20.3-28.5-20.3c-10.2,0-19.3,3.8-19.3,11c0,3.7,3.6,7.3,10.5,8.7c0.5-4.8,1.1-9.1,1.7-12.2
		C221.2,75.2,221.4,75,221.9,74.9z"/>
	<path fill="#FFFFFF" d="M266.3,93.3c1,0,2.1-0.1,3.7-0.4c0.7,0,0.7,0.5,0.7,0.5c-1.6,8.8-2.4,12.4-2.4,18.5c0,2.1,0.5,2.8,1.3,2.8
		c1.3,0,3.3-2.2,4-3.8c0.1-0.2,0.4-0.4,0.5-0.4c0.2,0,0.3,0.1,0.3,0.4v0.1c-0.7,3.5-3.2,6.6-6.2,6.6c-3.4,0-4.5-4.5-4.5-9.6
		c0-5.3,1.1-11.3,1.7-14C265.6,94.1,265.8,93.3,266.3,93.3z M273.9,79.7c0,2.3-1.8,5.2-3.9,5.2c-2,0-2.8-1.5-2.8-3.1
		c0-2.3,1.6-4.9,4-4.9C273.1,76.9,273.9,78.1,273.9,79.7z"/>
	<path fill="#FFFFFF" d="M304.2,98.8c0,0,0.2-0.2,0.5-0.2c0.2,0,0.3,0.1,0.3,0.6c0,0.2-0.1,0.5-0.1,1c0.1,0.6,0.5,0.7,0.5,1.3v0.1
		c0,11.8-8.6,17.3-16.8,17.3c-7.4,0-14.5-4.5-14.5-12.7c0-7.4,3.8-15.5,9.8-15.5c2.7,0,4.3,2,4.3,4.8c0,3.8-2.9,9-9.5,12.7
		c0.4,5.1,2.8,7.3,6.2,7.3C291,115.3,300.3,107.8,304.2,98.8z M283.6,94.1c-2.7,0-4.8,6.2-5,11.6c4-3,6.2-7.6,6.2-10
		C284.8,94.7,284.4,94.1,283.6,94.1z"/>
</g>
<g>
	<path fill="#FFFFFF" d="M341.2,68.3c3.5-18.8,28.2-30.1,48.3-30.1c14.3,0,26.4,5.7,26.4,19.1c0,12.3-15.5,25.6-46,25.6
		c-6.7,0-12.7-0.5-18.3-1.3c9.9,21.2,47.6,46,47.6,73.6c0,20.1-17.5,27.4-31.1,27.4c-48.4,0-77.9-51.1-77.6-51.1
		c0.2,0,0.3-1.8,1.4-1.8c1,0,2.5,1.1,5.6,5.3c0,0,1.6,0.2,2.7,0.2l2.7,2.5c17,16.1,42.7,23.9,62,23.9c11,0,20.2-6.1,20.2-17.2
		c0-18.6-37.4-39.2-43.6-64.5c-28.5-6.7-42.7-23.6-42.7-38.4c0-13.7,12.4-25.5,37.1-25.5c5.1,0,13.1,1.1,18.3,3.7l-0.2,0.8
		c0,0-6.2-1.8-14.2-1.8c-22.3,0-33,9.7-33,20.7C307,50.9,318.6,63.8,341.2,68.3z M385.3,43.7c-13.9,0-33.9,9.9-36,25.8
		c3.2,0.3,6.5,0.5,10,0.5c25,0,39.3-9.7,39.3-16.9C398.7,46.6,393,43.7,385.3,43.7z"/>
	<path fill="#FFFFFF" d="M444.5,116c2.9,0.8,6.9,2.1,6.9,4c0,4.6-2.2,19.1-2.2,30.4c0,8.1,1.1,14.5,5.1,14.5c3.5,0,7.8-3.2,9.4-7
		c1.8-0.5,2.1-2.5,2.5-2.5c0.6,0,0.6,1,0.6,1.4c0,8.4-7.5,16.1-14.8,16.1c-6.2,0-12.3-5.4-13.9-19.8c-4.3,11.2-10.4,19.8-16.6,19.8
		c-11,0-15.8-11.6-15.8-25.3c0-19.9,9.9-44.3,25-44.3C439.2,103.3,443.3,108.7,444.5,116z M439,120.8c-2.7-3.5-5.3-5.1-7.6-5.1
		c-9.9,0-16.4,25.6-16.4,38.2c0,6.5,1.6,11.2,4.8,11.2C432.8,165.1,437.6,133.4,439,120.8z"/>
	<path fill="#FFFFFF" d="M491.3,101.5c6.4,0,11.2,4.9,11.9,15.8c0.2,0.8,0.3,1.8,0.3,2.5c0,5.1-4.1,8.9-9.6,8.9
		c-3.3,0-4.6-1.3-4.6-2.1c0-0.3,0.2-0.5,0.5-0.5c1.3-0.2,4.1-6.2,4.1-9.9c0-1.3-0.3-2.2-1.1-2.5c-8.6,0.6-17.8,19.6-17.8,34.6
		c0,12.1,6.7,18.5,12.9,18.5c5.7,0,11.2-5.3,11.2-15.8c0-3.3-0.6-7-1.9-11c0-0.2,0-1,1.9-1c4.6,0,8.1,7,8.1,14.7
		c0,13.7-8.8,20.6-18.5,20.6c-11.6,0-24.5-9.9-24.5-29.3C464.2,125,476,101.5,491.3,101.5z"/>
	<path fill="#FFFFFF" d="M524.6,137.4c0.3,0,0.5-0.2,0.6-0.5c2.1-5.6,14-29,19.4-29c1.6,0,2.9,1.4,2.9,1.4c3.2,0.2,6.2,0.8,6.2,4.1
		c-1.8,12.6-2.7,23.7-2.7,34.6c0,8,0.8,17.2,5.3,17.2c5.3,0,9.9-7.6,11.2-11.9c0,0,0.2-0.6,0.8-0.6c1.3,0,1.6,1.6,1.6,2.4
		c0,5.9-4.3,12.6-8.8,15.8c-2.9,2.1-5.6,2.7-7.8,2.7c-14,0-14.8-22.1-14.8-31.5c0-7.5,0.5-14.7,0.8-19.1c0-0.6-0.2-2.7-0.6-2.7
		c-1,0-8.4,14.3-9.9,17.8c-3.5,8-5.4,18.5-5.4,26.6c0,5.9,0.2,10.7,0.2,10.7c0,1.6-0.3,2.7-1.1,2.7c-0.3,0-0.6-0.2-1.1-0.5
		c-2.7-2.1-8.4-4.9-9.9-6.4c0.3-5.7,2.4-27.6,4.1-51.1h-0.6c-0.6,0-1.1-0.2-1.3-0.3c-1.4-0.6-0.6-1.6-2.1-2.2
		c-1.1,0-1.6-0.3-1.6-0.5c-0.2,0,3.5-0.8,5.9-1.6l0.5-5.7c2.7-39.3,15.1-83,24.2-83c7.8,0,11.3,8.3,11.3,19.9
		c0,20.9-10.8,52.4-26.3,67.1c-0.8,9.6-1.4,18.6-1.4,23.1C524.1,137.2,524.4,137.4,524.6,137.4z M542,46.7
		c-5.4,0-13.2,30.7-15.9,60.4c11.8-14.5,18-41.4,18-53.8C544,49.3,543.2,46.7,542,46.7z"/>
	<path fill="#FFFFFF" d="M645.5,123.7c0,0,0.6-0.6,1.3-0.6c0.5,0,0.8,0.3,0.8,1.6c0,0.6-0.2,1.4-0.3,2.5c0.2,1.6,1.3,1.9,1.3,3.3
		v0.2c0,30.9-22.5,45.1-44,45.1c-19.4,0-37.9-11.6-37.9-33.1c0-19.3,10-40.5,25.5-40.5c7.2,0,11.2,5.3,11.2,12.6
		c0,10-7.5,23.6-24.7,33.1c1,13.4,7.3,19,16.1,19C610.9,166.9,635.1,147.1,645.5,123.7z M591.7,111.4c-7,0-12.4,16.2-13.1,30.4
		c10.4-7.8,16.1-19.8,16.1-26.1C594.7,113,593.7,111.4,591.7,111.4z"/>
</g>
<g>
	<path fill="#FFFFFF" d="M374.5,207.9c0.9,0,4,2,4,3c0,0.2,0,0.3-0.1,0.4c-2.2,4.8-3,12.5-3,17.7c0,5.2,2.6,9.8,7.2,9.8
		c4.4,0,8.5-2.8,11.4-4.9c1-0.8,3-2.1,3.8-2.1c0.2,0,0.3,0.1,0.3,0.3c0,0.4-0.5,1.4-1.9,3.3l0.3,1.7c-3.9,7.2-9.1,10.6-13.8,10.6
		c-12.3,0-14-12.1-14-25c-4.1,4.5-6.2,16.3-8.1,22c-0.1,0.6-0.6,0.9-1.3,0.9c-1.8,0-4.1-2.1-4.1-2.3c0-0.2,0.6-5.8,1.1-12.8
		c0.3-3.7,0.9-10.3,0.9-14.4c0-0.8-0.1-1.2-0.2-1.2c-1.6,0-4.7,29.8-15.4,29.8c-4.8,0-6.3-6.2-6.3-13.5c0-8.6,1.9-21,3.4-21
		c1.5,0,2.9-0.1,5.3-0.6c1,0,1,0.7,1,0.7c-2.2,12.5-3.5,17.5-3.5,26.1c0,2.8,0.7,4,1.6,4c6.3,0,9.2-16.7,11.7-24.3
		c1.4-4.1,2.6-7.2,3.7-7.2c1.6,0,2.7-0.9,3.4-0.9c0.7,0,0.8,3.9,0.8,7.4c0,4.2,0,8.5-0.1,13.6c2.8-6,6-16.1,11-20.9
		C374,208,374.2,207.9,374.5,207.9z M349.6,191c0,3.3-2.5,7.4-5.5,7.4c-2.8,0-4-2.1-4-4.4c0-3.2,2.2-7,5.7-7
		C348.5,187,349.6,188.8,349.6,191z"/>
</g>
<g>
	<path fill="#FFFFFF" d="M442.8,188c0.1,0,0.2,0,0.3,0.1c1.6,1.1,5.1,1,5.1,2.6c0,2.3-4.9,21.8-4.9,37.1c0,7.9,1.3,14.8,5.4,17.2
		c0.2,0.1,0.3,0.3,0.3,0.5c0,0.4-0.3,0.7-0.6,0.7h-0.1c-5.1-1-7.8-5.8-9-12.3c-1.9,6.8-5.4,12.8-9.2,12.8c-5.5,0-7.8-5-7.8-10.9
		c0-8.8,5-19.7,12-19.7c1.9,0,3.3,0.6,4.3,1.6c0.5-10.9,2.5-22.4,3.2-29.1C442.1,188.3,442.4,188,442.8,188z M436.1,220.9
		c-3.2,0-8.9,6.3-8.9,17c0,3.7,1,5.4,2.4,5.4c3.2,0,8.7-8.6,8.7-19.2C438.3,222,437.4,220.9,436.1,220.9z"/>
	<path fill="#FFFFFF" d="M479.7,225.7c-1.2,0.6-2.8,0.9-4.3,0.9c-0.3,0-0.6,0-0.9-0.1c-1,7.7-4.6,20.4-14.6,20.4
		c-4.6,0-8.8-3.5-10.9-12.3c-0.3,0-0.6,0-0.9-0.1c-0.4-0.1-0.1-0.8-1-1.7c-0.1-0.1-0.1-0.1-0.1-0.2c0-0.3,0.5-0.7,0.9-0.7l1.1,0.2
		c0.4-8.9,4.9-18.1,11.7-18.1c3.2,0,5.1,2.9,5.1,6.6c0,5-3.3,11.5-11,14.5c0.6,7,3.2,9.6,6.2,9.6c7.3,0,10.3-10.3,11.4-19.2
		c-2-1.5-2.9-4.4-2.9-7.1c0-3,1.2-5.7,3.4-5.7c2.2,0,2.7,1.5,2.7,3.4c0,1.5-0.4,3.4-0.4,4.8c0,1.2,0.1,1.8,0.7,1.8
		c0.4,0,0.9-0.3,1.6-0.7c2.6-1.7,6.5-5.8,7-5.8c1,0,2.4,1.9,2.4,2.9c0,1.9-1.3,4-2.9,5.4c-0.3,2-0.4,4-0.4,5.8
		c0,6.2,1.6,11.4,6.7,11.4c3.7,0,7.2-2.4,9.7-4.2c0.9-0.7,2.6-1.8,3.2-1.8c0.1,0,0.3,0.1,0.3,0.2c0,0.4-0.4,1.2-1.6,2.9l0.3,1.5
		c-3.3,6.1-7.8,9-11.7,9c-6.5,0-11-6.5-11-17.5c0-1.9,0.1-3.9,0.4-6H479.7z M454.8,232.1c5.3-1.9,7.5-7.2,7.5-10.6
		c0-1.8-0.6-3.1-1.7-3.1C457.3,218.4,454.9,225.6,454.8,232.1z"/>
</g>
<g>
	<path fill="#FFFFFF" d="M70.8,380.3c-7.6,3.7-7.4,5-8.4,5c-1.7,0-2-1.3-2-2.2c1.3-19.7,1.8-40.2,2-57.3l-5.7,1.3
		c-0.9-0.8-2.2-4.8-2.2-7.1c0-0.9,0.3-1.6,0.8-1.6c2.9,0,5,0,7.3-0.1v-13.4c0-10.7,0-18,0.1-19.7c0-0.8,0.3-1.4,1-1.6
		c1.3-0.1,10.8-0.7,10.8-0.7c0.1,0,0.9,0.1,0.9,0.5c0,3.1-2,9.8-3.3,34.2c38.6-5.9,54.1-17.1,54.1-26.5c0-8.9-13.7-16.3-34.6-16.3
		c-29.9,0-75.5,9.7-77.2,37.1c-2.4-3.4-3.5-6.7-3.5-9.8c0-22.5,56.4-36.9,87.6-36.9c27.8,0,43.6,9.3,43.6,20.9
		c0,9.5-10.8,20.6-34.6,29.2c33.2,2.9,48.4,18.8,48.4,34.7c0,17.8-18.9,35.6-52.7,35.6c-13.7,0-27.3-5.5-32.5-15.1V380.3z
		 M76.3,354.8c0,1.2-0.3,2.4-0.3,2.4c8.1,11.9,22.5,12.3,32.5,12.3c20.2,0,35.8-13.8,35.8-26.9c0-14.4-18.5-21.9-42.8-21.9
		c-9.3,0-19.5,1.2-29.6,3.4c-0.4,8.4-0.8,18.9-0.9,31.2c1.3-1.6,2.9-3.4,3.7-3.4C76,351.8,76.3,353.9,76.3,354.8z"/>
	<path fill="#FFFFFF" d="M191.8,334.3c2.4,0.7,5.6,1.7,5.6,3.3c0,3.8-1.8,15.7-1.8,24.9c0,6.7,0.9,11.9,4.2,11.9
		c2.9,0,6.4-2.6,7.7-5.7c1.4-0.4,1.7-2.1,2.1-2.1c0.5,0,0.5,0.8,0.5,1.2c0,6.9-6.1,13.2-12.1,13.2c-5.1,0-10.1-4.4-11.4-16.2
		c-3.5,9.1-8.5,16.2-13.6,16.2c-9,0-12.9-9.5-12.9-20.8c0-16.3,8.1-36.3,20.5-36.3C187.5,323.9,190.9,328.3,191.8,334.3z
		 M187.4,338.2c-2.2-2.9-4.3-4.2-6.3-4.2c-8.1,0-13.4,21-13.4,31.3c0,5.4,1.3,9.1,3.9,9.1C182.3,374.5,186.2,348.5,187.4,338.2z"/>
	<path fill="#FFFFFF" d="M216,351.8c0.3,0,0.4-0.1,0.5-0.4c1.7-4.6,11.5-23.8,15.9-23.8c1.3,0,2.4,1.2,2.4,1.2
		c2.6,0.1,5.1,0.7,5.1,3.4c-1.4,10.3-2.2,19.5-2.2,28.3c0,6.5,0.7,14.1,4.3,14.1c4.3,0,8.1-6.3,9.1-9.8c0,0,0.1-0.5,0.7-0.5
		c1,0,1.3,1.3,1.3,2c0,4.8-3.5,10.3-7.2,12.9c-2.4,1.7-4.6,2.2-6.4,2.2c-11.5,0-12.1-18.1-12.1-25.9c0-6.1,0.4-12,0.7-15.7
		c0-0.5-0.1-2.2-0.5-2.2c-0.8,0-6.9,11.8-8.1,14.6c-2.9,6.5-4.4,15.1-4.4,21.8c0,4.8,0.1,8.7,0.1,8.7c0,1.3-0.3,2.2-0.9,2.2
		c-0.3,0-0.5-0.1-0.9-0.4c-2.2-1.7-6.9-4-8.1-5.2c0.3-4.7,2-22.6,3.4-41.9H208c-0.5,0-0.9-0.1-1-0.3c-1.2-0.5-0.5-1.3-1.7-1.8
		c-0.9,0-1.3-0.3-1.3-0.4c-0.1,0,2.9-0.7,4.8-1.3l0.4-4.7c2.2-32.2,12.4-68,19.8-68c6.4,0,9.3,6.8,9.3,16.3c0,17.1-8.9,43-21.5,55
		c-0.7,7.8-1.2,15.3-1.2,18.9C215.6,351.7,215.9,351.8,216,351.8z M230.2,277.5c-4.4,0-10.8,25.2-13.1,49.5
		c9.7-11.9,14.8-33.9,14.8-44.1C231.9,279.6,231.3,277.5,230.2,277.5z"/>
	<path fill="#FFFFFF" d="M248.6,338c-0.7,0-1.3-0.4-1.3-1.3c0-0.1,0-0.3,0.1-0.5c4.3-5.4,9.5-9.4,13.8-9.4c5.9,0,7.2,6.3,7.2,13.4
		c0,6-0.9,12.7-1,17c4.2-9.1,9-24.4,16.6-31.6c0.4-0.3,0.7-0.4,1-0.4c1.4,0,6,3,6,4.6c0,0.3,0,0.4-0.1,0.7
		c-3.3,7.3-4.6,18.9-4.6,26.8c0,7.6,2.3,13.1,6.3,13.1c1.7,0,3.7-1,5.9-3.4c0,0,0.3-0.1,0.5-0.1c0.3,0,0.4,0.1,0.4,0.4
		c0,5.4-5.5,10.6-10.7,10.6c-11.4,0-12.3-23.5-12.3-30c-6.3,6.8-9.4,24.7-12.3,33.3c0,0.9-0.9,1.3-2,1.3c-1.4,0-3.4-0.8-3.7-1.6
		c-0.5-1.3-2.5-0.5-2.5-2c0-0.3,0-0.8,0.1-1.2c0.5-2.6,0.9-9.8,1.6-18.1c0.4-5.6,1.3-15.5,1.3-21.8c0-3.9-0.9-5.4-2.4-5.4
		c-2,0-4.7,2.6-7.1,5.4C249.4,337.8,249,338,248.6,338z"/>
	<path fill="#FFFFFF" d="M307.8,351.8c0.3,0,0.4-0.1,0.5-0.4c1.7-4.6,11.5-23.8,15.9-23.8c1.3,0,2.4,1.2,2.4,1.2
		c2.6,0.1,5.1,0.7,5.1,3.4c-1.4,10.3-2.2,19.5-2.2,28.3c0,6.5,0.7,14.1,4.3,14.1c4.3,0,8.1-6.3,9.1-9.8c0,0,0.1-0.5,0.7-0.5
		c1,0,1.3,1.3,1.3,2c0,4.8-3.5,10.3-7.2,12.9c-2.4,1.7-4.6,2.2-6.4,2.2c-11.5,0-12.1-18.1-12.1-25.9c0-6.1,0.4-12,0.7-15.7
		c0-0.5-0.1-2.2-0.5-2.2c-0.8,0-6.9,11.8-8.1,14.6c-2.9,6.5-4.4,15.1-4.4,21.8c0,4.8,0.1,8.7,0.1,8.7c0,1.3-0.3,2.2-0.9,2.2
		c-0.3,0-0.5-0.1-0.9-0.4c-2.2-1.7-6.9-4-8.1-5.2c0.3-4.7,2-22.6,3.4-41.9h-0.5c-0.5,0-0.9-0.1-1-0.3c-1.2-0.5-0.5-1.3-1.7-1.8
		c-0.9,0-1.3-0.3-1.3-0.4c-0.1,0,2.9-0.7,4.8-1.3l0.4-4.7c2.2-32.2,12.4-68,19.8-68c6.4,0,9.3,6.8,9.3,16.3c0,17.1-8.9,43-21.5,55
		c-0.7,7.8-1.2,15.3-1.2,18.9C307.4,351.7,307.7,351.8,307.8,351.8z M322,277.5c-4.4,0-10.8,25.2-13.1,49.5
		c9.7-11.9,14.8-33.9,14.8-44.1C323.7,279.6,323.1,277.5,322,277.5z"/>
	<path fill="#FFFFFF" d="M384.2,338.5c1.4,0,2.9,0,4.3-0.1c0.4-0.7,0.7-1.7,0.7-2.2c0,0,1.2-2.9,4.8-62.7c0-0.7,0-1.3,0.3-1.3
		c0.7,0,1,0,1.4,0.4c1,1.6,4.8,7.1,6.1,8.5c0.8,0.9,1.2,1.8,1.2,3c0,0.4,0,0.9-0.1,1.4c-2.6,18-4.8,35.6-6.8,52
		c4.3-0.5,8.5-1.3,12.5-1.6c3.5,0,7.2,3.9,9.7,7.6c0.7,0.9,2.9,0.5,2.9,1.7c0,0.4-0.1,0.9-0.8,1.2c-2.1,1-12.4,1.8-18.9,1.8
		c-1.3,0-2.4-0.1-3.3-0.1c-1,0-1.2,1.2-1.2,1.2c7.2,11.6,11,33.9,11,53.9c0,21.9-4.6,41.3-14,41.3c-9.9,0-12.9-9.9-12.9-24.2
		c0-20.6,6.3-50.5,6.8-71.8c0,0-0.1-2.5-2.1-2.7c-3.5-0.5-6-1-7.7-1.6c0.1,1.3,0.1,2.6,0.1,3.9c0,14.8-7.8,31.3-19.2,31.3
		c-11.6,0-16.5-10.6-16.5-22.6c0-15.9,8.5-34.6,20.9-34.6c10.1,0,10.8,7.1,10.8,9.5v0.9c-2.1-0.9-4-1.3-5.9-1.3
		c-11.4,0-16.8,16.1-16.8,28.9c0,8.5,2.3,15.4,7.1,15.4c6.1,0,10.4-12.7,10.4-23.4c0-6.3-1.4-11.7-4.8-13.7c0,0,4.3-2.2,7.3-3.3
		C378,338.2,381,338.5,384.2,338.5z M393.6,359.8c-3.3,30.3-5.1,53.5-5.1,61.6c0,11.1,0.9,15.8,2.1,15.8c2.6,0,7.4-26.2,7.4-49.4
		C398,376.5,396.8,365.9,393.6,359.8z"/>
	<path fill="#FFFFFF" d="M439,316.9c0.4,0,1,0.1,1,0.7c0,0.1-2,8.6-2,18.7c0,9.4,7.7,23.8,7.7,34.5c0,7.8-5.6,11.9-11,11.9
		c-4.8,0-9.5-3.4-9.5-10.6c0-3.8,1.2-7.1,2-7.1c0.1,0,0.3,0,0.4,0.3c2,4.6,2,9.5,5.1,9.5c2.9,0,3.8-2.7,3.8-6.7c0-8.7-5-23.5-5-26.6
		c-3.1,6-9,29.2-17.2,39.7c0,0-2.9-0.5-2.9-1.6c0-0.1,0-0.3,0.1-0.4c8.9-12.8,18.7-47.5,19.5-56.9C431.3,319.4,437,316.9,439,316.9z
		"/>
</g>
<g>
	<path fill="#FFFFFF" d="M513.6,384.6c-1.7,0-2-1.3-2-2.3c1.1-15.9,1.6-32.4,1.9-47.2c-6-1.5-11.2-4.4-14.6-9.8c0,0-3.2-4.4-3.9-4.9
		c-0.5-0.3-0.8-0.8-0.8-1.3c0-0.3,0.4-0.7,0.4-1.1v-0.3c-0.5-1.1-0.8-1.6-0.8-2c0-0.4,0.3-0.5,0.5-0.5c0.7,0,1.6,0.5,2.4,0.8
		c5.6,1.9,11.2,3.2,16.8,4.1c0.1-6.6,0.1-12.7,0.1-17.9c0-11,0-18.5,0.1-20.2c0-0.8,0.3-1.5,1.1-1.6c1.3-0.1,11.1-0.7,11.1-0.7
		c0.1,0,0.9,0.1,0.9,0.5c0,3.3-2.3,11-3.7,40.8c1.9,0.1,3.6,0.1,5.3,0.1c22.9,0,41.1-9.1,41.1-28.5c0-16-18.5-23-39-23
		c-25.9,0-55.1,11.1-55.1,29.7c0,1.1,0.4,1.9,0.4,2.9c0,0.5-0.3,0.9-0.5,0.9c-0.3,0-0.5-0.3-0.9-0.7h-1.5c-1.7-0.4-3.6-2-3.6-5.3
		c0-18.9,36-35,67.4-35c24.2,0,45.7,9.6,45.7,35.3c0,19.3-17,39.4-48.1,39.4c-3.7,0-7.8,0-11.6-0.3c-0.4,11.6-0.5,25.7-0.5,42.8
		C514.4,383.3,514.5,384.6,513.6,384.6z"/>
	<path fill="#FFFFFF" d="M583.6,326.9c2.3,0,4.5-0.1,8.2-0.9c1.6,0,1.6,1.1,1.6,1.1c-3.5,19.4-5.3,27.1-5.3,40.5
		c0,4.5,1.2,6.2,2.9,6.2c2.9,0,7.2-4.8,8.7-8.3c0.3-0.4,0.8-0.8,1.2-0.8c0.4,0,0.7,0.3,0.7,0.8v0.3c-1.5,7.6-7.1,14.6-13.5,14.6
		c-7.5,0-9.8-9.8-9.8-21c0-11.6,2.4-24.7,3.7-30.6C582,328.6,582.6,326.9,583.6,326.9z M600.2,296.9c0,5.1-3.9,11.5-8.6,11.5
		c-4.3,0-6.2-3.2-6.2-6.8c0-4.9,3.5-10.8,8.8-10.8C598.6,290.8,600.2,293.6,600.2,296.9z"/>
	<path fill="#FFFFFF" d="M620.8,326.9c6.2,0,12.6-1.3,17-1.3c2.1,0,3.2,0.3,3.6,0.8c1.3,1.3,1.9,2.5,1.9,3.6c0,2.3-2.4,3.9-4.3,5.6
		c-8.3-0.1-30.6,25-34.2,33.6c11.4-2,22.6-3.2,28.1-3.2c3.7,0,6.3,4,7.2,7.5c0.1,0.7,2.7,0.9,2.7,2.7c0-0.1-0.4-0.1-0.9-0.1
		c-5.2,0-31.4,3.5-34.4,4c-0.3,0-0.7,0.1-0.9,0.1c-4.4,0-7.2-5.3-7.2-9.1c0-5.2,23.9-32.2,31.4-35.6c-9,2.5-15.5,3.7-20.2,3.7
		c-6.6,0-9.2-2.3-9.2-6.2c0-2.9,1.6-7,4.3-11.5C609.6,325.8,615.1,326.9,620.8,326.9z"/>
	<path fill="#FFFFFF" d="M679.4,400.5v-0.9c0-16.7-9.4-33.4-27.9-33.4c-4.4,0-7.2-5.3-7.2-9.1c0-5.2,18.1-18.3,25.5-21.7
		c-9,2.5-15.5,3.7-20.2,3.7c-6.6,0-9.2-2.3-9.2-6.2c0-2.9,1.6-7,4.3-11.5c4,4.3,9.5,5.3,15.2,5.3c6.2,0,12.6-1.3,17-1.3
		c2.1,0,3.2,0.3,3.6,0.8c1.5,1.5,2,2.9,2,4.3c0,2.7-2.1,5.1-4,6.8h-0.1c-8.3,0-22.3,8.8-25.9,17.4c1.1-0.1,2.1-0.3,3.1-0.3h0.7
		c19.9,1.7,28.5,18.7,28.5,37c0,2.9-0.3,6.2-0.7,9.1c22.3,1.2,43.1,4.8,69.7,4.8c6,0,11.2-0.5,16.2-2.5c0.8-0.3,1.5-0.4,1.7-0.4
		c0.3,0,0.4,0.1,0.4,0.3c0,1.5-2.9,1.9-3.5,3.6c-2.5,9.1-20.5,11.8-28.2,11.8c-25.1,0-39.2-5.9-58.3-8.7
		c-4.9,16.3-16.2,29.8-31.7,29.8c-11.4,0-16.8-5.9-16.8-13.1c0-11.2,13.4-25.8,38.4-25.8C674.3,400.4,676.8,400.4,679.4,400.5z
		 M641.4,424.2c0,4.8,3.2,8.7,10.3,8.7c15,0,23.8-10.8,26.6-23.9c-5.1-0.5-10.4-0.9-16.6-0.9C648.8,408,641.4,417,641.4,424.2z"/>
	<path fill="#FFFFFF" d="M730.5,343.4c-1.9,14-8.3,37.2-26.6,37.2c-8.3,0-16-6.4-19.8-22.3c-0.5,0-1.1,0-1.6-0.1
		c-0.8-0.1-0.3-1.5-1.7-3.1c-0.1-0.1-0.3-0.3-0.3-0.4c0-0.5,0.9-1.2,1.6-1.2l2,0.4c0.8-16.2,9-33,21.4-33c5.9,0,9.2,5.2,9.2,12
		c0,9.1-6,21-20.1,26.3c1.1,12.8,5.7,17.5,11.4,17.5c13.4,0,18.7-18.9,20.7-34.9c-3.6-2.7-5.3-8-5.3-13c0-5.5,2.1-10.4,6.3-10.4
		c4,0,4.9,2.8,4.9,6.2c0,2.8-0.7,6.2-0.7,8.7c0,2.3,0.3,3.2,1.2,3.2c0.7,0,1.6-0.5,2.9-1.3c4.7-3.1,11.8-10.6,12.8-10.6
		c1.7,0,4.4,3.5,4.4,5.3c0,0.9-0.4,1.7-0.4,1.7s-2.4,6.3-3.3,8.6c-3.1,7.4-4.3,14.7-4.3,20.7c0,11,2.9,17.9,6.4,17.9
		c2.3,0,4.8-3.1,7-9.9c0.3-0.9,0.1-1.5,1.9-2.7c0.4-0.3,0.7-0.4,0.8-0.4c0.3,0,0.4,0.3,0.4,0.5c0,0.3-0.1,0.7-0.1,0.7
		c-0.5,11.1-7.5,18.1-13.9,18.1c-5.8,0-11.1-5.5-11.1-18.6c0-9.6,2.1-20.2,3.3-24.6c-2.1,1.1-5.1,1.6-7.9,1.6
		C731.5,343.6,731,343.6,730.5,343.4z M694.5,353.6c9.6-3.5,13.6-13.1,13.6-19.4c0-3.2-1.1-5.6-3.1-5.6
		C699,328.6,694.8,341.7,694.5,353.6z"/>
	<path fill="#FFFFFF" d="M764,326.9c2.3,0,4.5-0.1,8.2-0.9c1.6,0,1.6,1.1,1.6,1.1c-3.5,19.4-5.3,27.1-5.3,40.5
		c0,4.5,1.2,6.2,2.9,6.2c2.9,0,7.2-4.8,8.7-8.3c0.3-0.4,0.8-0.8,1.2-0.8c0.4,0,0.7,0.3,0.7,0.8v0.3c-1.5,7.6-7.1,14.6-13.5,14.6
		c-7.5,0-9.8-9.8-9.8-21c0-11.6,2.4-24.7,3.7-30.6C762.4,328.6,763,326.9,764,326.9z M780.6,296.9c0,5.1-3.9,11.5-8.6,11.5
		c-4.3,0-6.2-3.2-6.2-6.8c0-4.9,3.5-10.8,8.8-10.8C779,290.8,780.6,293.6,780.6,296.9z"/>
	<path fill="#FFFFFF" d="M814.4,332.3c0.9-0.3,2-0.4,2.8-0.4c1.2,0,2,0.3,2,1.3c0,17.3,2.9,36.9,14.7,36.9c4.8,0,11-3.2,19.1-11.4
		c1.2-1.2,3.7-3.7,4.7-3.7c0.3,0,0.4,0.1,0.4,0.5c0,0.8-0.7,2.4-2.1,5.5l1.1,2.5c-4.7,13.5-12.8,20.2-21,20.2
		c-10.6,0-20.9-11.1-23.5-32.8c-3.2,13.4-9.5,29.2-17.3,29.2c-9.2,0-13.2-9.8-13.2-21.3c0-16.7,8.3-37.2,21-37.2
		C810,321.8,813.5,326.2,814.4,332.3z M810,336.5c-2.3-2.9-4.4-4.3-6.4-4.3c-8.3,0-13.8,21.5-13.8,32.1c0,5.5,1.3,9.4,4,9.4
		C804.8,373.7,808.8,347.1,810,336.5z"/>
</g>
<g>
	<path d="M229.1,118.8c-4.3,0-7-1.1-8.3-2.6c-0.2,0.5-0.4,1-0.5,1.3c-0.2,0.9-0.1,2.1-0.9,2.1c-1.9,0-3.8-3.8-3.8-5.4
		c0-5.4,0.5-14.9,1.3-23.8c-9.4-0.7-14.1-5.4-14.1-10.7c0-10.6,12.8-16.6,26.4-16.6c15.3,0,31.6,7.7,31.6,25.4
		C260.7,103.2,249.5,118.8,229.1,118.8z M219.9,72.9c0.9-0.2,1.7-0.4,2.4-0.4c0.1,0,0.1,0.1,0.1,0.3c-0.4,4.4-0.7,9.1-0.9,13.8
		c0.7,0.1,1.4,0.1,2.1,0.1c3.2,0,6.4-0.7,9.5-2.4c0.2,0.2-3.3,5.6-11.8,6.3c-0.2,6.8-0.3,13.4-0.3,19.1c0.8-1,1.8-1.8,3.2-2.6
		c0,0,0.8,0.1,0.8,0.4c-0.4,0.5-1.7,1.8-1.7,3.2c0,1.2,1.3,1.9,4.3,1.9c17.4,0,27-13.4,27-25.8c0-13.9-15.2-20.3-28.5-20.3
		c-10.2,0-19.3,3.8-19.3,11c0,3.7,3.6,7.3,10.5,8.7c0.5-4.8,1.1-9.1,1.7-12.2C219.2,73.2,219.4,73,219.9,72.9z"/>
	<path d="M264.3,91.3c1,0,2.1-0.1,3.7-0.4c0.7,0,0.7,0.5,0.7,0.5c-1.6,8.8-2.4,12.4-2.4,18.5c0,2.1,0.5,2.8,1.3,2.8
		c1.3,0,3.3-2.2,4-3.8c0.1-0.2,0.4-0.4,0.5-0.4c0.2,0,0.3,0.1,0.3,0.4v0.1c-0.7,3.5-3.2,6.6-6.2,6.6c-3.4,0-4.5-4.5-4.5-9.6
		c0-5.3,1.1-11.3,1.7-14C263.6,92.1,263.8,91.3,264.3,91.3z M271.9,77.7c0,2.3-1.8,5.2-3.9,5.2c-2,0-2.8-1.5-2.8-3.1
		c0-2.3,1.6-4.9,4-4.9C271.1,74.9,271.9,76.1,271.9,77.7z"/>
	<path d="M302.2,96.8c0,0,0.2-0.2,0.5-0.2c0.2,0,0.3,0.1,0.3,0.6c0,0.2-0.1,0.5-0.1,1c0.1,0.6,0.5,0.7,0.5,1.3v0.1
		c0,11.8-8.6,17.3-16.8,17.3c-7.4,0-14.5-4.5-14.5-12.7c0-7.4,3.8-15.5,9.8-15.5c2.7,0,4.3,2,4.3,4.8c0,3.8-2.9,9-9.5,12.7
		c0.4,5.1,2.8,7.3,6.2,7.3C289,113.3,298.3,105.8,302.2,96.8z M281.6,92.1c-2.7,0-4.8,6.2-5,11.6c4-3,6.2-7.6,6.2-10
		C282.8,92.7,282.4,92.1,281.6,92.1z"/>
</g>
<g>
	<path d="M339.2,66.3c3.5-18.8,28.2-30.1,48.3-30.1c14.3,0,26.4,5.7,26.4,19.1c0,12.3-15.5,25.6-46,25.6c-6.7,0-12.7-0.5-18.3-1.3
		c9.9,21.2,47.6,46,47.6,73.6c0,20.1-17.5,27.4-31.1,27.4c-48.4,0-77.9-51.1-77.6-51.1c0.2,0,0.3-1.8,1.4-1.8c1,0,2.5,1.1,5.6,5.3
		c0,0,1.6,0.2,2.7,0.2l2.7,2.5c17,16.1,42.7,23.9,62,23.9c11,0,20.2-6.1,20.2-17.2c0-18.6-37.4-39.2-43.6-64.5
		c-28.5-6.7-42.7-23.6-42.7-38.4c0-13.7,12.4-25.5,37.1-25.5c5.1,0,13.1,1.1,18.3,3.7l-0.2,0.8c0,0-6.2-1.8-14.2-1.8
		c-22.3,0-33,9.7-33,20.7C305,48.9,316.6,61.8,339.2,66.3z M383.3,41.7c-13.9,0-33.9,9.9-36,25.8c3.2,0.3,6.5,0.5,10,0.5
		c25,0,39.3-9.7,39.3-16.9C396.7,44.6,391,41.7,383.3,41.7z"/>
	<path d="M442.5,114c2.9,0.8,6.9,2.1,6.9,4c0,4.6-2.2,19.1-2.2,30.4c0,8.1,1.1,14.5,5.1,14.5c3.5,0,7.8-3.2,9.4-7
		c1.8-0.5,2.1-2.5,2.5-2.5c0.6,0,0.6,1,0.6,1.4c0,8.4-7.5,16.1-14.8,16.1c-6.2,0-12.3-5.4-13.9-19.8c-4.3,11.2-10.4,19.8-16.6,19.8
		c-11,0-15.8-11.6-15.8-25.3c0-19.9,9.9-44.3,25-44.3C437.2,101.3,441.3,106.7,442.5,114z M437,118.8c-2.7-3.5-5.3-5.1-7.6-5.1
		c-9.9,0-16.4,25.6-16.4,38.2c0,6.5,1.6,11.2,4.8,11.2C430.8,163.1,435.6,131.4,437,118.8z"/>
	<path d="M489.3,99.5c6.4,0,11.2,4.9,11.9,15.8c0.2,0.8,0.3,1.8,0.3,2.5c0,5.1-4.1,8.9-9.6,8.9c-3.3,0-4.6-1.3-4.6-2.1
		c0-0.3,0.2-0.5,0.5-0.5c1.3-0.2,4.1-6.2,4.1-9.9c0-1.3-0.3-2.2-1.1-2.5c-8.6,0.6-17.8,19.6-17.8,34.6c0,12.1,6.7,18.5,12.9,18.5
		c5.7,0,11.2-5.3,11.2-15.8c0-3.3-0.6-7-1.9-11c0-0.2,0-1,1.9-1c4.6,0,8.1,7,8.1,14.7c0,13.7-8.8,20.6-18.5,20.6
		c-11.6,0-24.5-9.9-24.5-29.3C462.2,123,474,99.5,489.3,99.5z"/>
	<path d="M522.6,135.4c0.3,0,0.5-0.2,0.6-0.5c2.1-5.6,14-29,19.4-29c1.6,0,2.9,1.4,2.9,1.4c3.2,0.2,6.2,0.8,6.2,4.1
		c-1.8,12.6-2.7,23.7-2.7,34.6c0,8,0.8,17.2,5.3,17.2c5.3,0,9.9-7.6,11.2-11.9c0,0,0.2-0.6,0.8-0.6c1.3,0,1.6,1.6,1.6,2.4
		c0,5.9-4.3,12.6-8.8,15.8c-2.9,2.1-5.6,2.7-7.8,2.7c-14,0-14.8-22.1-14.8-31.5c0-7.5,0.5-14.7,0.8-19.1c0-0.6-0.2-2.7-0.6-2.7
		c-1,0-8.4,14.3-9.9,17.8c-3.5,8-5.4,18.5-5.4,26.6c0,5.9,0.2,10.7,0.2,10.7c0,1.6-0.3,2.7-1.1,2.7c-0.3,0-0.6-0.2-1.1-0.5
		c-2.7-2.1-8.4-4.9-9.9-6.4c0.3-5.7,2.4-27.6,4.1-51.1h-0.6c-0.6,0-1.1-0.2-1.3-0.3c-1.4-0.6-0.6-1.6-2.1-2.2
		c-1.1,0-1.6-0.3-1.6-0.5c-0.2,0,3.5-0.8,5.9-1.6l0.5-5.7c2.7-39.3,15.1-83,24.2-83c7.8,0,11.3,8.3,11.3,19.9
		c0,20.9-10.8,52.4-26.3,67.1c-0.8,9.6-1.4,18.6-1.4,23.1C522.1,135.2,522.4,135.4,522.6,135.4z M540,44.7
		c-5.4,0-13.2,30.7-15.9,60.4c11.8-14.5,18-41.4,18-53.8C542,47.3,541.2,44.7,540,44.7z"/>
	<path d="M643.5,121.7c0,0,0.6-0.6,1.3-0.6c0.5,0,0.8,0.3,0.8,1.6c0,0.6-0.2,1.4-0.3,2.5c0.2,1.6,1.3,1.9,1.3,3.3v0.2
		c0,30.9-22.5,45.1-44,45.1c-19.4,0-37.9-11.6-37.9-33.1c0-19.3,10-40.5,25.5-40.5c7.2,0,11.2,5.3,11.2,12.6
		c0,10-7.5,23.6-24.7,33.1c1,13.4,7.3,19,16.1,19C608.9,164.9,633.1,145.1,643.5,121.7z M589.7,109.4c-7,0-12.4,16.2-13.1,30.4
		c10.4-7.8,16.1-19.8,16.1-26.1C592.7,111,591.7,109.4,589.7,109.4z"/>
</g>
<g>
	<path d="M372.5,205.9c0.9,0,4,2,4,3c0,0.2,0,0.3-0.1,0.4c-2.2,4.8-3,12.5-3,17.7c0,5.2,2.6,9.8,7.2,9.8c4.4,0,8.5-2.8,11.4-4.9
		c1-0.8,3-2.1,3.8-2.1c0.2,0,0.3,0.1,0.3,0.3c0,0.4-0.5,1.4-1.9,3.3l0.3,1.7c-3.9,7.2-9.1,10.6-13.8,10.6c-12.3,0-14-12.1-14-25
		c-4.1,4.5-6.2,16.3-8.1,22c-0.1,0.6-0.6,0.9-1.3,0.9c-1.8,0-4.1-2.1-4.1-2.3c0-0.2,0.6-5.8,1.1-12.8c0.3-3.7,0.9-10.3,0.9-14.4
		c0-0.8-0.1-1.2-0.2-1.2c-1.6,0-4.7,29.8-15.4,29.8c-4.8,0-6.3-6.2-6.3-13.5c0-8.6,1.9-21,3.4-21c1.5,0,2.9-0.1,5.3-0.6
		c1,0,1,0.7,1,0.7c-2.2,12.5-3.5,17.5-3.5,26.1c0,2.8,0.7,4,1.6,4c6.3,0,9.2-16.7,11.7-24.3c1.4-4.1,2.6-7.2,3.7-7.2
		c1.6,0,2.7-0.9,3.4-0.9c0.7,0,0.8,3.9,0.8,7.4c0,4.2,0,8.5-0.1,13.6c2.8-6,6-16.1,11-20.9C372,206,372.2,205.9,372.5,205.9z
		 M347.6,189c0,3.3-2.5,7.4-5.5,7.4c-2.8,0-4-2.1-4-4.4c0-3.2,2.2-7,5.7-7C346.5,185,347.6,186.8,347.6,189z"/>
</g>
<g>
	<path d="M440.8,186c0.1,0,0.2,0,0.3,0.1c1.6,1.1,5.1,1,5.1,2.6c0,2.3-4.9,21.8-4.9,37.1c0,7.9,1.3,14.8,5.4,17.2
		c0.2,0.1,0.3,0.3,0.3,0.5c0,0.4-0.3,0.7-0.6,0.7h-0.1c-5.1-1-7.8-5.8-9-12.3c-1.9,6.8-5.4,12.8-9.2,12.8c-5.5,0-7.8-5-7.8-10.9
		c0-8.8,5-19.7,12-19.7c1.9,0,3.3,0.6,4.3,1.6c0.5-10.9,2.5-22.4,3.2-29.1C440.1,186.3,440.4,186,440.8,186z M434.1,218.9
		c-3.2,0-8.9,6.3-8.9,17c0,3.7,1,5.4,2.4,5.4c3.2,0,8.7-8.6,8.7-19.2C436.3,220,435.4,218.9,434.1,218.9z"/>
	<path d="M477.7,223.7c-1.2,0.6-2.8,0.9-4.3,0.9c-0.3,0-0.6,0-0.9-0.1c-1,7.7-4.6,20.4-14.6,20.4c-4.6,0-8.8-3.5-10.9-12.3
		c-0.3,0-0.6,0-0.9-0.1c-0.4-0.1-0.1-0.8-1-1.7c-0.1-0.1-0.1-0.1-0.1-0.2c0-0.3,0.5-0.7,0.9-0.7l1.1,0.2c0.4-8.9,4.9-18.1,11.7-18.1
		c3.2,0,5.1,2.9,5.1,6.6c0,5-3.3,11.5-11,14.5c0.6,7,3.2,9.6,6.2,9.6c7.3,0,10.3-10.3,11.4-19.2c-2-1.5-2.9-4.4-2.9-7.1
		c0-3,1.2-5.7,3.4-5.7c2.2,0,2.7,1.5,2.7,3.4c0,1.5-0.4,3.4-0.4,4.8c0,1.2,0.1,1.8,0.7,1.8c0.4,0,0.9-0.3,1.6-0.7
		c2.6-1.7,6.5-5.8,7-5.8c1,0,2.4,1.9,2.4,2.9c0,1.9-1.3,4-2.9,5.4c-0.3,2-0.4,4-0.4,5.8c0,6.2,1.6,11.4,6.7,11.4
		c3.7,0,7.2-2.4,9.7-4.2c0.9-0.7,2.6-1.8,3.2-1.8c0.1,0,0.3,0.1,0.3,0.2c0,0.4-0.4,1.2-1.6,2.9l0.3,1.5c-3.3,6.1-7.8,9-11.7,9
		c-6.5,0-11-6.5-11-17.5c0-1.9,0.1-3.9,0.4-6H477.7z M452.8,230.1c5.3-1.9,7.5-7.2,7.5-10.6c0-1.8-0.6-3.1-1.7-3.1
		C455.3,216.4,452.9,223.6,452.8,230.1z"/>
</g>
<g>
	<path d="M68.8,378.3c-7.6,3.7-7.4,5-8.4,5c-1.7,0-2-1.3-2-2.2c1.3-19.7,1.8-40.2,2-57.3l-5.7,1.3c-0.9-0.8-2.2-4.8-2.2-7.1
		c0-0.9,0.3-1.6,0.8-1.6c2.9,0,5,0,7.3-0.1v-13.4c0-10.7,0-18,0.1-19.7c0-0.8,0.3-1.4,1-1.6c1.3-0.1,10.8-0.7,10.8-0.7
		c0.1,0,0.9,0.1,0.9,0.5c0,3.1-2,9.8-3.3,34.2c38.6-5.9,54.1-17.1,54.1-26.5c0-8.9-13.7-16.3-34.6-16.3c-29.9,0-75.5,9.7-77.2,37.1
		c-2.4-3.4-3.5-6.7-3.5-9.8c0-22.5,56.4-36.9,87.6-36.9c27.8,0,43.6,9.3,43.6,20.9c0,9.5-10.8,20.6-34.6,29.2
		c33.2,2.9,48.4,18.8,48.4,34.7c0,17.8-18.9,35.6-52.7,35.6c-13.7,0-27.3-5.5-32.5-15.1V378.3z M74.3,352.8c0,1.2-0.3,2.4-0.3,2.4
		c8.1,11.9,22.5,12.3,32.5,12.3c20.2,0,35.8-13.8,35.8-26.9c0-14.4-18.5-21.9-42.8-21.9c-9.3,0-19.5,1.2-29.6,3.4
		c-0.4,8.4-0.8,18.9-0.9,31.2c1.3-1.6,2.9-3.4,3.7-3.4C74,349.8,74.3,351.9,74.3,352.8z"/>
	<path d="M189.8,332.3c2.4,0.7,5.6,1.7,5.6,3.3c0,3.8-1.8,15.7-1.8,24.9c0,6.7,0.9,11.9,4.2,11.9c2.9,0,6.4-2.6,7.7-5.7
		c1.4-0.4,1.7-2.1,2.1-2.1c0.5,0,0.5,0.8,0.5,1.2c0,6.9-6.1,13.2-12.1,13.2c-5.1,0-10.1-4.4-11.4-16.2c-3.5,9.1-8.5,16.2-13.6,16.2
		c-9,0-12.9-9.5-12.9-20.8c0-16.3,8.1-36.3,20.5-36.3C185.5,321.9,188.9,326.3,189.8,332.3z M185.4,336.2c-2.2-2.9-4.3-4.2-6.3-4.2
		c-8.1,0-13.4,21-13.4,31.3c0,5.4,1.3,9.1,3.9,9.1C180.3,372.5,184.2,346.5,185.4,336.2z"/>
	<path d="M214,349.8c0.3,0,0.4-0.1,0.5-0.4c1.7-4.6,11.5-23.8,15.9-23.8c1.3,0,2.4,1.2,2.4,1.2c2.6,0.1,5.1,0.7,5.1,3.4
		c-1.4,10.3-2.2,19.5-2.2,28.3c0,6.5,0.7,14.1,4.3,14.1c4.3,0,8.1-6.3,9.1-9.8c0,0,0.1-0.5,0.7-0.5c1,0,1.3,1.3,1.3,2
		c0,4.8-3.5,10.3-7.2,12.9c-2.4,1.7-4.6,2.2-6.4,2.2c-11.5,0-12.1-18.1-12.1-25.9c0-6.1,0.4-12,0.7-15.7c0-0.5-0.1-2.2-0.5-2.2
		c-0.8,0-6.9,11.8-8.1,14.6c-2.9,6.5-4.4,15.1-4.4,21.8c0,4.8,0.1,8.7,0.1,8.7c0,1.3-0.3,2.2-0.9,2.2c-0.3,0-0.5-0.1-0.9-0.4
		c-2.2-1.7-6.9-4-8.1-5.2c0.3-4.7,2-22.6,3.4-41.9H206c-0.5,0-0.9-0.1-1-0.3c-1.2-0.5-0.5-1.3-1.7-1.8c-0.9,0-1.3-0.3-1.3-0.4
		c-0.1,0,2.9-0.7,4.8-1.3l0.4-4.7c2.2-32.2,12.4-68,19.8-68c6.4,0,9.3,6.8,9.3,16.3c0,17.1-8.9,43-21.5,55
		c-0.7,7.8-1.2,15.3-1.2,18.9C213.6,349.7,213.9,349.8,214,349.8z M228.2,275.5c-4.4,0-10.8,25.2-13.1,49.5
		c9.7-11.9,14.8-33.9,14.8-44.1C229.9,277.6,229.3,275.5,228.2,275.5z"/>
	<path d="M246.6,336c-0.7,0-1.3-0.4-1.3-1.3c0-0.1,0-0.3,0.1-0.5c4.3-5.4,9.5-9.4,13.8-9.4c5.9,0,7.2,6.3,7.2,13.4
		c0,6-0.9,12.7-1,17c4.2-9.1,9-24.4,16.6-31.6c0.4-0.3,0.7-0.4,1-0.4c1.4,0,6,3,6,4.6c0,0.3,0,0.4-0.1,0.7
		c-3.3,7.3-4.6,18.9-4.6,26.8c0,7.6,2.3,13.1,6.3,13.1c1.7,0,3.7-1,5.9-3.4c0,0,0.3-0.1,0.5-0.1c0.3,0,0.4,0.1,0.4,0.4
		c0,5.4-5.5,10.6-10.7,10.6c-11.4,0-12.3-23.5-12.3-30c-6.3,6.8-9.4,24.7-12.3,33.3c0,0.9-0.9,1.3-2,1.3c-1.4,0-3.4-0.8-3.7-1.6
		c-0.5-1.3-2.5-0.5-2.5-2c0-0.3,0-0.8,0.1-1.2c0.5-2.6,0.9-9.8,1.6-18.1c0.4-5.6,1.3-15.5,1.3-21.8c0-3.9-0.9-5.4-2.4-5.4
		c-2,0-4.7,2.6-7.1,5.4C247.4,335.8,247,336,246.6,336z"/>
	<path d="M305.8,349.8c0.3,0,0.4-0.1,0.5-0.4c1.7-4.6,11.5-23.8,15.9-23.8c1.3,0,2.4,1.2,2.4,1.2c2.6,0.1,5.1,0.7,5.1,3.4
		c-1.4,10.3-2.2,19.5-2.2,28.3c0,6.5,0.7,14.1,4.3,14.1c4.3,0,8.1-6.3,9.1-9.8c0,0,0.1-0.5,0.7-0.5c1,0,1.3,1.3,1.3,2
		c0,4.8-3.5,10.3-7.2,12.9c-2.4,1.7-4.6,2.2-6.4,2.2c-11.5,0-12.1-18.1-12.1-25.9c0-6.1,0.4-12,0.7-15.7c0-0.5-0.1-2.2-0.5-2.2
		c-0.8,0-6.9,11.8-8.1,14.6c-2.9,6.5-4.4,15.1-4.4,21.8c0,4.8,0.1,8.7,0.1,8.7c0,1.3-0.3,2.2-0.9,2.2c-0.3,0-0.5-0.1-0.9-0.4
		c-2.2-1.7-6.9-4-8.1-5.2c0.3-4.7,2-22.6,3.4-41.9h-0.5c-0.5,0-0.9-0.1-1-0.3c-1.2-0.5-0.5-1.3-1.7-1.8c-0.9,0-1.3-0.3-1.3-0.4
		c-0.1,0,2.9-0.7,4.8-1.3l0.4-4.7c2.2-32.2,12.4-68,19.8-68c6.4,0,9.3,6.8,9.3,16.3c0,17.1-8.9,43-21.5,55
		c-0.7,7.8-1.2,15.3-1.2,18.9C305.4,349.7,305.7,349.8,305.8,349.8z M320,275.5c-4.4,0-10.8,25.2-13.1,49.5
		c9.7-11.9,14.8-33.9,14.8-44.1C321.7,277.6,321.1,275.5,320,275.5z"/>
	<path d="M382.2,336.5c1.4,0,2.9,0,4.3-0.1c0.4-0.7,0.7-1.7,0.7-2.2c0,0,1.2-2.9,4.8-62.7c0-0.7,0-1.3,0.3-1.3c0.7,0,1,0,1.4,0.4
		c1,1.6,4.8,7.1,6.1,8.5c0.8,0.9,1.2,1.8,1.2,3c0,0.4,0,0.9-0.1,1.4c-2.6,18-4.8,35.6-6.8,52c4.3-0.5,8.5-1.3,12.5-1.6
		c3.5,0,7.2,3.9,9.7,7.6c0.7,0.9,2.9,0.5,2.9,1.7c0,0.4-0.1,0.9-0.8,1.2c-2.1,1-12.4,1.8-18.9,1.8c-1.3,0-2.4-0.1-3.3-0.1
		c-1,0-1.2,1.2-1.2,1.2c7.2,11.6,11,33.9,11,53.9c0,21.9-4.6,41.3-14,41.3c-9.9,0-12.9-9.9-12.9-24.2c0-20.6,6.3-50.5,6.8-71.8
		c0,0-0.1-2.5-2.1-2.7c-3.5-0.5-6-1-7.7-1.6c0.1,1.3,0.1,2.6,0.1,3.9c0,14.8-7.8,31.3-19.2,31.3c-11.6,0-16.5-10.6-16.5-22.6
		c0-15.9,8.5-34.6,20.9-34.6c10.1,0,10.8,7.1,10.8,9.5v0.9c-2.1-0.9-4-1.3-5.9-1.3c-11.4,0-16.8,16.1-16.8,28.9
		c0,8.5,2.3,15.4,7.1,15.4c6.1,0,10.4-12.7,10.4-23.4c0-6.3-1.4-11.7-4.8-13.7c0,0,4.3-2.2,7.3-3.3C376,336.2,379,336.5,382.2,336.5
		z M391.6,357.8c-3.3,30.3-5.1,53.5-5.1,61.6c0,11.1,0.9,15.8,2.1,15.8c2.6,0,7.4-26.2,7.4-49.4C396,374.5,394.8,363.9,391.6,357.8z
		"/>
	<path d="M437,314.9c0.4,0,1,0.1,1,0.7c0,0.1-2,8.6-2,18.7c0,9.4,7.7,23.8,7.7,34.5c0,7.8-5.6,11.9-11,11.9c-4.8,0-9.5-3.4-9.5-10.6
		c0-3.8,1.2-7.1,2-7.1c0.1,0,0.3,0,0.4,0.3c2,4.6,2,9.5,5.1,9.5c2.9,0,3.8-2.7,3.8-6.7c0-8.7-5-23.5-5-26.6c-3.1,6-9,29.2-17.2,39.7
		c0,0-2.9-0.5-2.9-1.6c0-0.1,0-0.3,0.1-0.4c8.9-12.8,18.7-47.5,19.5-56.9C429.3,317.4,435,314.9,437,314.9z"/>
</g>
<g>
	<path d="M511.3,382.4c-1.7,0-2-1.3-2-2.3c1.1-15.9,1.6-32.4,1.9-47.2c-6-1.5-11.2-4.4-14.6-9.8c0,0-3.2-4.4-3.9-4.9
		c-0.5-0.3-0.8-0.8-0.8-1.3c0-0.3,0.4-0.7,0.4-1.1v-0.3c-0.5-1.1-0.8-1.6-0.8-2c0-0.4,0.3-0.5,0.5-0.5c0.7,0,1.6,0.5,2.4,0.8
		c5.6,1.9,11.2,3.2,16.8,4.1c0.1-6.6,0.1-12.7,0.1-17.9c0-11,0-18.5,0.1-20.2c0-0.8,0.3-1.5,1.1-1.6c1.3-0.1,11.1-0.7,11.1-0.7
		c0.1,0,0.9,0.1,0.9,0.5c0,3.3-2.3,11-3.7,40.8c1.9,0.1,3.6,0.1,5.3,0.1c22.9,0,41.1-9.1,41.1-28.5c0-16-18.5-23-39-23
		c-25.9,0-55.1,11.1-55.1,29.7c0,1.1,0.4,1.9,0.4,2.9c0,0.5-0.3,0.9-0.5,0.9c-0.3,0-0.5-0.3-0.9-0.7h-1.5c-1.7-0.4-3.6-2-3.6-5.3
		c0-18.9,36-35,67.4-35c24.2,0,45.7,9.6,45.7,35.3c0,19.3-17,39.4-48.1,39.4c-3.7,0-7.8,0-11.6-0.3c-0.4,11.6-0.5,25.7-0.5,42.8
		C512.1,381.1,512.3,382.4,511.3,382.4z"/>
	<path d="M581.4,324.6c2.3,0,4.5-0.1,8.2-0.9c1.6,0,1.6,1.1,1.6,1.1c-3.5,19.4-5.3,27.1-5.3,40.5c0,4.5,1.2,6.2,2.9,6.2
		c2.9,0,7.2-4.8,8.7-8.3c0.3-0.4,0.8-0.8,1.2-0.8c0.4,0,0.7,0.3,0.7,0.8v0.3c-1.5,7.6-7.1,14.6-13.5,14.6c-7.5,0-9.8-9.8-9.8-21
		c0-11.6,2.4-24.7,3.7-30.6C579.8,326.4,580.3,324.6,581.4,324.6z M598,294.7c0,5.1-3.9,11.5-8.6,11.5c-4.3,0-6.2-3.2-6.2-6.8
		c0-4.9,3.5-10.8,8.8-10.8C596.4,288.5,598,291.3,598,294.7z"/>
	<path d="M618.6,324.6c6.2,0,12.6-1.3,17-1.3c2.1,0,3.2,0.3,3.6,0.8c1.3,1.3,1.9,2.5,1.9,3.6c0,2.3-2.4,3.9-4.3,5.6
		c-8.3-0.1-30.6,25-34.2,33.6c11.4-2,22.6-3.2,28.1-3.2c3.7,0,6.3,4,7.2,7.5c0.1,0.7,2.7,0.9,2.7,2.7c0-0.1-0.4-0.1-0.9-0.1
		c-5.2,0-31.4,3.5-34.4,4c-0.3,0-0.7,0.1-0.9,0.1c-4.4,0-7.2-5.3-7.2-9.1c0-5.2,23.9-32.2,31.4-35.6c-9,2.5-15.5,3.7-20.2,3.7
		c-6.6,0-9.2-2.3-9.2-6.2c0-2.9,1.6-7,4.3-11.5C607.3,323.6,612.8,324.6,618.6,324.6z"/>
	<path d="M677.1,398.3v-0.9c0-16.7-9.4-33.4-27.9-33.4c-4.4,0-7.2-5.3-7.2-9.1c0-5.2,18.1-18.3,25.5-21.7c-9,2.5-15.5,3.7-20.2,3.7
		c-6.6,0-9.2-2.3-9.2-6.2c0-2.9,1.6-7,4.3-11.5c4,4.3,9.5,5.3,15.2,5.3c6.2,0,12.6-1.3,17-1.3c2.1,0,3.2,0.3,3.6,0.8
		c1.5,1.5,2,2.9,2,4.3c0,2.7-2.1,5.1-4,6.8h-0.1c-8.3,0-22.3,8.8-25.9,17.4c1.1-0.1,2.1-0.3,3.1-0.3h0.7c19.9,1.7,28.5,18.7,28.5,37
		c0,2.9-0.3,6.2-0.7,9.1c22.3,1.2,43.1,4.8,69.7,4.8c6,0,11.2-0.5,16.2-2.5c0.8-0.3,1.5-0.4,1.7-0.4c0.3,0,0.4,0.1,0.4,0.3
		c0,1.5-2.9,1.9-3.5,3.6c-2.5,9.1-20.5,11.8-28.2,11.8c-25.1,0-39.2-5.9-58.3-8.7c-4.9,16.3-16.2,29.8-31.7,29.8
		c-11.4,0-16.8-5.9-16.8-13.1c0-11.2,13.4-25.8,38.4-25.8C672.1,398.2,674.6,398.2,677.1,398.3z M639.2,422c0,4.8,3.2,8.7,10.3,8.7
		c15,0,23.8-10.8,26.6-23.9c-5.1-0.5-10.4-0.9-16.6-0.9C646.5,405.8,639.2,414.8,639.2,422z"/>
	<path d="M728.2,341.2c-1.9,14-8.3,37.2-26.6,37.2c-8.3,0-16-6.4-19.8-22.3c-0.5,0-1.1,0-1.6-0.1c-0.8-0.1-0.3-1.5-1.7-3.1
		c-0.1-0.1-0.3-0.3-0.3-0.4c0-0.5,0.9-1.2,1.6-1.2l2,0.4c0.8-16.2,9-33,21.4-33c5.9,0,9.2,5.2,9.2,12c0,9.1-6,21-20.1,26.3
		c1.1,12.8,5.7,17.5,11.4,17.5c13.4,0,18.7-18.9,20.7-34.9c-3.6-2.7-5.3-8-5.3-13c0-5.5,2.1-10.4,6.3-10.4c4,0,4.9,2.8,4.9,6.2
		c0,2.8-0.7,6.2-0.7,8.7c0,2.3,0.3,3.2,1.2,3.2c0.7,0,1.6-0.5,2.9-1.3c4.7-3.1,11.8-10.6,12.8-10.6c1.7,0,4.4,3.5,4.4,5.3
		c0,0.9-0.4,1.7-0.4,1.7s-2.4,6.3-3.3,8.6c-3.1,7.4-4.3,14.7-4.3,20.7c0,11,2.9,17.9,6.4,17.9c2.3,0,4.8-3.1,7-9.9
		c0.3-0.9,0.1-1.5,1.9-2.7c0.4-0.3,0.7-0.4,0.8-0.4c0.3,0,0.4,0.3,0.4,0.5c0,0.3-0.1,0.7-0.1,0.7c-0.5,11.1-7.5,18.1-13.9,18.1
		c-5.8,0-11.1-5.5-11.1-18.6c0-9.6,2.1-20.2,3.3-24.6c-2.1,1.1-5.1,1.6-7.9,1.6C729.3,341.3,728.8,341.3,728.2,341.2z M692.3,351.4
		c9.6-3.5,13.6-13.1,13.6-19.4c0-3.2-1.1-5.6-3.1-5.6C696.8,326.4,692.5,339.5,692.3,351.4z"/>
	<path d="M761.8,324.6c2.3,0,4.5-0.1,8.2-0.9c1.6,0,1.6,1.1,1.6,1.1c-3.5,19.4-5.3,27.1-5.3,40.5c0,4.5,1.2,6.2,2.9,6.2
		c2.9,0,7.2-4.8,8.7-8.3c0.3-0.4,0.8-0.8,1.2-0.8c0.4,0,0.7,0.3,0.7,0.8v0.3c-1.5,7.6-7.1,14.6-13.5,14.6c-7.5,0-9.8-9.8-9.8-21
		c0-11.6,2.4-24.7,3.7-30.6C760.2,326.4,760.7,324.6,761.8,324.6z M778.4,294.7c0,5.1-3.9,11.5-8.6,11.5c-4.3,0-6.2-3.2-6.2-6.8
		c0-4.9,3.5-10.8,8.8-10.8C776.8,288.5,778.4,291.3,778.4,294.7z"/>
	<path d="M812.2,330.1c0.9-0.3,2-0.4,2.8-0.4c1.2,0,2,0.3,2,1.3c0,17.3,2.9,36.9,14.7,36.9c4.8,0,11-3.2,19.1-11.4
		c1.2-1.2,3.7-3.7,4.7-3.7c0.3,0,0.4,0.1,0.4,0.5c0,0.8-0.7,2.4-2.1,5.5l1.1,2.5c-4.7,13.5-12.8,20.2-21,20.2
		c-10.6,0-20.9-11.1-23.5-32.8c-3.2,13.4-9.5,29.2-17.3,29.2c-9.2,0-13.2-9.8-13.2-21.3c0-16.7,8.3-37.2,21-37.2
		C807.8,319.5,811.3,324,812.2,330.1z M807.8,334.3c-2.3-2.9-4.4-4.3-6.4-4.3c-8.3,0-13.8,21.5-13.8,32.1c0,5.5,1.3,9.4,4,9.4
		C802.6,371.4,806.6,344.8,807.8,334.3z"/>
</g>
<g>
	<path fill="#BE4727" d="M490.4,350.3c-1.6-0.1-3.2-0.3-4.7-0.3c-8.1,0-15.3,1.9-21,1.9c-5.7,0-10-1.9-13-9.5l0.3-0.7
		c2.6,2.7,6.6,3.5,11.2,3.5c8.1,0,17.9-2.6,23.8-2.6c3.2,0,5.4,0.7,5.4,3.2C492.4,348.1,491.5,350.3,490.4,350.3z"/>
</g>
<g>
	<path fill="#FFFFFF" d="M489.4,348.8c-1.6-0.1-3.2-0.3-4.7-0.3c-8.1,0-15.3,1.9-21,1.9c-5.7,0-10-1.9-13-9.5l0.3-0.7
		c2.6,2.7,6.6,3.5,11.2,3.5c8.1,0,17.9-2.6,23.8-2.6c3.2,0,5.4,0.7,5.4,3.2C491.4,346.6,490.5,348.8,489.4,348.8z"/>
</g>
<g>
	<path d="M488.4,347.7c-1.6-0.1-3.2-0.3-4.7-0.3c-8.1,0-15.3,1.9-21,1.9c-5.7,0-10-1.9-13-9.5l0.3-0.7c2.6,2.7,6.6,3.5,11.2,3.5
		c8.1,0,17.9-2.6,23.8-2.6c3.2,0,5.4,0.7,5.4,3.2C490.4,345.5,489.5,347.7,488.4,347.7z"/>
</g>
</svg>
